<?xml version="1.0" encoding="UTF-8"?><svg id="_イヤー_2" xmlns="http://www.w3.org/2000/svg" viewBox="0 0 219.22795 424.08"><defs><style>.cls-1{fill:#ff7bac;}.cls-2{stroke:#bd5b7e;stroke-width:4px;}.cls-2,.cls-3,.cls-4{fill:none;}.cls-3{opacity:.5;stroke:#fff;}.cls-3,.cls-4{stroke-linecap:round;stroke-linejoin:round;stroke-width:15px;}.cls-5{fill:#fff;stroke:#ff7bac;}.cls-6{fill:#e5b479;}.cls-7{fill:#fffefe;}.cls-4{opacity:.29;stroke:#7d3c54;}.cls-8{fill:rgba(125,60,84,.29);}</style></defs><g id="_イヤー_2-2"><g><path class="cls-7" d="M174.15324,424.08H46.03731c2.25825-1.16506,3.01803-3.0195,2.89518-5.52385-.23866-4.86445-.29533-9.73807-.41136-14.60827-.16928-7.10741-.31038-14.2155-.49032-21.32265-.13536-5.34884-.29565-10.69724-.4755-16.04479-.30596-9.09724-.61438-18.19452-.96263-27.29021-.2871-7.49792-.61681-14.99436-.95841-22.49003-.30162-6.61764-.61423-13.23511-.97929-19.8495-.44408-8.04678-.92283-16.0919-1.43385-24.13473-.4502-7.08542-.92239-14.17003-1.46361-21.24901-.5836-7.63308-1.22076-15.26259-1.90546-22.8873-.58474-6.51125-1.17422-13.02468-1.93407-19.51698-1.02835-8.78613-2.14801-17.56316-3.36139-26.32567-1.74927-12.63267-5.16625-24.81414-10.12087-36.57372-2.78951-6.62079-5.65291-13.22258-8.10823-19.96924-3.79897-10.4386-6.89069-21.09841-7.81097-32.2383-.32772-3.96695-.52459-7.99248-.22047-11.94817,.22852-2.9725,1.03877-5.99992,2.13767-8.78709,3.19985-8.11602,12.5385-12.63701,21.98364-11.21504,3.25051,.48938,6.43741,1.28956,9.34624,2.86473,3.40433,1.8435,6.83595-.53567,6.25997-4.18016-.261-1.65149-.44864-3.32719-.49902-4.99706-.17101-5.6687-.38316-11.34622,.463-16.9851,.76254-5.08128,2.04053-10.00583,4.61999-14.51861,2.78134-4.86597,6.75582-8.29759,12.17669-9.81271,5.0836-1.42085,10.21969-2.35275,15.58614-1.6076,5.58499,.7755,10.38911,2.95536,14.44554,6.85401,3.59047,3.45078,6.04846,7.60065,7.73397,12.25004,.86352,2.38197,2.30575,3.36315,4.47174,3.07262,1.79897-.2413,2.70042-1.43499,3.38163-3.01361,1.13586-2.63232,2.23529-5.30688,3.66776-7.77969,4.20535-7.25957,10.18437-12.46212,18.33714-14.8674,5.86913-1.73155,11.81456-1.63584,17.76265-.34594,6.3227,1.37114,11.20859,4.84373,14.87181,10.12844,2.72089,3.92526,4.49769,8.27159,5.70293,12.85519,1.13773,4.32697,1.9997,8.71716,2.06624,13.20933,.07079,4.77707,.22399,9.5659-.02363,14.33064-.20173,3.88225,1.83476,5.95626,5.65139,5.1369,1.71366-.36789,3.41619-.82493,5.1483-1.06312,7.46761-1.0269,14.45661,.13144,20.75433,4.56464,1.77244,1.24769,2.9975,2.79163,3.84167,4.76227,2.66738,6.22662,3.27643,12.81178,3.25578,19.45501-.01087,3.49531-.40155,7.01678-.93475,10.47808-1.69735,11.01873-4.94628,21.61504-9.25724,31.8754-2.41484,5.74749-4.73494,11.51338-6.41416,17.52722-4.59882,16.46988-7.65522,33.25458-10.0215,50.1607-1.41388,10.10156-2.37282,20.26715-3.49881,30.40812-.13229,1.19139-.55437,2.11435-1.48156,2.87634-2.03669,1.67365-3.99138,3.44894-6.05572,5.08678-15.56248,12.34745-32.61147,22.16642-50.93918,29.78521-7.38191,3.06866-14.70988,6.23641-21.64163,10.25423-8.98449,5.20765-17.18916,11.35478-23.79936,19.46438-10.06409,12.34686-13.64279,26.48398-11.56591,42.13881,.8212,6.18977,2.54871,12.1681,4.67687,18.03667,2.19446,6.05151,5.05953,11.72386,9.0925,16.77653,6.59058,8.25693,14.79355,14.52195,24.0623,19.45656,9.22127,4.90931,19.00936,8.26524,29.15896,10.67873,6.99873,1.66426,14.08071,2.8076,21.21199,3.59512,5.07098,.55999,10.18694,.71265,15.28276,1.04797,.76415,.05027,1.52795,.10512,2.23622,.15401,0,2.02743,.22829,3.8125-.05184,5.51392-.45541,2.76602,.27087,4.85596,2.65368,6.34695Z"/><path class="cls-6" d="M174.15324,424.08c-2.3828-1.49098-3.10909-3.58092-2.65368-6.34695,.28013-1.70142,.05184-3.48649,.05184-5.51392-.70827-.0489-1.47207-.10374-2.23622-.15401-5.09582-.33532-10.21178-.48799-15.28276-1.04797-7.13128-.78752-14.21326-1.93086-21.21199-3.59512-10.1496-2.41349-19.93769-5.76942-29.15896-10.67873-9.26875-4.93461-17.47171-11.19963-24.0623-19.45656-4.03297-5.05267-6.89804-10.72502-9.0925-16.77653-2.12815-5.86856-3.85567-11.8469-4.67687-18.03667-2.07687-15.65483,1.50183-29.79195,11.56591-42.13881,6.61021-8.10959,14.81487-14.25673,23.79936-19.46438,6.93175-4.01781,14.25971-7.18556,21.64163-10.25423,18.32771-7.61879,35.3767-17.43777,50.93918-29.78521,2.06434-1.63784,4.01903-3.41313,6.05572-5.08678,.92719-.76199,1.34927-1.68495,1.48156-2.87634,1.12599-10.14097,2.08493-20.30656,3.49881-30.40812,2.36629-16.90613,5.42269-33.69083,10.0215-50.1607,1.67922-6.01384,3.99932-11.77973,6.41416-17.52722,4.31096-10.26036,7.55989-20.85666,9.25724-31.8754,.5332-3.4613,.92388-6.98277,.93475-10.47808,.02065-6.64323-.5884-13.22839-3.25578-19.45501-.84416-1.97064-2.06923-3.51459-3.84167-4.76227-6.29772-4.4332-13.28672-5.59154-20.75433-4.56464-1.73211,.23819-3.43464,.69523-5.1483,1.06312-3.81663,.81936-5.85311-1.25465-5.65139-5.1369,.24762-4.76474,.09442-9.55357,.02363-14.33064-.06654-4.49217-.92851-8.88236-2.06624-13.20933-1.20524-4.5836-2.98204-8.92993-5.70293-12.85519-3.66322-5.2847-8.54911-8.7573-14.87181-10.12844-5.94809-1.2899-11.89352-1.38561-17.76265,.34594-8.15277,2.40528-14.13179,7.60783-18.33714,14.8674-1.43248,2.47281-2.5319,5.14737-3.66776,7.77969-.68121,1.57861-1.58266,2.77231-3.38163,3.01361-2.16599,.29053-3.60822-.69065-4.47174-3.07262-1.68551-4.64939-4.1435-8.79925-7.73397-12.25004-4.05643-3.89865-8.86055-6.07851-14.44554-6.85401-5.36645-.74515-10.50254,.18676-15.58614,1.6076-5.42087,1.51512-9.39535,4.94674-12.17669,9.81271-2.57946,4.51279-3.85745,9.43733-4.61999,14.51861-.84615,5.63888-.634,11.3164-.463,16.9851,.05037,1.66986,.23801,3.34556,.49902,4.99706,.57598,3.64449-2.85564,6.02365-6.25997,4.18016-2.90882-1.57517-6.09573-2.37536-9.34624-2.86473-9.44514-1.42197-18.78379,3.09902-21.98364,11.21504-1.0989,2.78717-1.90915,5.81459-2.13767,8.78709-.30411,3.9557-.10725,7.98123,.22047,11.94817,.92028,11.13989,4.012,21.79971,7.81097,32.2383,2.45532,6.74667,5.31872,13.34845,8.10823,19.96924,4.95462,11.75959,8.3716,23.94106,10.12087,36.57372,1.21338,8.76251,2.33305,17.53955,3.36139,26.32567,.75985,6.49229,1.34933,13.00573,1.93407,19.51698,.6847,7.62471,1.32186,15.25422,1.90546,22.8873,.54122,7.07898,1.01341,14.16359,1.46361,21.24901,.51103,8.04283,.98978,16.08795,1.43385,24.13473,.36506,6.61439,.67767,13.23186,.97929,19.8495,.3416,7.49567,.67131,14.9921,.95841,22.49003,.34825,9.09569,.65667,18.19297,.96263,27.29021,.17985,5.34755,.34014,10.69595,.4755,16.04479,.17994,7.10715,.32104,14.21524,.49032,21.32265,.11603,4.87019,.1727,9.74381,.41136,14.60827,.12286,2.50434-.63693,4.35878-2.89518,5.52385h-2.39917c-2.14561-1.27138-2.88024-3.18253-2.85233-5.627,.05752-5.0339,.00117-10.07032-.08675-15.10433-.13103-7.50551-.31504-15.0102-.50502-22.5145-.12119-4.78786-.2832-9.57472-.4458-14.3614-.32254-9.49408-.63218-18.98872-.99686-28.48122-.26349-6.8578-.57013-13.71448-.92529-20.56813-.38799-7.48765-.85526-14.97122-1.28543-22.45668-.16939-2.94721-.34061-5.89436-.49553-8.84233-.20527-3.90526-.34213-7.81494-.60457-11.71625-.38533-5.72752-.85922-11.4491-1.28827-17.17372-.19074-2.54528-.33888-5.09392-.55042-7.63739-.61461-7.3885-1.2374-14.77635-1.88411-22.16209-.50769-5.79813-.97332-11.60178-1.60872-17.38638-.65245-5.93945-1.51237-11.85581-2.23807-17.78759-1.05646-8.63555-2.5756-17.17852-4.80391-25.59653-1.90601-7.20038-4.56857-14.12581-7.57764-20.91324-5.41618-12.217-9.96217-24.72103-12.85319-37.78666C.96122,100.3945-.25598,92.7483,.04617,84.96437c.26929-6.93716,1.42631-13.71092,5.60418-19.50592,4.67549-6.48524,11.13765-10.07441,19.02573-11.2952,4.35747-.67438,8.57778-.08362,12.81125,.78756,.52169,.10736,1.06332,.11781,1.84841,.19944,0-1.18005,.02393-2.19989-.0039-3.21832-.18591-6.80874,.2613-13.55868,1.90502-20.19205,1.1783-4.75528,2.88923-9.28422,5.6585-13.37884,3.31556-4.90236,7.57986-8.66462,13.16448-10.70228,8.18631-2.98695,16.5963-3.96703,25.17403-1.99124,8.13365,1.8735,14.49823,6.45336,19.38722,13.15566,.46997,.64429,.91993,1.30315,1.38565,1.9506,.04302,.05978,.13308,.08571,.43163,.26794,.46824-.66903,.97399-1.33811,1.42366-2.04295,2.7763-4.35203,6.15875-8.14897,10.28482-11.26681,5.41088-4.08871,11.49027-6.50679,18.22573-7.29861,.44853-.05273,.87597-.28471,1.31322-.43333h8.15719c1.45886,.305,2.90815,.66945,4.37814,.90523,8.65445,1.38815,15.44407,5.81665,20.67783,12.72225,4.53342,5.98154,7.04069,12.86856,8.43794,20.14765,.76395,3.97974,1.15044,8.03976,1.54915,12.07917,.3117,3.15799,.38023,6.33997,.56603,9.67733,.97677,0,1.91401,.08439,2.83195-.01291,10.38361-1.10056,19.61021,1.60105,27.53076,8.44507,.99604,.86066,1.74681,2.0822,2.39346,3.25641,2.61408,4.74689,4.19894,9.86205,4.56198,15.25007,.34274,5.08689,.62855,10.21911,.33718,15.29684-.37443,6.52514-1.73062,12.94345-3.40857,19.27836-2.37659,8.97238-5.60385,17.63601-9.28664,26.14299-2.6422,6.1032-4.25941,12.53219-5.87022,18.95452-2.8723,11.45185-5.09643,23.03628-6.75714,34.72239-1.21054,8.51826-2.37987,17.04598-3.34209,25.59487-.96266,8.55226-1.71612,17.13016-2.42826,25.70789-.58711,7.07201-.97894,14.16025-1.4588,21.24119-.47445,7.0013-.81329,14.01522-1.46144,21.00048-.78943,8.50771-1.2251,17.02377-1.4494,25.56176-.21587,8.21652-.62343,16.42804-.9505,24.6416-.31117,7.81465-.63049,15.62892-.94011,23.44363-.33173,8.37326-.65146,16.74699-.98533,25.12016-.29884,7.49532-.60293,14.99046-.91879,22.48508-.12095,2.86924-.30959,5.73578-.41365,8.60548-.07166,1.97554-1.4856,2.87336-2.88405,3.8125h-2.39917Z"/></g><g><g><g><path class="cls-1" d="M84.30357,89.59969c11.2529-1.00256,19.30152-13.81475,17.98088-28.61713-1.32351-14.80139-11.51605-25.9846-22.76643-24.98062-11.25274,1.00843-19.30114,13.81792-17.98021,28.62015,1.32321,14.80153,11.51576,25.98474,22.76576,24.97759Z"/><path class="cls-1" d="M57.3077,126.90306c9.63157-5.59589,11.47363-20.39972,4.11463-33.0755-7.35929-12.67006-21.13417-18.40621-30.76804-12.81519-9.62937,5.5982-11.47012,20.40402-4.11091,33.07709,7.35959,12.66992,21.13281,18.40648,30.76431,12.8136Z"/><path class="cls-1" d="M135.29748,89.65498c11.25065,1.03268,21.46561-10.12862,22.82125-24.92552,1.35206-14.80451-6.66759-27.63266-17.91932-28.66446-11.24805-1.02795-21.4646,10.13708-22.81903,24.9334-1.35246,14.80209,6.66918,27.62894,17.9171,28.65658Z"/><path class="cls-1" d="M188.9655,81.18444c-9.62041-5.61241-23.40701,.09164-30.79406,12.74607-7.38719,12.66044-5.57549,27.46893,4.04454,33.08449,9.61874,5.61282,23.40685-.09119,30.79291-12.7485,7.38468-12.65627,5.57542-27.46592-4.04339-33.08206Z"/><path class="cls-1" d="M131.0302,110.36187c-4.63842-7.02809-12.49744-11.73005-21.52749-11.74082-9.02738-.00905-16.89712,4.67706-21.55037,11.69145-5.14225,7.75538-7.06129,15.62844-12.08694,21.04008-5.02488,5.4109-25.8825,6.15334-27.45477,30.87021-1.11003,17.45763,14.14668,31.68687,31.63753,31.70525,13.29439,.01403,21.63462-4.61092,29.35832-4.60446,7.72279,.00689,16.05391,4.65177,29.34711,4.66562,17.49068,.01882,32.7785-14.17517,31.70597-31.63601-1.51762-24.72032-22.3757-25.50693-27.39024-30.92841-5.01228-5.42142-6.91373-13.29951-12.03912-21.06292Z"/></g><g><path class="cls-1" d="M84.30357,89.59969c11.2529-1.00256,19.30152-13.81475,17.98088-28.61713-1.32351-14.80139-11.51605-25.9846-22.76643-24.98062-11.25274,1.00843-19.30114,13.81792-17.98021,28.62015,1.32321,14.80153,11.51576,25.98474,22.76576,24.97759Z"/><path class="cls-1" d="M57.3077,126.90306c9.63157-5.59589,11.47363-20.39972,4.11463-33.0755-7.35929-12.67006-21.13417-18.40621-30.76804-12.81519-9.62937,5.5982-11.47012,20.40402-4.11091,33.07709,7.35959,12.66992,21.13281,18.40648,30.76431,12.8136Z"/><path class="cls-1" d="M135.29748,89.65498c11.25065,1.03268,21.46561-10.12862,22.82125-24.92552,1.35206-14.80451-6.66759-27.63266-17.91932-28.66446-11.24805-1.02795-21.4646,10.13708-22.81903,24.9334-1.35246,14.80209,6.66918,27.62894,17.9171,28.65658Z"/><path class="cls-1" d="M188.9655,81.18444c-9.62041-5.61241-23.40701,.09164-30.79406,12.74607-7.38719,12.66044-5.57549,27.46893,4.04454,33.08449,9.61874,5.61282,23.40685-.09119,30.79291-12.7485,7.38468-12.65627,5.57542-27.46592-4.04339-33.08206Z"/><path class="cls-1" d="M131.0302,110.36187c-4.63842-7.02809-12.49744-11.73005-21.52749-11.74082-9.02738-.00905-16.89712,4.67706-21.55037,11.69145-5.14225,7.75538-7.06129,15.62844-12.08694,21.04008-5.02488,5.4109-25.8825,6.15334-27.45477,30.87021-1.11003,17.45763,14.14668,31.68687,31.63753,31.70525,13.29439,.01403,21.63462-4.61092,29.35832-4.60446,7.72279,.00689,16.05391,4.65177,29.34711,4.66562,17.49068,.01882,32.7785-14.17517,31.70597-31.63601-1.51762-24.72032-22.3757-25.50693-27.39024-30.92841-5.01228-5.42142-6.91373-13.29951-12.03912-21.06292Z"/></g><g><path class="cls-2" d="M84.30357,89.59969c11.2529-1.00256,19.30152-13.81475,17.98088-28.61713-1.32351-14.80139-11.51605-25.9846-22.76643-24.98062-11.25274,1.00843-19.30114,13.81792-17.98021,28.62015,1.32321,14.80153,11.51576,25.98474,22.76576,24.97759Z"/><path class="cls-2" d="M57.3077,126.90306c9.63157-5.59589,11.47363-20.39972,4.11463-33.0755-7.35929-12.67006-21.13417-18.40621-30.76804-12.81519-9.62937,5.5982-11.47012,20.40402-4.11091,33.07709,7.35959,12.66992,21.13281,18.40648,30.76431,12.8136Z"/><path class="cls-2" d="M135.29748,89.65498c11.25065,1.03268,21.46561-10.12862,22.82125-24.92552,1.35206-14.80451-6.66759-27.63266-17.91932-28.66446-11.24805-1.02795-21.4646,10.13708-22.81903,24.9334-1.35246,14.80209,6.66918,27.62894,17.9171,28.65658Z"/><path class="cls-2" d="M188.9655,81.18444c-9.62041-5.61241-23.40701,.09164-30.79406,12.74607-7.38719,12.66044-5.57549,27.46893,4.04454,33.08449,9.61874,5.61282,23.40685-.09119,30.79291-12.7485,7.38468-12.65627,5.57542-27.46592-4.04339-33.08206Z"/><path class="cls-2" d="M131.0302,110.36187c-4.63842-7.02809-12.49744-11.73005-21.52749-11.74082-9.02738-.00905-16.89712,4.67706-21.55037,11.69145-5.14225,7.75538-7.06129,15.62844-12.08694,21.04008-5.02488,5.4109-25.8825,6.15334-27.45477,30.87021-1.11003,17.45763,14.14668,31.68687,31.63753,31.70525,13.29439,.01403,21.63462-4.61092,29.35832-4.60446,7.72279,.00689,16.05391,4.65177,29.34711,4.66562,17.49068,.01882,32.7785-14.17517,31.70597-31.63601-1.51762-24.72032-22.3757-25.50693-27.39024-30.92841-5.01228-5.42142-6.91373-13.29951-12.03912-21.06292Z"/></g></g><ellipse class="cls-8" cx="42.64815" cy="114.0998" rx="10.43906" ry="17.21357" transform="translate(-74.50199 80.73106) rotate(-53.60636)"/><ellipse class="cls-5" cx="43.98246" cy="88.23598" rx="4.45579" ry="9.13038" transform="translate(-53.78379 75.51571) rotate(-56.09235)"/><ellipse class="cls-5" cx="87.97776" cy="46.94722" rx="4.45579" ry="9.13038" transform="translate(-7.42861 75.96019) rotate(-45)"/><ellipse class="cls-5" cx="146.44228" cy="48.2203" rx="4.45579" ry="9.13038" transform="translate(2.70685 103.99364) rotate(-39.43324)"/><ellipse class="cls-5" cx="188.97558" cy="92.99034" rx="4.45579" ry="9.13038" transform="translate(-19.95111 66.37058) rotate(-18.93964)"/><path class="cls-3" d="M109.79292,108.32037s12.13368-.5835,17.43819,15.01176c3.24368,6.9852,9.54254,15.00536,12.41255,16.76224,5.24523,3.21088,8.37656,3.33198,13.98418,7.74458,14.15623,11.13947,5.32423,26.01861,5.32423,26.01861"/><ellipse class="cls-8" cx="75.86677" cy="72.60305" rx="10.43906" ry="17.21357" transform="translate(-26.1373 47.66035) rotate(-30)"/><ellipse class="cls-8" cx="129.71394" cy="72.60305" rx="10.43906" ry="17.21357" transform="translate(-14.2676 35.64058) rotate(-14.83859)"/><ellipse class="cls-8" cx="165.12032" cy="108.31754" rx="17.21357" ry="10.43906" transform="translate(5.74962 224.92967) rotate(-69.45761)"/><path class="cls-4" d="M57.43425,156.78026s-3.25546,6.95872-.35543,13.86807c0,0,3.75043,10.72814,12.65142,14.0039,7.00195,3.60707,22.26835,1.04787,28.31549-.54348s8.70998-2.63922,13.37794-2.53313c4.01485,.09125,10.50293,1.59135,12.41255,2.22789s7.03413,1.87694,7.03413,1.87694"/></g></g></svg>