<?xml version="1.0" encoding="UTF-8"?><svg xmlns="http://www.w3.org/2000/svg" viewBox="0 0 500 500"><defs><style>.cls-1{stroke:#fff;}.cls-1,.cls-2,.cls-3{fill:none;}.cls-1,.cls-3{stroke-linecap:round;stroke-linejoin:round;stroke-width:15px;}.cls-4{fill:#ff7bac;}.cls-2{stroke:#bd5b7e;stroke-width:4px;}.cls-5{fill:#bd9957;}.cls-6{letter-spacing:-.05em;}.cls-7{font-family:AB-walk-90ms-RKSJ-H, AB-walk;font-size:55px;}.cls-8{fill:#fff;stroke:#ff7bac;}.cls-9{fill:#f3eed5;}.cls-10{fill:#f7e1b8;}.cls-3{opacity:.29;stroke:#7d3c54;}.cls-11{fill:rgba(125,60,84,.29);}</style></defs><g id="_イヤー_1"><g><path class="cls-9" d="M243.68066,476.69141c-60.55176,0-117.47852-23.58008-160.29492-66.39648S16.98926,310.55176,16.98926,250s23.58008-117.47852,66.39648-160.29492S183.12891,23.30859,243.68066,23.30859s117.47852,23.58008,160.29492,66.39648,66.39648,99.74365,66.39648,160.29492-23.58008,117.47852-66.39648,160.29492-99.74316,66.39648-160.29492,66.39648Z"/><path class="cls-5" d="M243.68085,24.8085c124.36981,0,225.19147,100.82169,225.19147,225.1915s-100.82166,225.1915-225.19147,225.1915S18.48938,374.36981,18.48938,250,119.31104,24.8085,243.68085,24.8085m0-3c-30.80432,0-60.68884,6.03375-88.8233,17.93363-27.17328,11.49331-51.57672,27.94637-72.53247,48.90212-20.95569,20.95575-37.40875,45.35918-48.90204,72.53243-11.8999,28.13451-17.93365,58.01901-17.93365,88.82332s6.03375,60.68881,17.93365,88.8233c11.49329,27.17325,27.94635,51.57669,48.90204,72.53244,20.95575,20.95575,45.35919,37.40881,72.53247,48.90213,28.13446,11.89987,58.01898,17.93362,88.8233,17.93362s60.68884-6.03375,88.8233-17.93362c27.17328-11.49332,51.57672-27.94638,72.53247-48.90213,20.95569-20.95575,37.40875-45.35919,48.90204-72.53244,11.8999-28.13449,17.93365-58.01898,17.93365-88.8233s-6.03375-60.68881-17.93365-88.82332c-11.49329-27.17325-27.94635-51.57668-48.90204-72.53243-20.95575-20.95575-45.35919-37.40881-72.53247-48.90212-28.13446-11.89988-58.01898-17.93363-88.8233-17.93363h0Z"/><path class="cls-10" d="M243.68085,39.80854c28.38226,0,55.90765,5.55537,81.81134,16.51173,25.02777,10.58582,47.508,25.74345,66.81647,45.05191,19.30847,19.30845,34.46613,41.78872,45.05194,66.81644,10.95636,25.90373,16.51172,53.42909,16.51172,81.81137s-5.55536,55.90762-16.51172,81.81137c-10.58582,25.02771-25.74347,47.508-45.05194,66.81644-19.30847,19.30847-41.7887,34.46609-66.81647,45.05191-25.90369,10.95636-53.42908,16.51175-81.81134,16.51175s-55.90765-5.55539-81.81134-16.51175c-25.02777-10.58582-47.508-25.74344-66.81647-45.05191-19.30847-19.30844-34.46613-41.78873-45.05194-66.81644-10.95636-25.90375-16.51172-53.42911-16.51172-81.81137s5.55536-55.90764,16.51172-81.81137c10.58582-25.02773,25.74347-47.508,45.05194-66.81644,19.30847-19.30846,41.7887-34.46609,66.81647-45.05191,25.90369-10.95636,53.42908-16.51173,81.81134-16.51173m0-15C119.31104,24.80855,18.48938,125.63018,18.48938,250s100.82166,225.19147,225.19147,225.19147,225.19147-100.82166,225.19147-225.19147S368.05066,24.80855,243.68085,24.80855h0Z"/></g></g><g id="_イヤー_2"><g><g><path class="cls-4" d="M202.78592,206.17065c18.05434-1.60852,30.96766-22.16461,28.84882-45.91378-2.12345-23.74759-18.47653-41.69011-36.52683-40.07931-18.05408,1.61795-30.96706,22.1697-28.84774,45.91864,2.12298,23.74781,18.47606,41.69033,36.52575,40.07445Z"/><path class="cls-4" d="M159.47332,266.02078c15.45305-8.97814,18.40848-32.72965,6.60158-53.06686-11.80736-20.32805-33.90801-29.53123-49.36474-20.5609-15.44952,8.98185-18.40285,32.73654-6.5956,53.06942,11.80785,20.32782,33.90582,29.53166,49.35876,20.55834Z"/><path class="cls-4" d="M284.60139,206.25936c18.05072,1.65685,34.43977-16.25053,36.61479-39.99091,2.16927-23.75259-10.69759-44.33429-28.75005-45.98973-18.04655-1.64927-34.43816,16.26409-36.61122,40.00355-2.16991,23.74871,10.70015,44.32831,28.74648,45.97708Z"/><path class="cls-4" d="M370.70723,192.66907c-15.43513-9.00463-37.55459,.14703-49.40648,20.45-11.85212,20.31261-8.9454,44.0716,6.48912,53.08129,15.43246,9.00529,37.55433-.14631,49.40465-20.4539,11.84811-20.30593,8.9453-44.06677-6.48729-53.07739Z"/><path class="cls-4" d="M277.7549,239.48183c-7.44196-11.27598-20.0511-18.81988-34.53906-18.83717-14.48367-.01452-27.11001,7.50394-34.57577,18.75796-8.25031,12.44286-11.32926,25.07452-19.39249,33.75704-8.062,8.68134-41.5263,9.87251-44.04888,49.52867-1.78095,28.0093,22.69717,50.83894,50.75976,50.86842,21.32974,.02251,34.71094-7.39783,47.10297-7.38747,12.39056,.01105,25.75716,7.46338,47.08498,7.4856,28.06233,.03019,52.59035-22.74288,50.86957-50.75732-2.4349-39.66169-35.89994-40.92373-43.94535-49.62204-8.04178-8.69822-11.0925-21.33794-19.31575-33.79369Z"/></g><g><path class="cls-4" d="M202.78592,206.17065c18.05434-1.60852,30.96766-22.16461,28.84882-45.91378-2.12345-23.74759-18.47653-41.69011-36.52683-40.07931-18.05408,1.61795-30.96706,22.1697-28.84774,45.91864,2.12298,23.74781,18.47606,41.69033,36.52575,40.07445Z"/><path class="cls-4" d="M159.47332,266.02078c15.45305-8.97814,18.40848-32.72965,6.60158-53.06686-11.80736-20.32805-33.90801-29.53123-49.36474-20.5609-15.44952,8.98185-18.40285,32.73654-6.5956,53.06942,11.80785,20.32782,33.90582,29.53166,49.35876,20.55834Z"/><path class="cls-4" d="M284.60139,206.25936c18.05072,1.65685,34.43977-16.25053,36.61479-39.99091,2.16927-23.75259-10.69759-44.33429-28.75005-45.98973-18.04655-1.64927-34.43816,16.26409-36.61122,40.00355-2.16991,23.74871,10.70015,44.32831,28.74648,45.97708Z"/><path class="cls-4" d="M370.70723,192.66907c-15.43513-9.00463-37.55459,.14703-49.40648,20.45-11.85212,20.31261-8.9454,44.0716,6.48912,53.08129,15.43246,9.00529,37.55433-.14631,49.40465-20.4539,11.84811-20.30593,8.9453-44.06677-6.48729-53.07739Z"/><path class="cls-4" d="M277.7549,239.48183c-7.44196-11.27598-20.0511-18.81988-34.53906-18.83717-14.48367-.01452-27.11001,7.50394-34.57577,18.75796-8.25031,12.44286-11.32926,25.07452-19.39249,33.75704-8.062,8.68134-41.5263,9.87251-44.04888,49.52867-1.78095,28.0093,22.69717,50.83894,50.75976,50.86842,21.32974,.02251,34.71094-7.39783,47.10297-7.38747,12.39056,.01105,25.75716,7.46338,47.08498,7.4856,28.06233,.03019,52.59035-22.74288,50.86957-50.75732-2.4349-39.66169-35.89994-40.92373-43.94535-49.62204-8.04178-8.69822-11.0925-21.33794-19.31575-33.79369Z"/></g><g><path class="cls-2" d="M202.78592,206.17065c18.05434-1.60852,30.96766-22.16461,28.84882-45.91378-2.12345-23.74759-18.47653-41.69011-36.52683-40.07931-18.05408,1.61795-30.96706,22.1697-28.84774,45.91864,2.12298,23.74781,18.47606,41.69033,36.52575,40.07445Z"/><path class="cls-2" d="M159.47332,266.02078c15.45305-8.97814,18.40848-32.72965,6.60158-53.06686-11.80736-20.32805-33.90801-29.53123-49.36474-20.5609-15.44952,8.98185-18.40285,32.73654-6.5956,53.06942,11.80785,20.32782,33.90582,29.53166,49.35876,20.55834Z"/><path class="cls-2" d="M284.60139,206.25936c18.05072,1.65685,34.43977-16.25053,36.61479-39.99091,2.16927-23.75259-10.69759-44.33429-28.75005-45.98973-18.04655-1.64927-34.43816,16.26409-36.61122,40.00355-2.16991,23.74871,10.70015,44.32831,28.74648,45.97708Z"/><path class="cls-2" d="M370.70723,192.66907c-15.43513-9.00463-37.55459,.14703-49.40648,20.45-11.85212,20.31261-8.9454,44.0716,6.48912,53.08129,15.43246,9.00529,37.55433-.14631,49.40465-20.4539,11.84811-20.30593,8.9453-44.06677-6.48729-53.07739Z"/><path class="cls-2" d="M277.7549,239.48183c-7.44196-11.27598-20.0511-18.81988-34.53906-18.83717-14.48367-.01452-27.11001,7.50394-34.57577,18.75796-8.25031,12.44286-11.32926,25.07452-19.39249,33.75704-8.062,8.68134-41.5263,9.87251-44.04888,49.52867-1.78095,28.0093,22.69717,50.83894,50.75976,50.86842,21.32974,.02251,34.71094-7.39783,47.10297-7.38747,12.39056,.01105,25.75716,7.46338,47.08498,7.4856,28.06233,.03019,52.59035-22.74288,50.86957-50.75732-2.4349-39.66169-35.89994-40.92373-43.94535-49.62204-8.04178-8.69822-11.0925-21.33794-19.31575-33.79369Z"/></g></g><ellipse class="cls-11" cx="135.95329" cy="245.47902" rx="16.7486" ry="27.61772" transform="translate(-142.31252 209.26598) rotate(-53.60636)"/><ellipse class="cls-8" cx="138.09408" cy="203.98268" rx="7.14894" ry="14.64894" transform="translate(-108.23546 204.79922) rotate(-56.09235)"/><ellipse class="cls-8" cx="208.68085" cy="137.73832" rx="7.14894" ry="14.64894" transform="translate(-36.2745 187.90227) rotate(-45)"/><ellipse class="cls-8" cx="302.48228" cy="139.78088" rx="7.14894" ry="14.64894" transform="translate(-19.93034 223.94931) rotate(-39.43324)"/><ellipse class="cls-8" cx="370.7234" cy="211.61066" rx="7.14894" ry="14.64894" transform="translate(-48.6123 131.78281) rotate(-18.93964)"/><path class="cls-1" d="M243.68146,236.20641s19.46748-.93617,27.97812,24.08511c5.20421,11.20717,15.31021,24.07485,19.91489,26.89362,8.41553,5.15158,13.4395,5.34588,22.43644,12.42553,22.71249,17.87234,8.54228,41.74468,8.54228,41.74468"/><ellipse class="cls-11" cx="189.24979" cy="178.90096" rx="16.7486" ry="27.61772" transform="translate(-64.09581 118.59308) rotate(-30)"/><ellipse class="cls-11" cx="275.64307" cy="178.90096" rx="16.7486" ry="27.61772" transform="translate(-36.6236 76.5575) rotate(-14.83859)"/><ellipse class="cls-11" cx="332.44963" cy="236.20187" rx="27.61772" ry="16.7486" transform="translate(-5.3895 464.62867) rotate(-69.45761)"/><path class="cls-3" d="M159.67636,313.95625s-5.22311,11.16468-.57026,22.25016c0,0,6.01726,17.2124,20.29815,22.46809,11.23404,5.78723,35.7277,1.68122,45.42983-.87197s13.97443-4.23441,21.46379-4.0642c6.44149,.1464,16.85106,2.55319,19.91489,3.57447s11.28566,3.0114,11.28566,3.0114"/><text class="cls-7" transform="translate(130.59418 435.51028)"><tspan x="0" y="0">MEN</tspan><tspan class="cls-6" x="143.49414" y="0">U</tspan><tspan x="185.18408" y="0">へ</tspan></text></g></svg>