<?xml version="1.0" encoding="UTF-8"?><svg xmlns="http://www.w3.org/2000/svg" viewBox="0 0 500 500"><defs><style>.cls-1{stroke:#fff;}.cls-1,.cls-2,.cls-3{fill:none;}.cls-1,.cls-3{stroke-linecap:round;stroke-linejoin:round;stroke-width:15px;}.cls-4{fill:#ff7bac;}.cls-2{stroke:#bd5b7e;stroke-width:4px;}.cls-5{fill:#bd9957;}.cls-6{letter-spacing:-.05em;}.cls-7{fill:#fff;stroke:#ff7bac;}.cls-8{fill:#f3eed5;}.cls-9{fill:#f7e1b8;}.cls-3{opacity:.29;stroke:#7d3c54;}.cls-10{fill:rgba(125,60,84,.29);}.cls-11{font-family:AB-walk-90ms-RKSJ-H, AB-walk;font-size:60px;}</style></defs><g id="_イヤー_1"><g><path class="cls-8" d="M249.9917,470.63477c-65.8374,0-127.38965-24.14648-168.87451-66.24609-38.72656-39.30078-58.71631-92.70215-57.80762-154.42822-.90088-61.65479,19.09424-115.03906,57.82373-154.33789C122.62988,53.51514,184.18262,29.36572,250.0083,29.36572c65.84033,0,127.39453,24.14551,168.87939,66.24561,38.72412,39.29834,58.71191,92.69336,57.80371,154.41309,.90039,61.66113-19.09619,115.05078-57.8291,154.35352-41.49658,42.10645-103.04785,66.25684-168.87061,66.25684Z"/><path class="cls-5" d="M250.00848,30.86554c113.68027-.01555,227.33398,73.02903,225.18301,219.13699,2.13223,146.07132-111.54712,219.13193-225.19965,219.13193-113.68027,0-227.3337-73.03409-225.1821-219.1521C22.67689,103.92111,136.35597,30.88109,250.00848,30.86554m.03635-3.00001h-.03674c-66.23584,.00908-128.18259,24.32858-169.95659,66.72283-18.76542,19.04408-33.2585,41.40767-43.07675,66.46959-10.52686,26.87096-15.62914,56.791-15.1653,88.92406-.4687,32.1541,4.63114,62.08577,15.15814,88.96928,9.81783,25.07248,24.3125,47.44308,43.08134,66.49033,41.76475,42.38425,103.7065,66.69284,169.94292,66.69284,66.22182,0,128.16216-24.3125,169.93901-66.70352,18.771-19.04706,33.26855-41.41516,43.09015-66.48291,10.5311-26.879,15.63525-56.80231,15.17081-88.9451,.46863-32.15128-4.63138-62.08105-15.15848-88.96349-9.81799-25.07182-24.31256-47.44191-43.08124-66.48891-41.75992-42.37925-103.68875-66.685-169.90726-66.685h0Z"/><path class="cls-9" d="M250.04478,30.86553v15c61.43077,0,118.68645,22.34989,157.08598,61.31889,17.04834,17.30111,30.21756,37.62888,39.14178,60.41843,9.67599,24.70912,14.35956,52.35812,13.92056,82.17889l-.00333,.21989,.0032,.21988c.43524,29.81201-4.25198,57.45468-13.93155,82.16013-8.92767,22.78632-22.10001,43.11276-39.15112,60.41455-38.41644,38.98132-95.68387,61.33823-157.11844,61.33823-61.44878,0-118.71733-22.35266-157.12166-61.32666-17.04845-17.30136-30.21767-37.62946-39.14178-60.41968-9.676-24.71011-14.35944-52.36111-13.92033-82.18478l.00333-.22-.00322-.21988c-.43522-29.80467,4.25022-57.44044,13.92633-82.13979,8.92456-22.78055,22.09256-43.10266,39.13833-60.40155,38.41422-38.98456,95.68867-61.34811,157.13755-61.35656l.03435-15m-.03633,.00003c-113.65251,.01555-227.33158,73.05558-225.19868,219.11686-2.1516,146.11801,111.50181,219.15207,225.18207,219.15207,113.6525,0,227.33188-73.06064,225.19958-219.13196,2.151-146.10794-111.50272-219.15253-225.18298-219.13697h0Z"/></g></g><g id="_イヤー_2"><g><g><path class="cls-4" d="M209.10507,209.30467c18.05434-1.60852,30.96766-22.16461,28.84882-45.91378-2.12345-23.74759-18.47653-41.69011-36.52683-40.07931-18.05408,1.61795-30.96706,22.1697-28.84774,45.91864,2.12298,23.74781,18.47606,41.69033,36.52575,40.07445Z"/><path class="cls-4" d="M165.79247,269.1548c15.45305-8.97814,18.40848-32.72965,6.60158-53.06686-11.80736-20.32805-33.90801-29.53123-49.36474-20.5609-15.44952,8.98185-18.40285,32.73654-6.5956,53.06942,11.80785,20.32782,33.90582,29.53166,49.35876,20.55834Z"/><path class="cls-4" d="M290.92054,209.39338c18.05072,1.65685,34.43977-16.25053,36.61479-39.99091,2.16927-23.75259-10.69759-44.33429-28.75005-45.98973-18.04655-1.64927-34.43816,16.26409-36.61122,40.00355-2.16991,23.74871,10.70015,44.32831,28.74648,45.97708Z"/><path class="cls-4" d="M377.02638,195.80309c-15.43513-9.00463-37.55459,.14703-49.40648,20.45-11.85212,20.31261-8.9454,44.0716,6.48912,53.08129,15.43246,9.00529,37.55433-.14631,49.40465-20.4539,11.84811-20.30593,8.9453-44.06677-6.48729-53.07739Z"/><path class="cls-4" d="M284.07405,242.61585c-7.44196-11.27598-20.0511-18.81988-34.53906-18.83717-14.48367-.01452-27.11001,7.50394-34.57577,18.75796-8.25031,12.44286-11.32926,25.07452-19.39249,33.75704-8.062,8.68134-41.5263,9.87251-44.04888,49.52867-1.78095,28.0093,22.69717,50.83894,50.75976,50.86842,21.32974,.02251,34.71094-7.39783,47.10297-7.38747,12.39056,.01105,25.75716,7.46338,47.08498,7.4856,28.06233,.03019,52.59035-22.74288,50.86957-50.75732-2.4349-39.66169-35.89994-40.92373-43.94535-49.62204-8.04178-8.69822-11.0925-21.33794-19.31575-33.79369Z"/></g><g><path class="cls-4" d="M209.10507,209.30467c18.05434-1.60852,30.96766-22.16461,28.84882-45.91378-2.12345-23.74759-18.47653-41.69011-36.52683-40.07931-18.05408,1.61795-30.96706,22.1697-28.84774,45.91864,2.12298,23.74781,18.47606,41.69033,36.52575,40.07445Z"/><path class="cls-4" d="M165.79247,269.1548c15.45305-8.97814,18.40848-32.72965,6.60158-53.06686-11.80736-20.32805-33.90801-29.53123-49.36474-20.5609-15.44952,8.98185-18.40285,32.73654-6.5956,53.06942,11.80785,20.32782,33.90582,29.53166,49.35876,20.55834Z"/><path class="cls-4" d="M290.92054,209.39338c18.05072,1.65685,34.43977-16.25053,36.61479-39.99091,2.16927-23.75259-10.69759-44.33429-28.75005-45.98973-18.04655-1.64927-34.43816,16.26409-36.61122,40.00355-2.16991,23.74871,10.70015,44.32831,28.74648,45.97708Z"/><path class="cls-4" d="M377.02638,195.80309c-15.43513-9.00463-37.55459,.14703-49.40648,20.45-11.85212,20.31261-8.9454,44.0716,6.48912,53.08129,15.43246,9.00529,37.55433-.14631,49.40465-20.4539,11.84811-20.30593,8.9453-44.06677-6.48729-53.07739Z"/><path class="cls-4" d="M284.07405,242.61585c-7.44196-11.27598-20.0511-18.81988-34.53906-18.83717-14.48367-.01452-27.11001,7.50394-34.57577,18.75796-8.25031,12.44286-11.32926,25.07452-19.39249,33.75704-8.062,8.68134-41.5263,9.87251-44.04888,49.52867-1.78095,28.0093,22.69717,50.83894,50.75976,50.86842,21.32974,.02251,34.71094-7.39783,47.10297-7.38747,12.39056,.01105,25.75716,7.46338,47.08498,7.4856,28.06233,.03019,52.59035-22.74288,50.86957-50.75732-2.4349-39.66169-35.89994-40.92373-43.94535-49.62204-8.04178-8.69822-11.0925-21.33794-19.31575-33.79369Z"/></g><g><path class="cls-2" d="M209.10507,209.30467c18.05434-1.60852,30.96766-22.16461,28.84882-45.91378-2.12345-23.74759-18.47653-41.69011-36.52683-40.07931-18.05408,1.61795-30.96706,22.1697-28.84774,45.91864,2.12298,23.74781,18.47606,41.69033,36.52575,40.07445Z"/><path class="cls-2" d="M165.79247,269.1548c15.45305-8.97814,18.40848-32.72965,6.60158-53.06686-11.80736-20.32805-33.90801-29.53123-49.36474-20.5609-15.44952,8.98185-18.40285,32.73654-6.5956,53.06942,11.80785,20.32782,33.90582,29.53166,49.35876,20.55834Z"/><path class="cls-2" d="M290.92054,209.39338c18.05072,1.65685,34.43977-16.25053,36.61479-39.99091,2.16927-23.75259-10.69759-44.33429-28.75005-45.98973-18.04655-1.64927-34.43816,16.26409-36.61122,40.00355-2.16991,23.74871,10.70015,44.32831,28.74648,45.97708Z"/><path class="cls-2" d="M377.02638,195.80309c-15.43513-9.00463-37.55459,.14703-49.40648,20.45-11.85212,20.31261-8.9454,44.0716,6.48912,53.08129,15.43246,9.00529,37.55433-.14631,49.40465-20.4539,11.84811-20.30593,8.9453-44.06677-6.48729-53.07739Z"/><path class="cls-2" d="M284.07405,242.61585c-7.44196-11.27598-20.0511-18.81988-34.53906-18.83717-14.48367-.01452-27.11001,7.50394-34.57577,18.75796-8.25031,12.44286-11.32926,25.07452-19.39249,33.75704-8.062,8.68134-41.5263,9.87251-44.04888,49.52867-1.78095,28.0093,22.69717,50.83894,50.75976,50.86842,21.32974,.02251,34.71094-7.39783,47.10297-7.38747,12.39056,.01105,25.75716,7.46338,47.08498,7.4856,28.06233,.03019,52.59035-22.74288,50.86957-50.75732-2.4349-39.66169-35.89994-40.92373-43.94535-49.62204-8.04178-8.69822-11.0925-21.33794-19.31575-33.79369Z"/></g></g><ellipse class="cls-10" cx="142.27244" cy="248.61304" rx="16.7486" ry="27.61772" transform="translate(-142.26547 215.62715) rotate(-53.60636)"/><ellipse class="cls-7" cx="144.41323" cy="207.1167" rx="7.14894" ry="14.64894" transform="translate(-108.04253 211.42941) rotate(-56.09235)"/><ellipse class="cls-7" cx="215" cy="140.87234" rx="7.14894" ry="14.64894" transform="translate(-36.63975 193.28851) rotate(-45)"/><ellipse class="cls-7" cx="308.80143" cy="142.91489" rx="7.14894" ry="14.64894" transform="translate(-20.48254 228.67651) rotate(-39.43324)"/><ellipse class="cls-7" cx="377.04255" cy="214.74468" rx="7.14894" ry="14.64894" transform="translate(-49.2874 134.0035) rotate(-18.93964)"/><path class="cls-1" d="M250.00061,239.34043s19.46748-.93617,27.97812,24.08511c5.20421,11.20717,15.31021,24.07485,19.91489,26.89362,8.41553,5.15158,13.4395,5.34588,22.43644,12.42553,22.71249,17.87234,8.54228,41.74468,8.54228,41.74468"/><ellipse class="cls-10" cx="195.56894" cy="182.03497" rx="16.7486" ry="27.61772" transform="translate(-64.81622 122.17253) rotate(-30)"/><ellipse class="cls-10" cx="281.96222" cy="182.03497" rx="16.7486" ry="27.61772" transform="translate(-37.21547 78.28033) rotate(-14.83859)"/><ellipse class="cls-10" cx="338.76878" cy="239.33589" rx="27.61772" ry="16.7486" transform="translate(-4.22247 472.58029) rotate(-69.45761)"/><path class="cls-3" d="M165.99551,317.09027s-5.22311,11.16468-.57026,22.25016c0,0,6.01726,17.2124,20.29815,22.46809,11.23404,5.78723,35.7277,1.68122,45.42983-.87197s13.97443-4.23441,21.46379-4.0642c6.44149,.1464,16.85106,2.55319,19.91489,3.57447s11.28566,3.0114,11.28566,3.0114"/><text class="cls-11" transform="translate(151.42623 435.51089)"><tspan x="0" y="0">TO</tspan><tspan class="cls-6" x="103.01904" y="0">P</tspan><tspan x="146.4585" y="0">へ</tspan></text><text/></g></svg>