<?xml version="1.0" encoding="UTF-8"?><svg id="_イヤー_1" xmlns="http://www.w3.org/2000/svg" viewBox="0 0 500.72726 500"><defs><style>.cls-1{fill:none;}.cls-2{fill:#0071bc;}</style></defs><g><path class="cls-2" d="M105.97892,383.03265c-.5496,.15765-1.13421,.24258-1.64204,.487-1.34629,.64795-2.60021,1.5329-3.99623,2.02444-5.29659,1.86481-10.52019,.02832-13.65671-4.64474-1.49827-2.23224-2.8388-4.51865-3.29966-7.22983-.29336-1.72577,.18848-3.03458,1.73943-3.92444,4.74584-2.72296,9.77551-3.72552,15.14135-2.38571,2.47544,.6181,4.40629,2.09872,6.15774,3.97632,.9553,1.02408,2.43219,1.56161,3.63821,2.29684,2.2749-3.76862,4.35472-7.21106,6.42754-10.65771,.09235-.15356,.21748-.38672,.16345-.5123-.27559-.64038-.7617-1.22971-.87895-1.88937-.17454-.98184-.91522-.91595-1.54743-1.12222-3.01406-.98337-4.11742-3.12701-3.48757-6.88028-.32958-.11395-.67435-.2298-1.01685-.35208-1.87799-.67041-3.09325-1.95721-3.40884-3.93799-.32788-2.05786,.29913-3.81522,2.00326-5.09421,2.78119-2.0874,5.92585-3.42075,9.26331-4.30103,5.41695-1.42874,10.7764-1.36975,15.99911,.85327,.7246,.30844,1.11129,.1796,1.67983-.37,3.60417-3.48422,7.07463-7.1459,10.95932-10.29199,6.43096-5.20821,13.75331-8.6843,22.1726-9.03056,2.85557-.11743,5.7963,.35896,8.60385,.98624,2.49829,.5582,3.00211,1.70186,2.4208,4.19942-1.02156,4.38898-2.13925,8.75555-3.20704,13.13385-.13176,.54025-.20475,1.09482-.35181,1.89899,1.45685-.44473,2.71356-.89832,4.00522-1.20453,1.54325-.36588,3.10887-.79617,4.67826-.85797,2.76266-.1088,4.14964,1.35959,3.58622,4.04779-.63192,3.01498-1.49958,6.01727-2.6211,8.88571-3.0195,7.72272-7.11242,14.89185-11.84101,21.69052-.96082,1.38144-1.49263,2.50046-1.00375,4.38385,1.21219,4.66986,.36278,9.26855-1.89957,13.49478-.88763,1.65814-2.14926,3.20535-3.53035,4.49197-3.22685,3.00616-7.19702,2.57794-9.9308-.87189-.40419-.51007-.77046-1.0502-1.20767-1.6496-1.76122,1.3273-3.48679,2.59229-5.1551,3.92877-.21422,.17163-.28052,.7717-.16362,1.0769,2.42244,6.32462-2.37653,12.67249-7.3769,14.98816-1.73689,.80435-3.69835,.29321-5.01426-1.44296-1.08644-1.43341-1.89053-3.08084-2.88415-4.74106-1.50013,.78635-3.22734,1.69174-5.02828,2.6358,.03938,.24344,.05139,.51605,.12902,.76852,1.75717,5.71332-.1252,10.3356-4.37566,14.15311-1.16864,1.04959-2.57498,1.8772-3.97193,2.61896-1.70724,.90652-2.86511,.59482-4.09352-.89389-2.0899-2.53278-2.93556-5.50739-3.0046-8.74051-.01082-.50638,.00956-1.01343,.0161-1.57092-1.73464,.10007-2.74139,.76587-3.45209,2.4556-1.15681,2.75043-2.64912,5.37659-4.18424,7.94495-1.01202,1.69318-2.5329,2.81494-4.67297,2.97571-8.50606,.63901-16.97957,.62164-25.36323-1.1799-1.54976-.33304-3.08305-.85565-4.54032-1.48462-3.84903-1.66125-5.25631-4.25491-4.67892-8.43588,.51098-3.7001,2.04331-7.02118,4.00065-10.14322,3.0075-4.79709,6.63983-9.00934,11.91496-11.41162,1.50392-.68488,3.2428-1.29779,4.8423-1.2269,2.52498,.11185,4.68414-.72186,6.88655-1.62283,2.64697-1.08286,5.28321-2.19315,7.9033-3.33911,.36998-.16183,.83404-.55655,.89377-.90536,.33221-1.93982,.55309-3.89874,.81206-5.8511l.44899-.19897-.00003-.00006v-.00009Zm35.49655-46.19385c-.43854,.34686-.7969,.57062-1.08268,.8649-9.49301,9.77597-18.11197,20.23795-24.99092,32.04956-3.61609,6.20908-6.84596,12.6012-8.03371,19.78232-.22227,1.34384-.73207,2.15109-1.89093,2.63922-2.73869,1.15356-5.44287,2.40933-8.24189,3.39392-3.05934,1.07617-5.85917,2.13232-6.61505,5.89893-.61366,3.05792-1.27304,6.01324,.83366,8.72086,1.60458,2.06226,3.9353,2.98676,6.38512,3.50626,5.68538,1.20563,11.30465,.93039,16.84524-.92798,.96783-.32462,1.62318-.76355,2.03752-1.69467,.96661-2.17215,2.68547-3.38367,5.02252-3.7435,.73497-.11316,1.47246-.21521,2.20211-.35681,2.94276-.57104,6.18364,.18912,8.7772-1.95944,.13534-.11212,.34985-.12259,.5122-.20911,1.40973-.75122,2.77803-1.4769,2.67935-3.47015-.03768-.76129,.14098-1.71243,.59074-2.28824,2.19385-2.80872,1.7748-5.67383,.51289-8.66129-.33938-.80347-.39251-1.80557,.69959-2.08984,1.15989-.30197,1.48294,.6337,1.74175,1.54443,.3906,1.37448,.82457,2.73663,1.22905,4.06763,4.98912-.2027,5.26817-.44833,5.92088-5.09195,.05877-.41806,.17482-.8382,.16185-1.25421-.03242-1.03979,.31946-1.84937,1.44917-1.77649,1.27976,.08258,1.18135,1.16013,1.05915,2.04013-.23854,1.71771-.61083,3.41708-.8384,5.13593-.07205,.54416,.13999,1.12604,.2832,2.11166l5.8045-4.56366c-.62298-3.15274-1.39219-5.94528-1.68409-8.78677-.41364-4.02667,.32673-7.86218,3.22262-10.96585,.38999-.41797,1.1182-.90045,1.55101-.79312,.44688,.11081,.8963,.8591,1.04373,1.40906,.44263,1.65131,1.34415,2.83527,2.91744,3.52725,2.47836,1.09006,5.05027,1.11584,7.79487,.85336-.16868-.53622-.3468-.92191-.40746-1.32526-.33665-2.23865-.74735-4.4743-.90784-6.72696-.05735-.80499,.37484-1.75134,.85544-2.4447,.25458-.36725,1.24497-.60571,1.62267-.39627,.3598,.19952,.65348,1.20285,.45932,1.60001-.89443,1.82947-.52533,3.59229,.21097,5.53894,2.28605-3.66135,4.5721-7.32272,7.09042-11.35608-.55265,.04092-.79202,.09137-1.02527,.07114-5.43967-.47217-10.55978-2.11414-15.47756-4.39169-8.94197-4.1412-16.56527-9.70169-20.32038-19.48148l-.00002,.00003Zm44.45605,3.94788c-1.1338,.03394-1.84958-.05884-2.50643,.0968-1.85018,.43845-3.69608,.91641-5.50765,1.49203-4.19779,1.33386-5.35223,.3493-4.38532-3.98099,.72528-3.2482,1.61797-6.45905,2.44022-9.68546,.41388-1.62408,.83685-3.24588,1.24065-4.81036-2.72756-1.23193-5.29497-1.44617-7.87657-1.34135-10.32211,.41902-18.51344,5.43327-25.86524,12.17455-.27124,.24872-.30884,.95193-.20245,1.38058,.71296,2.87256,2.23736,5.37021,4.08741,7.59784,3.31011,3.98569,7.44404,7.00174,12.01724,9.40793,5.72628,3.01291,11.72772,5.173,18.2185,5.79977,.99661,.09625,1.66013-.14764,2.08573-1.15643,1.43381-3.39865,3.05153-6.72366,4.37808-10.16208,.81049-2.10071,1.2162-4.35767,1.87583-6.81287v.00003Zm-67.73625,19.16537l.2982,.17084c2.36758-3.1857,4.73516-6.37143,7.10273-9.55713l-.41275-.38132c-1.60385,1.34265-3.18738,2.71106-4.82938,4.00528-.31406,.24753-.8586,.20267-1.2968,.29269,.01691-.45724-.01187-.92313,.07205-1.36771,.03623-.19193,.2838-.3707,.47219-.50305,2.59403-1.82202,5.15489-3.69586,7.8122-5.4209,1.11468-.72363,2.41122-1.15787,3.02414-2.48309-.15607-.09863-.23189-.18713-.30662-.18622-.23294,.00278-.467,.02939-.69794,.06442-4.48812,.68027-8.70946,2.11215-12.65584,4.37909-.39574,.22733-1.05264,.00006-1.58833-.01627,.22806-.44601,.3979-.93839,.70378-1.32239,.21988-.27606,.61478-.41925,.94283-.60153,4.44437-2.46954,9.22514-3.8324,14.26811-4.33688,.47611-.04761,.94668-.15076,1.46592-.23566-.11206-.27078-.12308-.38846-.18404-.42691-.15656-.09866-.33122-.173-.50574-.23804-5.10271-1.90204-10.2365-1.69016-15.27774,.08438-2.27265,.79996-4.40251,2.04034-6.52954,3.20444-1.06951,.58533-1.51556,1.67773-1.22249,2.90439,.29573,1.23779,1.21253,1.85162,2.43074,2.02023,.55473,.07678,1.12007,.07471,1.68004,.11612,1.28617,.09512,1.7009,.84589,1.09319,1.99734-.21671,.41061-.50541,.78519-.70225,1.20395-.76885,1.63571-.23887,2.96951,1.46654,3.58322,.60731,.21854,1.27032,.35165,1.91489,.384,1.81138,.09088,2.00221,.33307,1.4999,2.1297-.04734,.16934-.02693,.3576-.03798,.53708l-.00002-.00006v-.00003Zm-25.80309,54.34827c-.58573-.47498-1.39845-.92999-1.92492-1.60742-.85163-1.09586-1.67063-1.02853-2.74179-.40176-3.19303,1.86835-6.44084,3.64386-9.61913,5.53644-2.19935,1.30966-4.31902,2.75311-6.61169,4.22498,.51375,.50558,.68297,.73328,.90518,.88153,2.81707,1.8793,6.04783,2.45792,9.31201,2.89349,.28302,.03778,.69559-.2327,.91467-.47876,3.22695-3.62387,6.43127-7.26788,9.76567-11.04849Zm-5.14074-8.83051c-3.92433,.7417-7.80178,1.46158-11.66948,2.23047-.30589,.06082-.65674,.41006-.79619,.71301-1.28096,2.78284-2.6244,5.54498-3.71844,8.40173-.42519,1.11029-.25975,2.44684-.35868,3.62457,6.01605-3.65216,11.78051-7.15158,17.52317-10.63776-.27374-1.20959-.56908-2.51459-.98037-4.33203v0Zm33.76036,4.4184c-.65552,.55405-1.09681,.81604-1.39091,1.19293-2.70893,3.4711-2.5177,9.68906,.43,12.9404,.23788,.26239,1.00346,.40659,1.26533,.22757,1.52266-1.04086,3.13638-2.03186,4.40554-3.34341,2.95004-3.04855,3.77224-6.68524,2.2434-10.72043-.16221-.42813-.67419-.72379-1.02391-1.0809-.2107,.43695-.54677,.85635-.61072,1.31384-.29779,2.13-.48813,4.2753-.80211,6.40253-.05105,.34583-.48364,.77521-.82921,.8851-.207,.06583-.69146-.35812-.85586-.6662-.12375-.2319,.0725-.62836,.10986-.95343,.25267-2.19885,.50097-4.39816,.75068-6.59735l-.59246-.31079c-.43551,.45905-1.05206,.84677-1.26706,1.39267-.3903,.991-.59683,2.06665-.77948,3.12433-.25477,1.47534-.36767,2.97626-.65295,4.44452-.0738,.37982-.5641,.67865-.86309,1.01468-.25353-.4046-.56077-.78726-.73861-1.22278-.0931-.228,.03103-.55032,.07403-.82739,.34961-2.25266,.70326-4.50464,1.12753-7.21588Zm19.74115-13.04196c-3.13778,2.90515-3.79181,9.27115-.35272,12.86215,.78008,.81454,1.65921,.90149,2.65671,.30972,2.19546-1.30246,3.88028-3.08267,4.97955-5.36896,1.44239-2.99994,.96701-5.83603-1.01801-8.42886-.23792-.31079-.83933-.47818-1.25629-.45255-.17425,.01071-.41631,.69455-.43419,1.0813-.03212,.69507,.0834,1.39679,.13423,2.09595,.11525,1.58527,.2719,3.16971,.30698,4.75681,.00717,.3244-.44469,.65887-.68496,.98868-.31282-.27811-.68384-.51569-.91633-.84973-.13666-.19632-.04683-.54645-.06963-.82654-.18061-2.21805-.36383-4.43591-.54624-6.65381l-.41383-.12405c-.21271,.37894-.55434,.73798-.61642,1.14017-.31399,2.03445-.53793,4.08264-.83113,6.12057-.10816,.75186,.40729,2.03513-.8513,2.01413-1.37182-.02286-.85075-1.34427-.79521-2.10849,.15863-2.18231,.46039-4.35419,.7088-6.55649Zm-31.2703,19.92545c-2.78282-.00562-5.3419-.02408-7.90055,.00037-.33261,.0032-.80597,.12732-.97273,.36493-1.98867,2.83331-3.50176,5.88834-4.34938,9.60394,2.57415-.21976,4.92468-.401,7.26897-.64264,.33002-.034,.69019-.30612,.93381-.56467,2.34789-2.49219,3.65221-5.573,5.01988-8.76193Zm-25.21789,8.94516l.28078,.56976c2.5514,.11777,5.10206,.25659,7.65443,.3468,2.16413,.07648,2.15671,.04901,2.80912-2.00732,.19831-.62506,.41646-1.24979,.69395-1.84265,.98372-2.10172,1.99701-4.18958,3.03089-6.34912-.76358-.18573-1.6003-.2381-2.2865-.58676-1.56649-.79599-2.66973-.31473-3.77097,.89066-2.76593,3.02756-5.60311,5.99005-8.4117,8.97864Zm16.67488-48.51404c.5581-1.77612,.59757-1.85635-1.13931-2.71118-2.80536-1.38068-5.65999-2.66302-8.51649-3.936-.43483-.19379-1.06794-.30051-1.48019-.13184-4.3346,1.77341-4.72834,1.36566-2.76984,5.95569,.09154,.21451,.10353,.50592,.25795,.64099,.2524,.22079,.59419,.48895,.89378,.48367,4.19137-.07373,8.38198-.19046,12.75409-.30136v.00003h.00001Zm64.82129,1.27271c.26202,5.81244-1.57912,10.98868-4.00664,16.17908,1.26456-.19586,2.58164-.33356,3.41614-1.04077,4.48601-3.80167,5.71624-8.88605,5.27508-14.5163-.02206-.28146-.54235-.73648-.84258-.74631-1.2057-.03964-2.41609,.06433-3.842,.1243v0Zm-4.1601-.79587c-1.30218,2.27554-2.21424,4.69583-3.83146,6.47507-1.80565,1.98654-1.48793,3.63986-.39259,5.57285,.50775,.89606,1.03692,1.78345,1.61647,2.63379,.26485,.38864,.67495,.67825,1.15689,1.14661,2.10021-4.07407,2.92968-8.30731,3.8268-12.48392,.59736-2.78104,.38193-2.82736-2.37611-3.34442v.00003Zm-84.6567,27.65985c3.57772-.4426,6.80031-.83475,10.01951-1.2529,.23767-.03088,.59867-.20493,.65303-.38693,.61703-2.0658,1.18543-4.14615,1.80875-6.37228-5.4253,.64584-8.98366,3.98666-12.48129,8.01212Zm11.94327-26.36551l-.04564,.50748c.1908,.19324,.39543,.37476,.57035,.58145,2.97369,3.51364,6.31384,4.41623,10.51971,2.87708,1.15737-.42355,1.77052-.93668,1.3242-2.36984-.29977-.96255-.58321-1.46259-1.64562-1.41666-.74033,.03201-1.48834-.17853-2.23361-.18381-2.82964-.01993-5.65957-.00043-8.48939,.0043v0Zm20.29665-2.9841c-1.23883-.58694-2.35387-1.17703-3.52258-1.6279-.31406-.12119-.99067,.05008-1.16171,.31018-1.15729,1.75986-1.38569,3.6745-.82165,5.51031,1.29116,.16553,2.41296,.30933,3.54149,.45401l1.96445-4.64658v-.00003Zm47.70108-1.95114c-1.6974,1.88837-2.33705,7.93076-.84123,10.15329,1.11296-2.05548,2.15738-3.96945,3.18656-5.89157,.4927-.9202,.56364-1.68103-.52136-2.35507-.68678-.42664-1.16217-1.19366-1.82397-1.90668v.00003Zm-54.7981-.35513l1.24287-1.75555c-2.77588-2.40466-5.90807-2.78433-9.6664-2.37653l8.42353,4.13208Z"/><path class="cls-2" d="M138.76937,361.64889c-1.4633,1.11884-3.06025,1.064-4.66969,.50266-1.23871-.43201-1.69853-1.45737-1.81284-2.70468-.29602-3.22971,3.32323-8.4707,6.45986-9.32227,2.49045-.67615,4.7609,.99826,4.53011,3.54257-.2986,3.29178-1.73145,6.04855-4.50744,7.98166v.00006Zm-.81463-1.60834c2.13741-1.43741,3.34759-3.46411,3.64706-5.99747,.20605-1.74307-1.1342-2.97537-2.46574-2.28571-2.71359,1.40546-4.46949,3.64615-5.10629,6.63165-.13978,.65533,.14143,1.81964,.60646,2.08337,.64245,.36432,1.64663,.1413,2.48845,.07526,.2882-.02258,.55402-.3299,.83006-.50711Z"/><path class="cls-2" d="M127.52727,375.28473c-1.11738,.39658-2.18998,1.01746-3.43021,.23401-1.25007-.78967-1.42417-1.96368-1.27098-3.26083,.30645-2.59497,2.48751-5.1001,4.85586-5.62042,2.21788-.4873,3.7388,1.01636,3.35443,3.24741-.39773,2.30865-1.81473,3.91049-3.5091,5.39984v0Zm-.65764-6.67038c-1.42692,.97797-2.01352,2.31461-2.40446,3.70575-.13501,.48041,.06024,1.26163,.40474,1.59854,.24462,.23923,1.16643,.16083,1.48303-.1188,.95339-.84216,1.83075-1.79764,2.59787-2.81448,.57183-.75797,.95594-1.82806,.00645-2.47888-.45671-.31305-1.37717,.05063-2.08763,.10788v0Z"/><path class="cls-2" d="M127.53194,382.86648c1.86461-1.11356,4.06428-.00238,4.3061,2.17526,.31787,2.86258-1.57709,6.24347-3.92717,7.00668-1.99605,.64822-3.77552-.505-3.78715-2.58228-.01545-2.76022,1.53306-4.78033,3.40822-6.59964v-.00003Zm.23758,7.27661c1.83547-1.37546,2.60005-2.89835,2.49373-4.79541-.02217-.39539-.34713-.96161-.67817-1.09955-.33652-.14023-1.05071,.00381-1.25639,.27948-.90192,1.20871-1.80216,2.45255-2.43913,3.80771-.24037,.51138,.07697,1.46899,.45468,1.99896,.15728,.2207,1.13607-.1441,1.42528-.19119Z"/><path class="cls-2" d="M141.31032,373.74005c-1.19378,.90338-2.43473,1.11246-3.73685,.23758-1.34772-.90549-1.16809-2.228-.88961-3.5271,.39612-1.84778,1.39891-3.3356,2.95092-4.4093,1.44073-.9967,3.33033-1.04129,4.46143-.1824,.87348,.66321,1.18173,2.2775,.36316,3.89072-.75984,1.49747-1.88268,2.8107-2.8457,4.20505l-.30335-.21454Zm-.14114-6.65079c-1.84061,1.30911-2.98172,2.50894-2.98717,4.3638-.00386,1.30701,.80709,1.79288,1.77905,.98474,1.10706-.92053,2.0939-2.04147,2.90963-3.22885,.32235-.46918,.31455-1.6517-.03411-1.96811-.40416-.36682-1.34862-.13815-1.6674-.15155v-.00003Z"/><path class="cls-2" d="M117.0335,389.56302c-.81257-.1156-1.8776-.08057-2.78544-.44128-1.26728-.50348-1.43799-1.8309-1.34488-2.98041,.15232-1.88052,.73407-3.6514,2.06572-5.10245,1.0157-1.10678,2.63739-1.61609,3.93336-1.07904,1.38062,.57214,1.6812,1.70016,1.58521,3.09479-.17432,2.53268-1.48439,4.42935-3.45396,6.50839v0Zm-.69737-7.47031c-1.18769,.87781-1.85762,2.49548-1.73773,4.41821,.07396,1.18616,.74879,1.61929,1.61995,1.21191,1.30787-.6116,2.85134-3.49194,2.65012-4.94553-.19415-1.40274-.89231-1.72015-2.53234-.6846Z"/><path class="cls-2" d="M159.6397,333.45627c.13949,.36615,.42903,.76437,.40272,1.14044-.04123,.58939-.1301,1.39133-.51375,1.67078-.29375,.21393-1.23258-.07742-1.6005-.4357-.53886-.52478-.96118-1.27139-1.16736-1.99878-.13184-.46518,.05371-1.31644,.39348-1.53622,.34298-.22186,1.08922,.035,1.58801,.24799,.35076,.14978,.58305,.57709,.8974,.9115v0Z"/></g><g><path class="cls-2" d="M354.33007,133.89746c-.54962,.15765-1.13422,.24259-1.64203,.487-1.34628,.64796-2.60019,1.53292-3.99622,2.02443-5.2966,1.86482-10.5202,.0283-13.65671-4.64475-1.49829-2.23224-2.83881-4.51866-3.29968-7.22985-.29337-1.72579,.18848-3.03458,1.73944-3.92445,4.74582-2.72296,9.77551-3.72551,15.14136-2.38569,2.47543,.6181,4.40631,2.09873,6.15775,3.97633,.95532,1.0241,2.43219,1.5616,3.63821,2.29683,2.2749-3.76861,4.35471-7.21107,6.42755-10.65772,.09235-.15356,.21747-.38673,.16345-.5123-.2756-.64037-.76169-1.22972-.87894-1.88936-.17456-.98184-.91522-.91594-1.54742-1.12222-3.01404-.98339-4.11743-3.12702-3.48755-6.8803-.32956-.11393-.67435-.2298-1.01685-.35207-1.87799-.67041-3.09326-1.95722-3.40884-3.938-.32788-2.05786,.29913-3.81521,2.00327-5.09423,2.78119-2.08738,5.92587-3.42075,9.26331-4.30101,5.41696-1.42873,10.7764-1.36975,15.99911,.85327,.72458,.30842,1.11127,.17961,1.67981-.37001,3.60416-3.48423,7.07462-7.1459,10.95932-10.29199,6.43094-5.20822,13.7533-8.68429,22.17258-9.03057,2.85556-.11743,5.7963,.35896,8.60385,.98624,2.49829,.55819,3.00211,1.70186,2.42081,4.19943-1.02155,4.38898-2.13925,8.75556-3.20703,13.13385-.13177,.54024-.20474,1.09482-.35181,1.899,1.45685-.44471,2.71356-.89831,4.00522-1.20453,1.54324-.36588,3.10886-.79618,4.67825-.85797,2.76266-.10878,4.14963,1.35961,3.58621,4.04777-.63193,3.01498-1.49957,6.01728-2.62109,8.8857-3.0195,7.72271-7.11243,14.89184-11.841,21.69051-.96082,1.38144-1.49265,2.50046-1.00375,4.38385,1.21219,4.66984,.36279,9.26857-1.89957,13.49476-.88763,1.65814-2.14926,3.20534-3.53036,4.49197-3.22684,3.00615-7.19702,2.57793-9.93079-.87191-.40417-.51006-.77045-1.05018-1.20767-1.64961-1.76123,1.3273-3.48679,2.5923-5.15509,3.92876-.21423,.17161-.28052,.7717-.1636,1.0769,2.42245,6.32463-2.37653,12.67249-7.37692,14.98817-1.73688,.80435-3.69836,.2932-5.01428-1.44297-1.08643-1.43341-1.89053-3.08084-2.88416-4.74106-1.50015,.78635-3.22733,1.69175-5.02826,2.6358,.03937,.24345,.05139,.51606,.129,.76851,1.75717,5.71332-.12521,10.3356-4.37567,14.15312-1.16864,1.0496-2.57498,1.8772-3.97192,2.61896-1.70724,.90652-2.86511,.59483-4.09351-.89389-2.0899-2.53278-2.93555-5.5074-3.00458-8.74051-.01083-.50638,.00958-1.01342,.01611-1.57092-1.73462,.10007-2.74139,.76587-3.45209,2.4556-1.1568,2.75043-2.64911,5.37659-4.18423,7.94494-1.01202,1.69317-2.5329,2.81494-4.67297,2.97571-8.50607,.63901-16.97958,.62163-25.36325-1.17989-1.54977-.33303-3.08305-.85566-4.54031-1.48463-3.84903-1.66127-5.25632-4.25492-4.67892-8.43587,.51099-3.70009,2.0433-7.02117,4.00066-10.14323,3.00751-4.7971,6.63982-9.00936,11.91496-11.41162,1.50391-.68487,3.2428-1.29777,4.84229-1.22692,2.52499,.11184,4.68414-.72184,6.88654-1.62282,2.64697-1.08286,5.2832-2.19314,7.90332-3.3391,.37-.16184,.83405-.55657,.89377-.90536,.33221-1.93983,.5531-3.89874,.81207-5.85112l.44901-.19896h-.00012Zm35.49655-46.19386c-.43854,.34685-.79691,.57064-1.0827,.86492-9.49301,9.77595-18.11197,20.23795-24.99091,32.04956-3.61609,6.20907-6.84595,12.60119-8.03372,19.78232-.22226,1.34382-.73206,2.15107-1.89093,2.6392-2.73868,1.15357-5.44287,2.40934-8.24191,3.3939-3.05933,1.07615-5.85919,2.13233-6.61505,5.89893-.61365,3.05791-1.27304,6.01324,.83365,8.72085,1.60458,2.06227,3.9353,2.98675,6.38513,3.50625,5.68539,1.20563,11.30466,.93038,16.84525-.92798,.96783-.32461,1.62317-.76355,2.03751-1.69468,.96661-2.17215,2.68546-3.38366,5.02252-3.74351,.73495-.11317,1.47247-.21521,2.20209-.3568,2.94275-.57103,6.18365,.18913,8.77722-1.95942,.13535-.11212,.34985-.12259,.51221-.20911,1.40973-.7512,2.77802-1.47691,2.67935-3.47015-.03766-.76129,.14099-1.71243,.59073-2.28824,2.19385-2.80873,1.77481-5.67384,.51288-8.66128-.33939-.80347-.39252-1.80555,.69958-2.08984,1.15991-.30195,1.48294,.6337,1.74173,1.54443,.39059,1.37448,.82458,2.73664,1.22906,4.06765,4.98911-.2027,5.26816-.44833,5.92087-5.09196,.05878-.41805,.17484-.83819,.16187-1.25419-.03241-1.03978,.31946-1.84938,1.44916-1.7765,1.27975,.08256,1.18134,1.16013,1.05914,2.04012-.23853,1.71771-.61081,3.41709-.83838,5.13592-.07205,.54418,.13998,1.12603,.2832,2.11166,2.31473-1.81991,4.23788-3.33196,5.8045-4.56366-.62299-3.15274-1.39218-5.94527-1.68408-8.78677-.41364-4.02667,.32672-7.86216,3.22263-10.96584,.38998-.41797,1.11819-.90045,1.55099-.7931,.44687,.11083,.8963,.85908,1.04373,1.40908,.44263,1.6513,1.34415,2.83527,2.91745,3.52724,2.47836,1.09005,5.05026,1.11585,7.79486,.85336-.16867-.53621-.3468-.92192-.40747-1.32526-.33664-2.23866-.74734-4.47431-.90784-6.72697-.05734-.80497,.37485-1.75134,.85544-2.44468,.25458-.36725,1.24496-.60571,1.62268-.39627,.3598,.19952,.65347,1.20285,.45932,1.60001-.89444,1.82949-.52533,3.59229,.21097,5.53893,2.28604-3.66136,4.57211-7.32272,7.09042-11.35608-.55264,.04092-.79202,.09137-1.02527,.07113-5.43967-.47218-10.55978-2.11414-15.47757-4.39167-8.94196-4.14121-16.56528-9.70169-20.32037-19.48148v-.00005h.00006Zm44.45605,3.94787c-1.13379,.03394-1.84958-.05885-2.50644,.0968-1.85019,.43844-3.69608,.91639-5.50766,1.49204-4.19778,1.33386-5.35223,.3493-4.38531-3.98101,.72528-3.2482,1.61798-6.45904,2.44022-9.68547,.41388-1.62409,.83685-3.24588,1.24066-4.81036-2.72757-1.23194-5.29498-1.44616-7.87656-1.34135-10.32211,.41902-18.51343,5.43326-25.86523,12.17455-.27124,.24872-.30884,.95193-.20245,1.38059,.71298,2.87256,2.23737,5.37022,4.0874,7.59785,3.31009,3.98569,7.44403,7.00174,12.01724,9.40794,5.72629,3.01291,11.72772,5.17299,18.21851,5.79978,.99661,.09625,1.66013-.14765,2.08572-1.15642,1.43381-3.39864,3.05154-6.72367,4.37808-10.16209,.81049-2.10072,1.21619-4.35767,1.87582-6.81287v.00002Zm-67.73627,19.16536l.29819,.17083c2.36758-3.18572,4.73514-6.37144,7.10275-9.55715l-.41275-.38132c-1.60385,1.34263-3.18738,2.71107-4.82938,4.00529-.31406,.24755-.85861,.20266-1.29681,.29269,.01691-.45724-.01187-.92312,.07205-1.36771,.03622-.19192,.28381-.37071,.47217-.50304,2.59402-1.822,5.15488-3.69584,7.81219-5.42091,1.11469-.72362,2.41122-1.15789,3.02414-2.4831-.15607-.09863-.2319-.18713-.30664-.18624-.23294,.00278-.46701,.02939-.69794,.0644-4.4881,.68029-8.70947,2.11213-12.65585,4.3791-.39575,.22733-1.05264,.00004-1.58832-.01626,.22806-.446,.39789-.93839,.70377-1.32239,.21988-.27604,.61478-.41925,.94284-.60153,4.44437-2.46955,9.22513-3.83242,14.2681-4.33689,.4761-.04763,.94669-.15076,1.46594-.23565-.11206-.27077-.12308-.38848-.18405-.4269-.15656-.09865-.33121-.173-.50574-.23805-5.10272-1.90204-10.23651-1.69017-15.27774,.08436-2.27264,.79998-4.4025,2.04034-6.52954,3.20444-1.06949,.58533-1.51556,1.67774-1.2225,2.9044,.29572,1.2378,1.21252,1.85161,2.43073,2.02022,.55472,.07677,1.12006,.07472,1.68005,.11612,1.28616,.09511,1.7009,.84589,1.0932,1.99734-.21671,.4106-.50543,.78518-.70227,1.20395-.76883,1.63571-.23889,2.96951,1.46655,3.58321,.60733,.21854,1.27032,.35164,1.91489,.38398,1.8114,.09088,2.0022,.33308,1.49988,2.12972-.04733,.16932-.02692,.35761-.03799,.53708v.00002h.00009Zm-25.8031,54.34825c-.58572-.47499-1.39844-.92998-1.92493-1.60743-.85162-1.09587-1.67062-1.02852-2.74179-.40175-3.19302,1.86836-6.44083,3.64386-9.61914,5.53644-2.19937,1.30965-4.31902,2.75311-6.61169,4.22498,.51375,.50559,.68297,.73328,.90518,.88152,2.81706,1.8793,6.04785,2.45793,9.31201,2.8935,.28302,.03778,.69559-.23271,.91467-.47875,3.22693-3.62386,6.43127-7.26788,9.76566-11.0485v-.00002h.00003Zm-5.14075-8.83051c-3.92432,.74171-7.80176,1.46158-11.66948,2.23048-.30589,.06081-.65674,.41007-.79619,.713-1.28096,2.78283-2.6244,5.54497-3.71844,8.40172-.42519,1.11028-.25975,2.44685-.35867,3.62457,6.01605-3.65215,11.78052-7.15158,17.52316-10.63776l-.98038-4.332Zm33.76038,4.41841c-.65552,.55406-1.09683,.81604-1.3909,1.19292-2.70892,3.47109-2.5177,9.68906,.42999,12.9404,.23788,.26238,1.00345,.40658,1.26535,.22757,1.52267-1.04085,3.13638-2.03187,4.40552-3.34342,2.95004-3.04855,3.77225-6.68525,2.24338-10.72044-.16223-.42814-.67419-.72379-1.0239-1.08089-.21069,.43695-.54678,.85636-.61072,1.31385-.29779,2.13-.48813,4.2753-.80212,6.40253-.05106,.34584-.48364,.77521-.82922,.88509-.207,.06583-.69147-.35813-.85587-.6662-.12375-.23189,.07248-.62835,.10986-.95343,.25266-2.19884,.50098-4.39817,.7507-6.59735l-.59244-.3108c-.43552,.45904-1.05206,.84676-1.26706,1.39268-.39029,.99101-.59683,2.06664-.77948,3.12433-.25479,1.47534-.36768,2.97626-.65295,4.44452-.07382,.37983-.56409,.67866-.86307,1.01469-.25351-.4046-.56079-.78726-.73862-1.22277-.09308-.22801,.03104-.55031,.07404-.82739,.34961-2.25264,.70325-4.50465,1.12753-7.21589l.00003,.00002-.00006-.00002Zm19.74115-13.04196c-3.13779,2.90514-3.79181,9.27116-.35272,12.86214,.78009,.81453,1.65921,.90148,2.65671,.30972,2.19547-1.30247,3.88028-3.08266,4.97955-5.36898,1.44238-2.99995,.96701-5.83605-1.01801-8.42885-.23792-.31078-.83932-.47818-1.25629-.45255-.17426,.01071-.41632,.69455-.4342,1.0813-.03214,.69508,.0834,1.3968,.13422,2.09597,.11526,1.58527,.27191,3.16972,.30698,4.7568,.00717,.32439-.4447,.65886-.68497,.98868-.31281-.27811-.68384-.5157-.91635-.84973-.13666-.19634-.04684-.54646-.06964-.82655-.1806-2.21806-.36383-4.43591-.54623-6.65383l-.41382-.12404c-.21271,.37895-.55435,.73798-.61642,1.14019-.314,2.03444-.53793,4.08263-.83112,6.12056-.10815,.75185,.40729,2.03514-.85129,2.01415-1.37183-.02288-.85074-1.34429-.7952-2.10849,.15863-2.18231,.46039-4.35419,.70883-6.5565l-.00003,.00002Zm-31.27029,19.92544c-2.78281-.0056-5.34189-.02409-7.90054,.00037-.33261,.00319-.80597,.12732-.97272,.36492-1.98865,2.83331-3.50174,5.88833-4.34937,9.60395,2.57416-.21975,4.92468-.401,7.26898-.64264,.33002-.03401,.69019-.30611,.93381-.56468,2.3479-2.49219,3.65222-5.57301,5.01987-8.76193v.00002h-.00003Zm-25.2179,8.94515l.28079,.56975c2.55142,.11776,5.10208,.25659,7.65442,.34681,2.16412,.07648,2.15671,.049,2.80911-2.00733,.1983-.62505,.41647-1.2498,.69394-1.84265,.98373-2.10171,1.99701-4.18958,3.03088-6.34912-.76358-.18574-1.60031-.23809-2.2865-.58676-1.56647-.79599-2.66971-.31474-3.77097,.89067-2.76593,3.02757-5.60309,5.99004-8.41171,8.97863h.00003Zm16.67487-48.51402c.55811-1.77613,.59756-1.85635-1.13931-2.71117-2.80536-1.38068-5.66-2.66303-8.51648-3.936-.43484-.19379-1.06796-.3005-1.48019-.13184-4.33459,1.77341-4.72833,1.36564-2.76984,5.95569,.09155,.21453,.10352,.5059,.25797,.64098,.25241,.22079,.59418,.48895,.89377,.48368,4.19138-.07371,8.38196-.19046,12.75409-.30134h0Zm64.82126,1.27269c.26202,5.81244-1.57913,10.98868-4.00665,16.17908,1.26456-.19584,2.58163-.33355,3.41614-1.04075,4.48602-3.80168,5.71625-8.88604,5.27509-14.51631-.02206-.28145-.54236-.73646-.84259-.74632-1.20569-.03962-2.41608,.06431-3.84201,.1243h.00003Zm-4.1601-.79589c-1.30219,2.27553-2.21423,4.69583-3.83145,6.47507-1.80566,1.98652-1.48792,3.63986-.39258,5.57285,.50775,.89606,1.03693,1.78344,1.61646,2.63381,.26486,.38862,.67496,.67825,1.15689,1.14661,2.10022-4.07408,2.92969-8.30731,3.82681-12.48392,.59735-2.78105,.38193-2.82736-2.3761-3.34442h-.00003Zm-84.65671,27.65989c3.5777-.44261,6.80032-.83476,10.01953-1.25292,.23767-.03087,.59866-.20493,.65302-.38693,.61703-2.0658,1.18542-4.14615,1.80875-6.37227-5.42529,.64584-8.98367,3.98667-12.48129,8.01212Zm11.94327-26.36552l-.04565,.50748c.1908,.19323,.39542,.37477,.57034,.58144,2.97369,3.51363,6.31384,4.41623,10.51971,2.87709,1.15735-.42355,1.77051-.93669,1.32419-2.36983-.29977-.96256-.58322-1.46259-1.6456-1.41667-.74033,.032-1.48834-.17855-2.23361-.18381-2.82965-.01995-5.65958-.00045-8.48941,.00429h0l.00003,.00002Zm20.29666-2.98408c-1.23883-.58695-2.35388-1.17701-3.52258-1.62791-.31406-.12118-.99069,.05008-1.16171,.31017-1.15729,1.75986-1.38571,3.67451-.82166,5.51032,1.29114,.16553,2.41296,.30933,3.5415,.45401l1.96445-4.64658h0Zm47.70108-1.95114c-1.69739,1.88836-2.33704,7.93077-.84122,10.15329,1.11295-2.05546,2.15738-3.96943,3.18655-5.89155,.49271-.9202,.56363-1.68102-.52136-2.35505-.68677-.42665-1.16217-1.19365-1.82397-1.90669Zm-54.7981-.35512l1.24286-1.75555c-2.77588-2.40467-5.90808-2.78434-9.66641-2.37653,2.99576,1.46955,5.61429,2.75404,8.42352,4.13208h.00003Z"/><path class="cls-2" d="M387.12054,112.51371c-1.46329,1.11885-3.06027,1.06399-4.66968,.50267-1.23871-.43201-1.69852-1.45737-1.81284-2.70467-.29602-3.22971,3.32324-8.47068,6.45984-9.32226,2.49045-.67615,4.76089,.99824,4.53012,3.54257-.29861,3.29179-1.73145,6.04856-4.50745,7.98168h0Zm-.81464-1.60834c2.13742-1.43741,3.3476-3.46409,3.64706-5.99746,.20605-1.74307-1.13419-2.97536-2.46573-2.28571-2.71359,1.40546-4.46948,3.64615-5.10629,6.63164-.1398,.65532,.14142,1.81964,.60645,2.08336,.64246,.36433,1.64664,.14129,2.48846,.07527,.28818-.02259,.55402-.32988,.83005-.5071Z"/><path class="cls-2" d="M375.87844,126.14956c-1.1174,.39659-2.19,1.01745-3.43021,.23401-1.25009-.78966-1.42416-1.96368-1.27097-3.26082,.30646-2.59495,2.48749-5.1001,4.85587-5.62043,2.21786-.48729,3.7388,1.01635,3.35443,3.24742-.39774,2.30864-1.81473,3.91049-3.50909,5.39982h-.00003Zm-.65765-6.6704c-1.42694,.97796-2.01352,2.31461-2.40445,3.70575-.13501,.48041,.06024,1.26163,.40475,1.59852,.2446,.23922,1.16644,.16085,1.48303-.11879,.95337-.84216,1.83075-1.79764,2.59787-2.81447,.57181-.75797,.95593-1.82805,.00644-2.47888-.4567-.31305-1.37717,.05064-2.08762,.10787h-.00003Z"/><path class="cls-2" d="M375.88308,133.73128c1.86462-1.11356,4.0643-.00238,4.30612,2.17524,.31787,2.86259-1.57709,6.24349-3.92719,7.00667-1.99606,.64821-3.77551-.50501-3.78717-2.58228-.01547-2.76023,1.53308-4.78034,3.40823-6.59964v.00002Zm.23758,7.27659c1.83545-1.37548,2.60004-2.89836,2.49374-4.79541-.02216-.39538-.34714-.96163-.67819-1.09957-.33652-.14023-1.05069,.00382-1.25638,.27948-.90192,1.20871-1.80215,2.45255-2.43912,3.80773-.24036,.51137,.07697,1.46899,.45468,1.99896,.15729,.22071,1.13605-.14409,1.42529-.1912h-.00003Z"/><path class="cls-2" d="M389.66149,124.60484c-1.19379,.90338-2.43472,1.11245-3.73685,.23758-1.34772-.9055-1.16809-2.22799-.88959-3.5271,.39612-1.84779,1.3989-3.3356,2.95093-4.4093,1.44073-.9967,3.33032-1.04127,4.46143-.18241,.87347,.66323,1.18173,2.2775,.36316,3.89072-.75983,1.49748-1.88269,2.81071-2.8457,4.20506l-.30334-.21455h-.00003Zm-.14114-6.65079c-1.84061,1.30909-2.98172,2.50892-2.98718,4.3638-.00385,1.30701,.80707,1.7929,1.77905,.98472,1.10706-.92053,2.0939-2.04148,2.90964-3.22883,.32236-.46917,.31454-1.65171-.03409-1.96813-.40417-.3668-1.34863-.13816-1.66739-.15155h-.00003Z"/><path class="cls-2" d="M365.38467,140.42783c-.81259-.1156-1.87759-.08057-2.78546-.44127-1.26727-.5035-1.43799-1.83088-1.34488-2.9804,.15231-1.88051,.73407-3.65142,2.06573-5.10247,1.01569-1.10677,2.63739-1.61609,3.93335-1.07903,1.38062,.57214,1.68121,1.70017,1.58521,3.0948-.17432,2.53267-1.48438,4.42933-3.45395,6.50837Zm-.69736-7.47032c-1.18768,.87783-1.8576,2.49548-1.73773,4.41822,.07397,1.18615,.74878,1.61929,1.61996,1.21192,1.30789-.61159,2.85132-3.49193,2.65012-4.94553-.19415-1.40273-.8923-1.72016-2.53235-.6846h.00003l-.00003-.00002Z"/><path class="cls-2" d="M407.99084,84.32107c.1395,.36615,.42902,.76437,.40271,1.14044-.04123,.58938-.1301,1.39133-.51376,1.67077-.29376,.21395-1.23257-.07743-1.60049-.43572-.53885-.52476-.96118-1.27139-1.16736-1.99878-.13184-.46519,.05371-1.31643,.39349-1.53621,.34299-.22186,1.08923,.03501,1.58801,.24798,.35077,.14976,.58304,.57711,.8974,.91152Z"/></g><g><path class="cls-2" d="M115.72813,103.16716c-.20885-.53226-.34861-1.10623-.63989-1.58871-.7722-1.27908-1.77162-2.44383-2.39278-3.78719-2.35668-5.09681-1.02166-10.4705,3.3343-14.03431,2.08078-1.70238,4.23038-3.25284,6.88593-3.96768,1.69038-.45502,3.03882-.09894,4.07118,1.36104,3.15897,4.46749,4.63202,9.38,3.80493,14.84839-.38157,2.52274-1.67324,4.58479-3.37705,6.50573-.92931,1.04774-1.32494,2.56879-1.94298,3.83886,3.96661,1.90884,7.59008,3.65426,11.21708,5.39233,.1616,.07744,.40554,.17999,.52545,.11434,.61149-.33483,1.15229-.87442,1.79791-1.05345,.96097-.26648,.82542-.99763,.97107-1.64649,.69436-3.09345,2.72421-4.39432,6.5202-4.12174,.0823-.33887,.16509-.69304,.25447-1.04555,.49007-1.93291,1.65635-3.26426,3.59848-3.7655,2.0177-.52075,3.82641-.0625,5.26064,1.51322,2.3407,2.57163,3.96508,5.57632,5.15659,8.81574,1.9339,5.25782,2.38132,10.59888,.66145,16.00819-.23862,.75049-.07386,1.12329,.52699,1.63738,3.80903,3.25902,7.78207,6.36818,11.28095,9.9384,5.79226,5.91037,9.9443,12.87172,11.08411,21.22069,.38658,2.83172,.19003,5.80429-.16932,8.65853-.31977,2.53984-1.41075,3.14941-3.95205,2.80656-4.46584-.60252-8.91845-1.30285-13.37801-1.95239-.55027-.08015-1.10927-.10044-1.92374-.1709,.58031,1.40835,1.15056,2.6166,1.57739,3.87357,.50998,1.5018,1.08621,3.01979,1.29594,4.57633,.36919,2.74004-.96166,4.25949-3.69101,3.95245-3.06118-.34437-6.13201-.92463-9.09352-1.77025-7.97335-2.27669-15.49696-5.6743-22.7118-9.73971-1.466-.82606-2.63025-1.24983-4.45905-.58526-4.53449,1.64778-9.19289,1.23645-13.61384-.61668-1.73455-.72708-3.39399-1.83695-4.80529-3.09036-3.29744-2.92853-3.24607-6.9214-.06982-9.96876,.46961-.45055,.97272-.86619,1.52819-1.35806-1.48769-1.628-2.90999-3.2264-4.39803-4.76104-.19107-.19706-.79474-.20639-1.08754-.06119-6.06759,3.00889-12.84029-1.16916-15.61783-5.9285-.96478-1.65317-.64115-3.65413,.96299-5.12812,1.32441-1.21695,2.88854-2.17302,4.44751-3.31899-.92451-1.41916-1.98897-3.05316-3.09887-4.75689-.23864,.06219-.5089,.09989-.75289,.20102-5.52184,2.28887-10.30123,.85142-14.50309-3.01953-1.15527-1.06429-2.11198-2.3862-2.98235-3.70685-1.0637-1.614-.86274-2.79614,.50332-4.15964,2.3241-2.31975,5.20556-3.44254,8.4177-3.81659,.5031-.05859,1.00979-.08619,1.56542-.13233-.26344-1.71744-1.02134-2.65681-2.77063-3.20477-2.84738-.8919-5.60273-2.12953-8.30458-3.41525-1.78117-.8476-3.04155-2.25574-3.40371-4.37107-1.43948-8.40775-2.22239-16.84503-1.22063-25.36136,.18518-1.57429,.56068-3.15008,1.04922-4.66023,1.29036-3.98871,3.73951-5.63464,7.95631-5.45466,3.73181,.15928,7.18276,1.37113,10.47571,3.02488,5.05968,2.54104,9.59614,5.75934,12.48583,10.78404,.82384,1.43252,1.59821,3.10575,1.67872,4.70479,.12711,2.52426,1.16097,4.59504,2.26591,6.70252,1.32799,2.53287,2.68227,5.05249,4.07054,7.55265,.19606,.35304,.63285,.77775,.98571,.80428,1.96253,.14754,3.93354,.18243,5.90166,.25587l.24047,.4282h-.00002Zm49.3396,30.97551c-.38671-.40383-.64334-.73945-.9633-.99616-10.62875-8.52738-21.85794-16.11982-34.26639-21.85258-6.52281-3.01357-13.19139-5.62535-20.45259-6.12963-1.35881-.09437-2.21059-.52565-2.80598-1.63324-1.40704-2.61751-2.91258-5.19102-4.15707-7.88455-1.36025-2.94404-2.67612-5.63162-6.49727-6.02841-3.1022-.32214-6.10658-.69948-8.60315,1.6535-1.90152,1.79216-2.60177,4.19977-2.88759,6.6877-.66333,5.77383,.14136,11.34199,2.51464,16.68233,.41456,.93285,.91343,1.54381,1.87953,1.86838,2.25372,.75716,3.62214,2.35393,4.20109,4.64655,.18207,.721,.35331,1.44555,.56316,2.15857,.84638,2.87569,.39568,6.17387,2.77955,8.55293,.1244,.12414,.15508,.33671,.25654,.49016,.88098,1.33249,1.73266,2.62614,3.70767,2.33966,.75433-.1094,1.71809-.02136,2.3338,.372,3.00336,1.9188,5.81609,1.23105,8.67101-.30734,.76783-.41374,1.76041-.56127,2.14657,.49911,.41013,1.12619-.49082,1.53616-1.37304,1.87982-1.33145,.51865-2.64654,1.07933-3.9334,1.6077,.67295,4.94768,.94383,5.20229,5.62835,5.41355,.42173,.01903,.85096,.09488,1.26387,.04269,1.03208-.13047,1.87128,.14338,1.90542,1.27493,.03867,1.28184-1.04339,1.28563-1.93098,1.24708-1.73256-.07526-3.4595-.2854-5.19214-.34964-.54855-.02034-1.10777,.24571-2.07548,.48135l5.09143,5.34758c3.07982-.91793,5.78722-1.94742,8.58846-2.50635,3.96961-.79205,7.85788-.41721,11.22117,2.17264,.45293,.34877,1.00202,1.02817,.93603,1.46918-.06814,.45535-.7706,.97342-1.30422,1.17213-1.60212,.5966-2.69566,1.6059-3.23596,3.2375-.85113,2.57023-.63393,5.13308-.11342,7.84062,.51788-.21856,.88505-.43232,1.28086-.53079,2.19687-.54656,4.38374-1.16655,6.61117-1.53906,.79596-.13311,1.77891,.20778,2.51453,.62075,.38965,.21876,.72057,1.1822,.54774,1.57799-.16465,.37704-1.13576,.76415-1.54948,.60837-1.90578-.71766-3.62585-.18374-5.49425,.73311,3.86089,1.93006,7.72177,3.86014,11.97493,5.9863-.09293-.54631-.16576-.77985-.16763-1.01397-.04364-5.45995,1.10747-10.71224,2.9104-15.82313,3.27826-9.29309,8.09396-17.40743,17.47542-22.06933l.00002,.00002Zm.26806,44.6302c-.14086-1.12553-.11608-1.84687-.33307-2.48609-.6112-1.80051-1.26134-3.59302-2.00549-5.34214-1.72433-4.05306-.85319-5.29533,3.54908-4.74167,3.30217,.41529,6.58297,1.00077,9.87263,1.51465,1.65592,.25866,3.3104,.52658,4.90603,.78083,.96886-2.83171,.93965-5.40788,.59151-7.96804-1.39193-10.23641-7.15732-17.9176-14.56277-24.59992-.27323-.24654-.97684-.21757-1.39354-.07116-2.79239,.98105-5.13493,2.73451-7.17789,4.78666-3.65528,3.67171-6.26746,8.072-8.23103,12.85199-2.45867,5.98522-4.04235,12.16383-4.05337,18.68479-.0017,1.00124,.30377,1.63877,1.34822,1.9672,3.51886,1.10645,6.9818,2.40293,10.53012,3.39884,2.16787,.60848,4.45304,.79924,6.95957,1.22406Zm-25.47649-65.62363l-.14191,.313c3.39507,2.05615,6.79014,4.1123,10.1852,6.16844l.34063-.44691c-1.48809-1.46989-2.99996-2.91711-4.44346-4.42955-.2761-.28928-.28284-.83562-.41385-1.26336,.4568-.02635,.91788-.09899,1.3684-.05743,.19449,.01794,.39586,.24752,.54538,.42258,2.05883,2.41037,4.16613,4.78282,6.13444,7.26536,.82565,1.04136,1.38042,2.2911,2.75759,2.77613,.08345-.16468,.1644-.24852,.15645-.32284-.02477-.23163-.07336-.46213-.13003-.68874-1.10109-4.40382-2.92518-8.47107-5.5547-12.18573-.26369-.3725-.09945-1.04793-.13381-1.58277,.46554,.18493,.97177,.3075,1.38295,.57575,.29557,.19283,.47543,.57244,.68788,.88181,2.87822,4.19129,4.68648,8.822,5.66494,13.79479,.09238,.46949,.23948,.92821,.37304,1.43711,.25897-.13713,.37512-.15921,.40761-.22353,.08343-.16518,.14095-.34608,.18923-.52596,1.41166-5.25952,.71591-10.35037-1.52676-15.20149-1.01103-2.18695-2.44698-4.19015-3.80675-6.19774-.68372-1.00946-1.81337-1.35035-3.00686-.94275-1.20434,.4113-1.72883,1.38197-1.78164,2.61066-.02404,.5595,.03139,1.12212,.04306,1.68349,.02677,1.2894-.68148,1.77318-1.88518,1.27693-.42923-.17697-.8294-.429-1.26489-.58541-1.70101-.61094-2.9788,.04263-3.4287,1.79837-.16021,.62523-.23011,1.29785-.20143,1.94259,.08059,1.81187-.14251,2.02471-1.97855,1.69432-.17304-.03114-.35855,.00696-.53827,.01291l-.00002-.00003Zm-56.54212-20.55534c.41755-.62797,.79376-1.48002,1.41847-2.06812,1.01054-.95131,.86615-1.7603,.14103-2.76747-2.16155-3.00232-4.23583-6.06794-6.4201-9.0533-1.5115-2.06584-3.14868-4.03972-4.83048-6.18314-.45482,.5592-.66551,.74916-.7921,.98438-1.60487,2.98195-1.87581,6.25292-2.00117,9.54364-.01088,.28532,.29736,.67051,.56299,.86537,3.91241,2.8703,7.84274,5.71617,11.92136,8.67864Zm8.30558-5.95169c-1.109-3.83675-2.19183-7.62889-3.32254-11.40669-.08943-.29878-.47026-.61508-.78501-.7253-2.89136-1.01244-5.76803-2.08902-8.71533-2.90839-1.14547-.31844-2.46044-.02752-3.64224-.01479,4.20396,5.64426,8.23213,11.05249,12.24505,16.44026l4.22007-1.38509Zm-1.21045,34.02676c-.61349-.60027-.91597-1.01484-1.31894-1.27204-3.7114-2.36902-9.88353-1.59145-12.84196,1.65013-.23874,.26159-.31,1.03737-.10706,1.28117,1.17999,1.41756,2.31898,2.93048,3.74452,4.07011,3.31352,2.64896,7.01161,3.12405,10.88439,1.22097,.41091-.20192,.65689-.73953,.97937-1.12141-.4549-.1685-.90417-.46345-1.36565-.48391-2.14861-.09531-4.30229-.0822-6.44966-.1939-.34911-.01816-.81742-.40827-.95944-.74192-.08508-.19986,.29123-.72219,.5824-.91495,.21917-.14509,.63239,.01284,.95955,.01933,2.21288,.04389,4.42583,.08338,6.63875,.12429l.25346-.61916c-.49812-.39022-.94233-.96739-1.50611-1.12988-1.02344-.29497-2.11377-.39899-3.18398-.48094-1.4928-.1143-2.99768-.08496-4.48632-.23031-.3851-.0376-.7289-.49749-1.09166-.76341,.37885-.29061,.73078-.63261,1.14755-.85078,.2182-.11421,.55078-.02108,.83069-.00443,2.27559,.13532,4.55093,.27472,7.29013,.44103h-.00003Zm14.84796,18.4213c-3.18847-2.84941-9.58781-2.89933-12.83797,.86351-.73722,.85351-.74076,1.73693-.05745,2.67408,1.50398,2.06265,3.43532,3.57183,5.81523,4.45026,3.12276,1.15264,5.90129,.41155,8.29504-1.80945,.28692-.26621,.39678-.88074,.33189-1.29341-.02712-.17246-.73076-.34886-1.11747-.33013-.695,.03367-1.38268,.21494-2.07393,.33157-1.5673,.26444-3.12988,.57002-4.70656,.75482-.32226,.03778-.69791-.38048-1.04895-.58854,.24733-.33768,.44881-.72949,.75939-.99248,.18256-.15459,.5396-.09822,.81628-.14738,2.19109-.38927,4.38173-.78111,6.57251-1.17216l.08441-.42369c-.39734-.17598-.78703-.48217-1.19331-.50599-2.055-.12046-4.11518-.14997-6.1717-.24941-.75871-.03668-1.98758,.59767-2.08555-.65729-.10677-1.36785,1.25794-.97389,2.02397-.99077,2.18753-.04817,4.37821,.04713,6.59414,.08647l.00003-.00002Zm-22.78946-29.24884c-.25722-2.77091-.48049-5.3203-.74647-7.86521-.03458-.33082-.20287-.79035-.45515-.93392-3.00846-1.71222-6.19271-2.93004-9.97177-3.42297,.46186,2.5419,.86427,4.8648,1.32622,7.1758,.06503,.32533,.36992,.6582,.65034,.87631,2.70278,2.10205,5.893,3.10959,9.19683,4.16999Zm-11.28668-24.26045l-.54069,.33333c.12371,2.55112,.22638,5.10349,.3776,7.65298,.12823,2.16168,.15489,2.15169,2.26364,2.607,.64098,.1384,1.28355,.29657,1.89995,.51684,2.18522,.78084,4.35944,1.59243,6.60697,2.41776,.1128-.77771,.0859-1.61564,.36821-2.3317,.6445-1.63466,.06122-2.68752-1.24281-3.67-3.27525-2.46766-6.49241-5.01239-9.73287-7.52621Zm49.87195,12.01886c1.8209,.38788,1.90449,.41959,2.59146-1.39025,1.10958-2.92321,2.11662-5.88618,3.11414-8.85013,.15186-.45119,.19831-1.09155-.00853-1.48603-2.17483-4.14775-1.80607-4.57824-6.19064-2.19503-.20492,.11139-.49386,.15084-.61375,.31733-.19597,.27212-.43065,.63771-.39711,.93547,.4692,4.16567,.98118,8.32653,1.50444,12.66863h-.00001Zm4.8545,64.65179c-5.76172,.80976-11.08869-.53433-16.48514-2.46084,.31438,1.24042,.57586,2.5386,1.35871,3.30259,4.20833,4.10694,9.38615,4.85153,14.94959,3.88064,.27811-.04854,.68195-.60948,.66342-.90929-.07442-1.20405-.29219-2.39922-.48658-3.8131Zm.39947-4.21668c-2.38833-1.08147-4.88395-1.76088-6.80796-3.20286-2.14816-1.60998-3.76411-1.13755-5.58502,.13545-.84411,.5901-1.67754,1.20071-2.46938,1.85797-.36187,.30036-.61147,.73598-1.03223,1.26,4.25421,1.70608,8.54685,2.13207,12.78952,2.63076,2.82504,.33206,2.8508,.11321,3.10508-2.68133h-.00001Zm-35.53097-81.66626c.7785,3.51993,1.47323,6.69109,2.19353,9.85641,.05318,.23369,.26055,.57664,.44687,.61357,2.11484,.41918,4.23956,.78858,6.5146,1.19889-1.1553-5.34006-4.81724-8.56702-9.155-11.66887Zm27.37557,9.74815l-.50952,.00249c-.17434,.2082-.33575,.42906-.52498,.62271-3.2171,3.29222-3.80023,6.70268-1.87079,10.7444,.53095,1.1122,1.0997,1.67415,2.4843,1.09448,.92995-.38933,1.40098-.71872,1.25493-1.77205-.10177-.734,.03719-1.49855-.02795-2.24098-.24737-2.81888-.53403-5.63432-.80599-8.45105Zm4.8875,19.576c.46733-1.28873,.94946-2.45451,1.28798-3.66058,.09098-.3241-.14341-.98151-.41849-1.12723-1.86129-.98593-3.78895-1.03249-5.56329-.2976l-.11753,3.56854c1.61742,.50992,3.20755,1.01124,4.81133,1.51687Zm6.44713,47.30363c-2.04022-1.51148-8.11603-1.57765-10.18736,.12137,2.15138,.91387,4.15542,1.77288,6.16615,2.61594,.96261,.4036,1.72673,.40238,2.29529-.74143,.35988-.724,1.07857-1.2697,1.72592-1.99587Zm-4.82142-54.58673l1.86508,1.07153c2.13178-2.99056,2.21396-6.14461,1.45305-9.84763-1.18007,3.12116-2.21154,5.8493-3.31812,8.7761h-.00001Z"/><path class="cls-2" d="M140.11294,133.79164c-1.25204-1.3511-1.34824-2.94609-.94141-4.60135,.3131-1.27397,1.29046-1.82857,2.52138-2.06016,3.18732-.5997,8.74666,2.50843,9.89064,5.55063,.90832,2.41547-.54418,4.83389-3.09893,4.84442-3.30527,.0136-6.18504-1.15251-8.37168-3.73354Zm1.52423-.96288c1.63283,1.99212,3.76474,3.0055,6.31508,3.06438,1.75474,.04052,2.85495-1.41011,2.04263-2.67058-1.65545-2.56874-4.05193-4.10518-7.08422-4.4572-.6656-.07727-1.79815,.31264-2.01678,.8005-.30203,.67398,.01484,1.65261,.16006,2.48443,.0497,.28478,.38072,.52039,.58323,.77847Z"/><path class="cls-2" d="M125.47638,123.8875c-.50033-1.07493-1.21971-2.0841-.5569-3.39278,.66808-1.31905,1.82041-1.60324,3.12621-1.57324,2.61229,.06003,5.31222,1.99476,6.05388,4.30338,.69456,2.16195-.65873,3.81807-2.91612,3.64612-2.33588-.17793-4.06439-1.43733-5.70707-2.98347h0Zm6.57848-1.28465c-1.10834-1.32818-2.49441-1.78593-3.91625-2.04375-.49101-.08904-1.2503,.17911-1.55315,.55389-.21505,.26611-.04997,1.17641,.25831,1.46518,.92843,.8696,1.9625,1.65281,3.04723,2.32047,.80858,.49769,1.91016,.77903,2.46841-.22767,.26852-.48423-.18047-1.36624-.30455-2.06812Z"/><path class="cls-2" d="M117.92897,124.60814c1.28467,1.75112,.38619,4.0459-1.75887,4.49228-2.81978,.58678-6.36452-.98043-7.34623-3.24793-.83381-1.92592,.14621-3.80634,2.21309-4.01409,2.74643-.27604,4.90376,1.07477,6.892,2.76974h.00001Zm-7.22164,.9237c1.54267,1.69737,3.13094,2.31472,5.00948,2.02973,.39152-.05941,.92455-.43639,1.03061-.77898,.10782-.34826-.10303-1.04565-.39688-1.22439-1.28848-.78374-2.61178-1.56249-4.02106-2.06864-.53179-.191-1.45515,.21535-1.94709,.64142-.20487,.17742,.25074,1.11739,.32494,1.40085h0v.00002Z"/><path class="cls-2" d="M128.31581,137.46308c-1.01208-1.10313-1.33741-2.31879-.58942-3.69772,.77418-1.42721,2.10773-1.37327,3.42732-1.21872,1.87694,.21985,3.4528,1.07766,4.66827,2.52134,1.12831,1.34016,1.35112,3.21712,.60291,4.42427-.57778,.93221-2.15572,1.39152-3.83903,.72896-1.56255-.61503-2.97594-1.60883-4.455-2.43587l.18495-.32226Zm6.60773-.76859c-1.47706-1.70875-2.7793-2.73146-4.62639-2.56172-1.30153,.11958-1.70867,.9728-.81231,1.86409,1.02096,1.01518,2.2301,1.89175,3.48917,2.59171,.49752,.2766,1.67404,.15716,1.95612-.21982,.32699-.437,.01018-1.35564-.00659-1.67426Z"/><path class="cls-2" d="M110.27091,114.78904c.03834-.81986-.0971-1.87681,.17625-2.81466,.38158-1.30916,1.6869-1.60447,2.84007-1.62033,1.88649-.02595,3.70442,.38596,5.27474,1.57462,1.19774,.90664,1.85793,2.47299,1.44567,3.81388-.4392,1.42848-1.5338,1.83424-2.93127,1.87039-2.53781,.06564-4.54971-1.05947-6.80547-2.8239h0Zm7.37108-1.39972c-.98607-1.09948-2.65976-1.61365-4.56258-1.31272-1.17386,.18564-1.54134,.89836-1.05352,1.72716,.73237,1.24427,3.7456,2.50883,5.1737,2.17124,1.37813-.32576,1.62821-1.05077,.4424-2.58568Z"/><path class="cls-2" d="M170.15051,151.90626c-.35134,.17344-.72044,.4993-1.09731,.50862-.59064,.01461-1.3974,.00188-1.71182-.35368-.24074-.27223-.03932-1.23439,.28263-1.6345,.47152-.58601,1.17494-1.07695,1.8796-1.3509,.45066-.17519,1.31562-.07085,1.56651,.24665,.25326,.3205,.068,1.08766-.0969,1.60433-.11596,.36334-.51947,.63494-.82271,.97948Z"/></g><g><path class="cls-2" d="M365.94119,357.16714c-.20886-.53226-.34863-1.10623-.63989-1.58871-.77219-1.27908-1.77161-2.44382-2.39279-3.7872-2.35666-5.09683-1.02167-10.47049,3.33429-14.03433,2.08078-1.70239,4.23038-3.25284,6.88593-3.96768,1.69037-.45502,3.03882-.09894,4.07117,1.36105,3.15897,4.46747,4.63202,9.38,3.80493,14.84839-.38159,2.52274-1.67322,4.58478-3.37704,6.50574-.92932,1.04773-1.32495,2.56879-1.94299,3.83887,3.96661,1.90884,7.59006,3.65427,11.2171,5.39233,.16162,.07745,.40552,.17999,.52545,.11432,.61151-.33481,1.15228-.87442,1.79791-1.05344,.96097-.26648,.82541-.99762,.97107-1.64648,.69437-3.09344,2.72421-4.39432,6.5202-4.12173,.08231-.33887,.1651-.69305,.25446-1.04556,.49008-1.93292,1.65634-3.26428,3.59848-3.7655,2.0177-.52075,3.82642-.0625,5.26065,1.51321,2.3407,2.57162,3.96509,5.57632,5.15659,8.81573,1.9339,5.25784,2.38132,10.59888,.66144,16.00818-.23862,.75049-.07385,1.12329,.52698,1.63736,3.80902,3.25903,7.78207,6.36819,11.28094,9.93842,5.79227,5.91037,9.94431,12.87173,11.08411,21.2207,.38657,2.83173,.19003,5.80429-.16931,8.65854-.31976,2.53983-1.41074,3.14941-3.95206,2.80655-4.46585-.60251-8.91846-1.30286-13.37802-1.95239-.55026-.08014-1.10928-.10043-1.92374-.1709,.58032,1.40836,1.15057,2.61661,1.57739,3.87357,.50998,1.5018,1.08621,3.01978,1.29593,4.57632,.3692,2.74005-.96167,4.25949-3.69101,3.95245-3.06119-.34436-6.13202-.92462-9.09351-1.77026-7.97336-2.2767-15.49695-5.67429-22.71179-9.73972-1.466-.82605-2.63025-1.24982-4.45905-.58527-4.53448,1.64777-9.1929,1.23645-13.61386-.61667-1.73453-.72708-3.39401-1.83694-4.80527-3.09036-3.29745-2.92853-3.24606-6.92139-.06982-9.96875,.4696-.45056,.97272-.86618,1.52817-1.35806-1.4877-1.62799-2.91-3.22641-4.39804-4.76105-.19107-.19705-.79474-.20639-1.08755-.06119-6.0676,3.00888-12.8403-1.16916-15.61783-5.9285-.96478-1.65317-.64114-3.65414,.96301-5.12811,1.32443-1.21695,2.88852-2.17303,4.44751-3.31897-.9245-1.41916-1.98898-3.05316-3.09888-4.7569-.23865,.06219-.50891,.09988-.75287,.20102-5.52185,2.28885-10.30121,.85144-14.50311-3.01953-1.15527-1.0643-2.11197-2.3862-2.98235-3.70685-1.06371-1.61401-.86275-2.79614,.50334-4.15964,2.3241-2.31976,5.20557-3.44254,8.41769-3.81659,.50311-.05859,1.0098-.08621,1.5654-.13232-.26343-1.71744-1.02136-2.6568-2.77063-3.20477-2.84738-.89191-5.60272-2.12952-8.30458-3.41525-1.78117-.8476-3.04155-2.25574-3.40372-4.37106-1.43944-8.40771-2.22235-16.845-1.2206-25.3613,.18518-1.57431,.56068-3.15009,1.04922-4.66022,1.29036-3.98871,3.73952-5.63464,7.9563-5.45467,3.73181,.15929,7.18274,1.37112,10.47571,3.02489,5.05969,2.54105,9.59616,5.75934,12.48581,10.78403,.82385,1.43253,1.59821,3.10574,1.67874,4.7048,.12711,2.52426,1.16095,4.59506,2.2659,6.70251,1.328,2.53287,2.68228,5.05249,4.07053,7.55264,.19604,.35303,.63284,.77777,.98569,.80429,1.96252,.14755,3.93353,.18243,5.90167,.25586l.24045,.42822,.00003-.00006h.00012Zm49.3396,30.97552c-.38672-.40381-.64334-.73947-.96329-.99615-10.62875-8.52737-21.85794-16.11984-34.26639-21.85257-6.5228-3.01358-13.19138-5.62534-20.45258-6.12961-1.3588-.09439-2.2106-.52563-2.80597-1.63324-1.40704-2.61752-2.91257-5.19101-4.15707-7.88455-1.36023-2.94406-2.67612-5.63162-6.49728-6.02841-3.1022-.32214-6.10657-.69949-8.60315,1.6535-1.90152,1.79218-2.60178,4.19977-2.8876,6.68771-.66333,5.77383,.14136,11.34201,2.51462,16.68234,.41458,.93286,.91345,1.54382,1.87952,1.86838,2.25372,.75717,3.62216,2.35394,4.20111,4.64655,.18207,.72098,.35333,1.44556,.56317,2.15857,.84637,2.8757,.39569,6.17386,2.77957,8.55292,.12439,.12415,.15509,.33673,.25656,.49017,.88098,1.33249,1.73267,2.62613,3.70767,2.33966,.75433-.10941,1.71808-.02136,2.3338,.37198,3.00336,1.91879,5.8161,1.23105,8.67102-.30734,.76785-.41373,1.76041-.56125,2.14658,.49911,.41013,1.12619-.49081,1.53616-1.37305,1.87982-1.33145,.51865-2.64655,1.07932-3.93341,1.6077,.67294,4.94769,.94382,5.2023,5.62836,5.41354,.42172,.01904,.85098,.09488,1.26385,.04269,1.03207-.13046,1.87128,.14337,1.90543,1.27493,.03867,1.28183-1.0434,1.28564-1.93097,1.24707-1.73257-.07526-3.4595-.2854-5.19214-.34964-.54855-.02036-1.10776,.2457-2.0755,.48135,2.03036,2.13254,3.71729,3.9043,5.09143,5.3476,3.07983-.91794,5.78723-1.94742,8.58847-2.50635,3.9696-.79205,7.85788-.41721,11.22119,2.17264,.45294,.34875,1.00201,1.02817,.93604,1.46918-.06815,.45535-.7706,.97342-1.3042,1.17212-1.60214,.59659-2.69565,1.6059-3.23596,3.23749-.85114,2.57022-.63394,5.13309-.11343,7.84061,.51788-.21857,.88507-.43231,1.28085-.53079,2.19687-.54657,4.38373-1.16656,6.61118-1.53906,.79596-.13312,1.77893,.20779,2.51453,.62076,.38965,.21875,.72058,1.18219,.54773,1.578-.16467,.37704-1.13577,.76416-1.54947,.60837-1.90579-.71765-3.62585-.18375-5.49426,.73312,3.8609,1.93005,7.72177,3.86014,11.97495,5.9863-.09293-.5463-.16577-.77985-.16763-1.01398-.04364-5.45996,1.10748-10.71225,2.9104-15.82312,3.27826-9.29309,8.09396-17.40741,17.47543-22.06934l-.00006,.00003-.00003-.00006Zm.26807,44.63019c-.14087-1.12552-.11609-1.84686-.33307-2.48608-.61121-1.80051-1.26135-3.59302-2.00549-5.34213-1.72433-4.05307-.85318-5.29532,3.54907-4.74167,3.30219,.41528,6.58298,1.00076,9.87262,1.51465,1.65591,.25867,3.31039,.52658,4.90604,.78082,.96887-2.8317,.93964-5.40787,.59152-7.96805-1.39194-10.23642-7.15732-17.9176-14.56277-24.59991-.27322-.24655-.97684-.21759-1.39355-.07117-2.79239,.98105-5.13492,2.7345-7.17789,4.78668-3.65527,3.67172-6.26746,8.07202-8.23102,12.85196-2.45868,5.98523-4.04236,12.16382-4.05338,18.68478-.00171,1.00125,.30377,1.63876,1.34821,1.96719,3.51886,1.10645,6.98181,2.40292,10.53012,3.39883,2.16788,.60849,4.45303,.79922,6.95956,1.22406l.00003,.00003Zm-25.4765-65.62363l-.14191,.31299c3.39508,2.05615,6.79016,4.1123,10.18521,6.16843l.34064-.4469c-1.4881-1.46988-2.99997-2.91711-4.44345-4.42957-.27609-.28928-.28284-.83563-.41385-1.26337,.45679-.02634,.91788-.09897,1.36841-.05743,.19449,.01794,.39587,.2475,.54538,.42258,2.05884,2.41037,4.16614,4.78281,6.13443,7.26538,.82565,1.04138,1.38043,2.29111,2.7576,2.77612,.08344-.16467,.1644-.24854,.15646-.32285-.02478-.23163-.07336-.46213-.13004-.68875-1.1011-4.40381-2.92517-8.47107-5.55469-12.18573-.2637-.3725-.09946-1.04794-.13382-1.58276,.46555,.18494,.97177,.3075,1.38297,.57574,.29556,.19284,.47543,.57242,.68787,.88181,2.87823,4.19128,4.68649,8.82202,5.66495,13.79477,.09238,.46948,.23947,.92822,.37305,1.4371,.25897-.13712,.37512-.15921,.40762-.22354,.08344-.16519,.14096-.34607,.18924-.52597,1.41165-5.25952,.71591-10.35037-1.52676-15.20148-1.01102-2.18695-2.44699-4.19016-3.80676-6.19775-.68372-1.00946-1.81339-1.35037-3.00687-.94275-1.20435,.41129-1.72882,1.38196-1.78165,2.61066-.02405,.55948,.0314,1.12213,.04306,1.6835,.02676,1.2894-.68149,1.77319-1.88519,1.27692-.42923-.17697-.82941-.42899-1.26489-.58539-1.70102-.61096-2.97879,.04263-3.42871,1.79837-.16022,.62524-.2301,1.29785-.20142,1.9426,.0806,1.81186-.14252,2.02469-1.97855,1.69431-.17303-.03113-.35855,.00696-.53827,.01291l-.00006-.00003v.00009Zm-56.54211-20.55533c.41757-.62799,.79376-1.48004,1.41846-2.06812,1.01053-.95132,.86615-1.76031,.14105-2.76746-2.16153-3.00232-4.23581-6.06796-6.4201-9.05331-1.51151-2.06583-3.14868-4.03973-4.83047-6.18314-.45482,.5592-.66551,.74915-.7921,.98438-1.60487,2.98196-1.87581,6.2529-2.00117,9.54364-.01088,.28531,.29736,.67053,.56299,.86536,3.91241,2.8703,7.84274,5.71616,11.92136,8.67862v.00003Zm8.30557-5.95169c-1.10898-3.83676-2.19183-7.62888-3.32254-11.40668-.08942-.29877-.47025-.61508-.785-.72531-2.89136-1.01245-5.76804-2.08902-8.71533-2.90839-1.14548-.31845-2.46042-.02753-3.64224-.0148,4.20395,5.64426,8.23212,11.05249,12.24506,16.44025,1.17831-.38672,2.44962-.80399,4.22006-1.3851v.00003Zm-1.21045,34.02676c-.61349-.60028-.91599-1.01486-1.31894-1.27203-3.7114-2.36902-9.88354-1.59146-12.84195,1.65012-.23874,.2616-.31,1.03738-.10706,1.28116,1.17999,1.41757,2.31897,2.93048,3.74451,4.0701,3.31351,2.64896,7.0116,3.12405,10.88437,1.22095,.41089-.20193,.65689-.73953,.97937-1.1214-.4549-.16849-.90417-.46347-1.36566-.48392-2.14862-.09531-4.30228-.08221-6.44965-.19388-.34912-.01816-.81741-.40826-.95944-.74191-.08508-.19986,.29123-.72217,.5824-.91495,.21918-.14511,.63239,.01282,.95956,.01932,2.21289,.04388,4.42584,.08337,6.63876,.12427l.25345-.61917c-.49811-.3902-.94235-.96738-1.5061-1.12988-1.02344-.29498-2.11377-.39899-3.18399-.48093-1.4928-.11429-2.99768-.08496-4.4863-.23032-.3851-.0376-.72891-.4975-1.09167-.7634,.37885-.29059,.73077-.6326,1.14755-.85077,.2182-.1142,.55078-.02106,.83069-.00443,2.2756,.13531,4.55093,.27472,7.29013,.44101l-.00006,.00003,.00003,.00003Zm14.84796,18.42126c-3.18848-2.8494-9.5878-2.89932-12.83798,.86349-.73721,.85352-.74075,1.73691-.05746,2.67407,1.50397,2.06265,3.43533,3.57184,5.81522,4.45026,3.12277,1.15265,5.90128,.41156,8.29504-1.80945,.28693-.2662,.39676-.88074,.33188-1.2934-.0271-.17245-.73077-.34885-1.11749-.33011-.69501,.03369-1.38269,.21494-2.07394,.33157-1.56732,.26443-3.12988,.57001-4.70657,.75482-.32227,.03778-.69791-.38049-1.04895-.58853,.24734-.33768,.44882-.72949,.75937-.99249,.18256-.1546,.53961-.09821,.81628-.14737,2.1911-.38928,4.38174-.7811,6.57251-1.17215l.08441-.42368c-.39734-.17599-.78702-.48215-1.1933-.50601-2.05499-.12045-4.11517-.14996-6.17172-.24939-.7587-.03668-1.98758,.59766-2.08557-.65729-.10678-1.36783,1.25793-.97388,2.02396-.99078,2.18753-.04816,4.3782,.04712,6.59415,.08646l.00003-.00003h.00015Zm-22.78943-29.24887c-.25723-2.7709-.48047-5.32031-.74649-7.8652-.03458-.33084-.20288-.79034-.45514-.9339-3.00845-1.71222-6.19269-2.93005-9.97177-3.42297,.46185,2.5419,.86427,4.86481,1.32622,7.17581,.06503,.32532,.36992,.6582,.65034,.87631,2.70276,2.10205,5.89301,3.10959,9.19681,4.17001l.00003-.00003v-.00003Zm-11.28668-24.26044l-.5407,.33334c.1237,2.55112,.22638,5.10349,.37759,7.65298,.12823,2.16168,.15489,2.1517,2.26364,2.60699,.64098,.1384,1.28355,.29657,1.89995,.51685,2.18524,.78085,4.35944,1.59241,6.60696,2.41776,.11279-.77771,.08591-1.61566,.36823-2.3317,.6445-1.63467,.06122-2.68753-1.2428-3.67001-3.27524-2.46768-6.49243-5.01239-9.73286-7.52621h-.00002Zm49.87195,12.01886c1.82092,.38788,1.90451,.41959,2.59146-1.39023,1.10956-2.92319,2.11661-5.88617,3.11414-8.85013,.15186-.4512,.1983-1.09155-.00854-1.48602-2.17484-4.14774-1.80609-4.57825-6.19064-2.19501-.20493,.11139-.49387,.15082-.61374,.31735-.19598,.27213-.43066,.6377-.39709,.93546,.46918,4.16565,.9812,8.32654,1.50443,12.66861v-.00003Zm4.85452,64.65176c-5.76172,.80975-11.08868-.53433-16.48514-2.46085,.31439,1.24042,.57587,2.5386,1.3587,3.30258,4.20834,4.10693,9.38614,4.85153,14.94958,3.88065,.27811-.04855,.68195-.60947,.66342-.9093-.07443-1.20404-.29218-2.39923-.4866-3.81311l.00003,.00003Zm.39948-4.21667c-2.38834-1.08148-4.88397-1.76089-6.80795-3.20285-2.14816-1.60999-3.7641-1.13754-5.58502,.13544-.84412,.59009-1.67755,1.20071-2.46939,1.85797-.36188,.30035-.61148,.73599-1.03223,1.26001,4.25421,1.70609,8.54684,2.13208,12.78952,2.63077,2.82504,.33206,2.8508,.11322,3.1051-2.68134h-.00003Zm-35.53098-81.66626c.7785,3.51993,1.47324,6.6911,2.19354,9.85641,.05319,.2337,.26053,.57663,.44687,.61356,2.11484,.41916,4.23956,.78857,6.51459,1.19888-1.1553-5.34006-4.81726-8.56702-9.155-11.66888v.00003Zm27.37555,9.74814l-.50952,.0025c-.17435,.20822-.33575,.42905-.52499,.62271-3.2171,3.29221-3.80023,6.70267-1.87079,10.74438,.53094,1.11221,1.0997,1.67416,2.48431,1.09448,.92996-.38934,1.401-.71872,1.25494-1.77206-.10178-.73398,.0372-1.49854-.02795-2.24097-.24738-2.81888-.53403-5.63431-.80597-8.45105h-.00003Zm4.88751,19.57602c.46732-1.28873,.94946-2.4545,1.28799-3.66058,.09097-.3241-.14343-.98151-.41849-1.12723-1.86127-.98593-3.78897-1.0325-5.56329-.29761l-.11752,3.56854c1.61743,.50992,3.20755,1.01126,4.81134,1.51688h-.00003Zm6.44714,47.30365c-2.04022-1.51147-8.11603-1.57764-10.18735,.12137,2.15137,.91388,4.15543,1.77289,6.16614,2.61594,.96262,.40359,1.72672,.40237,2.29529-.74142,.35989-.724,1.07858-1.26971,1.72592-1.99588Zm-4.82144-54.58673l1.86508,1.07153c2.13177-2.99054,2.21396-6.14462,1.45306-9.84763-1.18008,3.12115-2.21152,5.8493-3.31812,8.77609h-.00003Z"/><path class="cls-2" d="M390.32598,387.79163c-1.25204-1.3511-1.34824-2.94608-.94141-4.60135,.31311-1.27396,1.29047-1.82858,2.52139-2.06018,3.18732-.5997,8.74667,2.50842,9.89066,5.55063,.90833,2.41547-.54419,4.83389-3.09894,4.84442-3.30527,.01361-6.18503-1.1525-8.37167-3.73355h-.00003v.00003Zm1.52423-.96289c1.63284,1.99213,3.76477,3.00549,6.31509,3.06439,1.75473,.04053,2.85495-1.4101,2.04263-2.67059-1.65546-2.56873-4.05194-4.10519-7.0842-4.45721-.66559-.07727-1.79816,.31265-2.01678,.80051-.30203,.67398,.01486,1.65259,.16006,2.48444,.04971,.28476,.38071,.52039,.58322,.77847v-.00003l-.00003,.00003Z"/><path class="cls-2" d="M375.68942,377.88751c-.50034-1.07495-1.2197-2.08411-.55688-3.39279,.66809-1.31906,1.8204-1.60324,3.12622-1.57324,2.6123,.06003,5.31223,1.99478,6.05389,4.30338,.69455,2.16196-.65875,3.81808-2.91611,3.64612-2.33588-.17792-4.06439-1.43732-5.70709-2.98346h-.00003Zm6.57849-1.28464c-1.10834-1.32819-2.49442-1.78592-3.91623-2.04376-.491-.08905-1.25031,.17911-1.55316,.55389-.21506,.26611-.04996,1.17642,.25833,1.46518,.92844,.8696,1.96249,1.65283,3.04724,2.32047,.80859,.49771,1.91016,.77905,2.46841-.22769,.26852-.48422-.18048-1.36624-.30453-2.06812h-.00003l-.00003,.00003Z"/><path class="cls-2" d="M368.14202,378.60812c1.28467,1.7511,.38617,4.0459-1.75888,4.49228-2.81979,.58679-6.36453-.98041-7.34625-3.24792-.83383-1.92593,.14621-3.80634,2.2131-4.01407,2.74643-.27606,4.90375,1.07477,6.892,2.76974l.00003-.00003Zm-7.22162,.92371c1.54266,1.69736,3.13095,2.3147,5.00949,2.02972,.39154-.05939,.92456-.4364,1.03061-.77899,.10782-.34827-.10303-1.04565-.39688-1.2244-1.28848-.78375-2.61179-1.56247-4.02106-2.06863-.53177-.19098-1.45514,.21536-1.94708,.64142-.20486,.1774,.25073,1.1174,.32495,1.40085v.00003h-.00003Z"/><path class="cls-2" d="M378.52886,391.46307c-1.01208-1.10312-1.33743-2.31879-.58942-3.69772,.7742-1.42722,2.10773-1.37329,3.42731-1.21872,1.87695,.21985,3.45279,1.07767,4.66827,2.52136,1.1283,1.34015,1.3511,3.21713,.60291,4.42426-.57776,.93222-2.15573,1.39154-3.83905,.72897-1.56256-.61505-2.97595-1.60883-4.45499-2.43588l.18494-.32227h.00003Zm6.60773-.76859c-1.47708-1.70877-2.7793-2.73145-4.6264-2.56171-1.30154,.11957-1.70865,.97278-.81232,1.86407,1.02097,1.01517,2.2301,1.89175,3.48917,2.59171,.4975,.27661,1.67404,.15717,1.95612-.21982,.327-.43701,.01019-1.35565-.00659-1.67426h.00003Z"/><path class="cls-2" d="M360.48397,368.78903c.03836-.81985-.09711-1.87683,.17624-2.81467,.38159-1.30917,1.68689-1.60449,2.84006-1.62033,1.88651-.02597,3.70441,.38596,5.27472,1.57462,1.19775,.90665,1.85794,2.47299,1.44565,3.81387-.43918,1.42847-1.53381,1.83423-2.93127,1.87039-2.53781,.06564-4.54971-1.05945-6.80548-2.82391l.00003,.00003h.00006Zm7.37109-1.39969c-.98608-1.09949-2.65976-1.61365-4.56259-1.31271-1.17386,.18564-1.54135,.89835-1.0535,1.72717,.73239,1.24426,3.74561,2.50882,5.17371,2.17123,1.37814-.32578,1.6282-1.05078,.44241-2.58569h-.00003Z"/><path class="cls-2" d="M420.36355,405.90628c-.35135,.17343-.72043,.4993-1.09732,.50861-.59064,.01462-1.3974,.00189-1.71182-.35367-.24075-.27222-.03931-1.23438,.28262-1.63449,.47153-.586,1.17493-1.07693,1.87961-1.35089,.45065-.1752,1.31561-.07086,1.5665,.24664,.25327,.3205,.06799,1.08765-.09689,1.60434-.11597,.36334-.51947,.63495-.82269,.97946Z"/></g><line class="cls-1" x2="500.72726" y2="500"/><line class="cls-1" x1="500.72726" y2="500"/></svg>