<?xml version="1.0" encoding="UTF-8"?><svg id="_レイヤー_1" xmlns="http://www.w3.org/2000/svg" viewBox="0 0 297.58406 293.24112"><path d="M40.81159,233.13972c-.5496,.15765-1.13421,.24259-1.64204,.487-1.34629,.64796-2.60021,1.53292-3.99623,2.02443-5.29659,1.86482-10.52019,.0283-13.65671-4.64475-1.49827-2.23224-2.8388-4.51866-3.29966-7.22985-.29336-1.72579,.18848-3.03458,1.73943-3.92445,4.74584-2.72296,9.77551-3.72551,15.14135-2.38569,2.47544,.6181,4.40629,2.09873,6.15774,3.97633,.9553,1.0241,2.43219,1.5616,3.63821,2.29683,2.2749-3.76861,4.35472-7.21107,6.42754-10.65772,.09235-.15356,.21748-.38673,.16345-.5123-.27559-.64037-.7617-1.22972-.87895-1.88936-.17454-.98184-.91522-.91594-1.54743-1.12222-3.01406-.98339-4.11742-3.12702-3.48757-6.8803-.32958-.11393-.67435-.2298-1.01685-.35207-1.87799-.67041-3.09325-1.95722-3.40884-3.938-.32788-2.05786,.29913-3.81521,2.00326-5.09423,2.78119-2.08738,5.92585-3.42075,9.26331-4.30101,5.41695-1.42873,10.7764-1.36975,15.99911,.85327,.7246,.30842,1.11129,.17961,1.67983-.37001,3.60417-3.48423,7.07463-7.1459,10.95932-10.29199,6.43096-5.20821,13.75331-8.68429,22.1726-9.03056,2.85557-.11743,5.7963,.35896,8.60385,.98624,2.49829,.55819,3.00211,1.70186,2.4208,4.19943-1.02156,4.38898-2.13925,8.75556-3.20704,13.13385-.13176,.54024-.20475,1.09482-.35181,1.899,1.45685-.44471,2.71356-.89831,4.00522-1.20453,1.54325-.36588,3.10887-.79618,4.67826-.85797,2.76266-.10878,4.14964,1.35961,3.58622,4.04777-.63192,3.01498-1.49958,6.01728-2.6211,8.8857-3.0195,7.72271-7.11242,14.89184-11.84101,21.69051-.96082,1.38144-1.49263,2.50046-1.00375,4.38385,1.21219,4.66984,.36278,9.26857-1.89957,13.49476-.88763,1.65814-2.14926,3.20534-3.53035,4.49197-3.22685,3.00615-7.19702,2.57793-9.9308-.87191-.40419-.51006-.77046-1.05018-1.20767-1.64961-1.76122,1.3273-3.48679,2.5923-5.1551,3.92876-.21422,.17161-.28052,.7717-.16362,1.0769,2.42244,6.32463-2.37653,12.67249-7.3769,14.98817-1.73689,.80435-3.69835,.2932-5.01426-1.44297-1.08644-1.43341-1.89053-3.08084-2.88415-4.74106-1.50013,.78635-3.22734,1.69175-5.02828,2.6358,.03938,.24345,.05139,.51606,.12902,.76851,1.75717,5.71332-.1252,10.3356-4.37566,14.15312-1.16864,1.0496-2.57498,1.8772-3.97193,2.61896-1.70724,.90652-2.86511,.59483-4.09352-.89389-2.0899-2.53278-2.93556-5.5074-3.0046-8.74051-.01082-.50638,.00956-1.01342,.0161-1.57092-1.73464,.10007-2.74139,.76587-3.45209,2.4556-1.15681,2.75043-2.64912,5.37659-4.18424,7.94494-1.01202,1.69317-2.5329,2.81494-4.67297,2.97571-8.50606,.63901-16.97957,.62163-25.36323-1.17989-1.54976-.33303-3.08305-.85566-4.54032-1.48463-3.84903-1.66127-5.25631-4.25492-4.67892-8.43587,.51098-3.70009,2.04331-7.02117,4.00065-10.14323,3.0075-4.7971,6.63983-9.00936,11.91496-11.41162,1.50392-.68487,3.2428-1.29777,4.8423-1.22692,2.52498,.11184,4.68414-.72184,6.88655-1.62282,2.64697-1.08286,5.28321-2.19314,7.9033-3.3391,.36998-.16184,.83404-.55657,.89377-.90536,.33221-1.93983,.55309-3.89874,.81206-5.85112,.14967-.06632,.29933-.13264,.44899-.19896Zm35.49656-46.19387c-.43854,.34685-.7969,.57064-1.08268,.86492-9.49301,9.77595-18.11197,20.23795-24.99092,32.04956-3.61609,6.20907-6.84596,12.60119-8.03371,19.78232-.22227,1.34382-.73207,2.15107-1.89093,2.6392-2.73869,1.15357-5.44287,2.40934-8.24189,3.3939-3.05934,1.07615-5.85917,2.13233-6.61505,5.89893-.61366,3.05791-1.27304,6.01324,.83366,8.72085,1.60458,2.06227,3.9353,2.98675,6.38512,3.50625,5.68538,1.20563,11.30465,.93038,16.84524-.92798,.96783-.32461,1.62318-.76355,2.03752-1.69468,.96661-2.17215,2.68547-3.38366,5.02252-3.74351,.73497-.11317,1.47246-.21521,2.20211-.3568,2.94276-.57103,6.18364,.18913,8.7772-1.95942,.13534-.11212,.34985-.12259,.5122-.20911,1.40973-.7512,2.77803-1.47691,2.67935-3.47015-.03768-.76129,.14098-1.71243,.59074-2.28824,2.19385-2.80873,1.7748-5.67384,.51289-8.66128-.33938-.80347-.39251-1.80555,.69959-2.08984,1.15989-.30195,1.48294,.6337,1.74175,1.54443,.3906,1.37448,.82457,2.73664,1.22905,4.06765,4.98912-.2027,5.26817-.44833,5.92088-5.09196,.05877-.41805,.17482-.83819,.16185-1.25419-.03242-1.03978,.31946-1.84938,1.44917-1.7765,1.27976,.08256,1.18135,1.16013,1.05915,2.04012-.23854,1.71771-.61083,3.41709-.8384,5.13592-.07205,.54418,.13999,1.12603,.2832,2.11166,2.31474-1.81991,4.2379-3.33196,5.8045-4.56366-.62298-3.15274-1.39219-5.94527-1.68409-8.78677-.41364-4.02667,.32673-7.86216,3.22262-10.96584,.38999-.41797,1.1182-.90045,1.55101-.7931,.44688,.11083,.8963,.85908,1.04373,1.40908,.44263,1.6513,1.34415,2.83527,2.91744,3.52724,2.47836,1.09005,5.05027,1.11585,7.79487,.85336-.16868-.53621-.3468-.92192-.40746-1.32526-.33665-2.23866-.74735-4.47431-.90784-6.72697-.05735-.80497,.37484-1.75134,.85544-2.44468,.25458-.36725,1.24497-.60571,1.62267-.39627,.3598,.19952,.65348,1.20285,.45932,1.60001-.89443,1.82949-.52533,3.59229,.21097,5.53893,2.28605-3.66136,4.5721-7.32272,7.09042-11.35608-.55265,.04092-.79202,.09137-1.02527,.07113-5.43967-.47218-10.55978-2.11414-15.47756-4.39167-8.94197-4.14121-16.56527-9.70169-20.32038-19.48148Zm44.45605,3.94787c-1.1338,.03394-1.84958-.05885-2.50643,.0968-1.85018,.43844-3.69608,.91639-5.50765,1.49204-4.19779,1.33386-5.35223,.3493-4.38532-3.98101,.72528-3.2482,1.61797-6.45904,2.44022-9.68547,.41388-1.62409,.83685-3.24588,1.24065-4.81036-2.72756-1.23194-5.29497-1.44616-7.87657-1.34135-10.32211,.41902-18.51344,5.43326-25.86524,12.17455-.27124,.24872-.30884,.95193-.20245,1.38059,.71296,2.87256,2.23736,5.37022,4.08741,7.59785,3.31011,3.98569,7.44404,7.00174,12.01724,9.40794,5.72628,3.01291,11.72772,5.17299,18.2185,5.79978,.99661,.09625,1.66013-.14765,2.08573-1.15642,1.43381-3.39864,3.05153-6.72367,4.37808-10.16209,.81049-2.10072,1.2162-4.35767,1.87583-6.81287Zm-67.73627,19.16536c.0994,.05695,.1988,.11389,.2982,.17083,2.36758-3.18572,4.73516-6.37144,7.10273-9.55715-.13758-.12711-.27517-.25421-.41275-.38132-1.60385,1.34263-3.18738,2.71107-4.82938,4.00529-.31406,.24755-.8586,.20266-1.2968,.29269,.01691-.45724-.01187-.92312,.07205-1.36771,.03623-.19192,.2838-.37071,.47219-.50304,2.59403-1.822,5.15489-3.69584,7.8122-5.42091,1.11468-.72362,2.41122-1.15789,3.02414-2.4831-.15607-.09863-.23189-.18713-.30662-.18624-.23294,.00278-.467,.02939-.69794,.0644-4.48812,.68029-8.70946,2.11213-12.65584,4.3791-.39574,.22733-1.05264,.00004-1.58833-.01626,.22806-.446,.3979-.93839,.70378-1.32239,.21988-.27604,.61478-.41925,.94283-.60153,4.44437-2.46955,9.22514-3.83242,14.26811-4.33689,.47611-.04763,.94668-.15076,1.46592-.23565-.11206-.27077-.12308-.38848-.18404-.4269-.15656-.09865-.33122-.173-.50574-.23805-5.10271-1.90204-10.2365-1.69017-15.27774,.08436-2.27265,.79998-4.40251,2.04034-6.52954,3.20444-1.06951,.58533-1.51556,1.67774-1.22249,2.9044,.29573,1.2378,1.21253,1.85161,2.43074,2.02022,.55473,.07677,1.12007,.07472,1.68004,.11612,1.28617,.09511,1.7009,.84589,1.09319,1.99734-.21671,.4106-.50541,.78518-.70225,1.20395-.76885,1.63571-.23887,2.96951,1.46654,3.58321,.60731,.21854,1.27032,.35164,1.91489,.38398,1.81138,.09088,2.00221,.33308,1.4999,2.12972-.04734,.16932-.02693,.35761-.03798,.53708Zm-25.8031,54.34825c-.58573-.47499-1.39845-.92998-1.92492-1.60743-.85163-1.09587-1.67063-1.02852-2.74179-.40175-3.19303,1.86836-6.44084,3.64386-9.61913,5.53644-2.19935,1.30965-4.31902,2.75311-6.61169,4.22498,.51375,.50559,.68297,.73328,.90518,.88152,2.81707,1.8793,6.04783,2.45793,9.31201,2.8935,.28302,.03778,.69559-.23271,.91467-.47875,3.22695-3.62386,6.43127-7.26788,9.76567-11.0485Zm-5.14074-8.83052c-3.92433,.74171-7.80178,1.46158-11.66948,2.23048-.30589,.06081-.65674,.41007-.79619,.713-1.28096,2.78283-2.6244,5.54497-3.71844,8.40172-.42519,1.11028-.25975,2.44685-.35868,3.62457,6.01605-3.65215,11.78051-7.15158,17.52317-10.63776-.27374-1.20958-.56908-2.5146-.98037-4.33201Zm33.76038,4.41841c-.65552,.55406-1.09681,.81604-1.39091,1.19292-2.70893,3.47109-2.5177,9.68906,.43,12.9404,.23788,.26238,1.00346,.40658,1.26533,.22757,1.52266-1.04085,3.13638-2.03187,4.40554-3.34342,2.95004-3.04855,3.77224-6.68525,2.2434-10.72044-.16221-.42814-.67419-.72379-1.02391-1.08089-.2107,.43695-.54677,.85636-.61072,1.31385-.29779,2.13-.48813,4.2753-.80211,6.40253-.05105,.34584-.48364,.77521-.82921,.88509-.207,.06583-.69146-.35813-.85586-.6662-.12375-.23189,.0725-.62835,.10986-.95343,.25267-2.19884,.50097-4.39817,.75068-6.59735l-.59246-.3108c-.43551,.45904-1.05206,.84676-1.26706,1.39268-.3903,.99101-.59683,2.06664-.77948,3.12433-.25477,1.47534-.36767,2.97626-.65295,4.44452-.0738,.37983-.5641,.67866-.86309,1.01469-.25353-.4046-.56077-.78726-.73861-1.22277-.0931-.22801,.03103-.55031,.07403-.82739,.34961-2.25264,.70326-4.50465,1.12752-7.21589Zm19.74115-13.04196c-3.13778,2.90514-3.79181,9.27116-.35272,12.86214,.78008,.81453,1.65921,.90148,2.65671,.30972,2.19546-1.30247,3.88028-3.08266,4.97955-5.36898,1.44239-2.99995,.96701-5.83605-1.01801-8.42885-.23792-.31078-.83933-.47818-1.25629-.45255-.17425,.01071-.41631,.69455-.43419,1.0813-.03212,.69508,.0834,1.3968,.13423,2.09597,.11525,1.58527,.2719,3.16972,.30698,4.7568,.00717,.32439-.44469,.65886-.68496,.98868-.31282-.27811-.68384-.5157-.91633-.84973-.13666-.19634-.04683-.54646-.06963-.82655-.18061-2.21806-.36383-4.43591-.54624-6.65383-.13795-.04135-.27588-.0827-.41383-.12404-.21271,.37895-.55434,.73798-.61642,1.14019-.31399,2.03444-.53793,4.08263-.83113,6.12056-.10816,.75185,.40729,2.03514-.8513,2.01415-1.37182-.02288-.85075-1.34429-.79521-2.10849,.15863-2.18231,.46039-4.35419,.70881-6.5565Zm-31.2703,19.92544c-2.78282-.0056-5.3419-.02409-7.90055,.00037-.33261,.00319-.80597,.12732-.97273,.36492-1.98867,2.83331-3.50176,5.88833-4.34938,9.60395,2.57415-.21975,4.92468-.401,7.26897-.64264,.33002-.03401,.69019-.30611,.93381-.56468,2.34789-2.49219,3.65221-5.57301,5.01988-8.76193Zm-25.21789,8.94516c.09359,.18991,.18718,.37983,.28078,.56975,2.5514,.11776,5.10206,.25659,7.65443,.34681,2.16413,.07648,2.15671,.049,2.80912-2.00733,.19831-.62505,.41646-1.2498,.69395-1.84265,.98372-2.10171,1.99701-4.18958,3.03089-6.34912-.76358-.18574-1.6003-.23809-2.2865-.58676-1.56649-.79599-2.66973-.31474-3.77097,.89067-2.76593,3.02757-5.60311,5.99004-8.41171,8.97863Zm16.67488-48.51404c.5581-1.77613,.59757-1.85635-1.13931-2.71117-2.80536-1.38068-5.65999-2.66303-8.51649-3.936-.43483-.19379-1.06794-.3005-1.48019-.13184-4.3346,1.77341-4.72834,1.36564-2.76984,5.95569,.09154,.21453,.10353,.5059,.25795,.64098,.2524,.22079,.59419,.48895,.89378,.48368,4.19137-.07371,8.38198-.19046,12.75409-.30134Zm64.82127,1.27269c.26202,5.81244-1.57912,10.98868-4.00664,16.17908,1.26456-.19584,2.58164-.33355,3.41614-1.04075,4.48601-3.80168,5.71624-8.88604,5.27508-14.51631-.02206-.28145-.54235-.73646-.84258-.74632-1.2057-.03962-2.41609,.06431-3.842,.1243Zm-4.16011-.79589c-1.30218,2.27553-2.21424,4.69583-3.83146,6.47507-1.80565,1.98652-1.48793,3.63986-.39259,5.57285,.50775,.89606,1.03692,1.78344,1.61647,2.63381,.26485,.38862,.67495,.67825,1.15689,1.14661,2.10021-4.07408,2.92968-8.30731,3.8268-12.48392,.59736-2.78105,.38193-2.82736-2.37611-3.34442ZM11.77678,255.44651c3.57772-.44261,6.80031-.83476,10.01951-1.25292,.23767-.03087,.59867-.20493,.65303-.38693,.61703-2.0658,1.18543-4.14615,1.80875-6.37227-5.4253,.64584-8.98366,3.98667-12.48129,8.01212Zm11.94327-26.36552c-.01521,.16916-.03042,.33832-.04564,.50748,.1908,.19323,.39543,.37477,.57035,.58144,2.97369,3.51363,6.31384,4.41623,10.51971,2.87709,1.15737-.42355,1.77052-.93669,1.3242-2.36983-.29977-.96256-.58321-1.46259-1.64562-1.41667-.74033,.032-1.48834-.17855-2.23361-.18381-2.82964-.01995-5.65957-.00045-8.48939,.00429Zm20.29665-2.98409c-1.23883-.58695-2.35387-1.17701-3.52258-1.62791-.31406-.12118-.99067,.05008-1.16171,.31017-1.15729,1.75986-1.38569,3.67451-.82165,5.51032,1.29116,.16553,2.41296,.30933,3.54149,.45401,.66039-1.56204,1.30963-3.09771,1.96445-4.64658Zm47.70108-1.95112c-1.6974,1.88836-2.33705,7.93077-.84123,10.15329,1.11296-2.05546,2.15738-3.96943,3.18656-5.89155,.4927-.9202,.56364-1.68102-.52136-2.35505-.68678-.42665-1.16217-1.19365-1.82397-1.90669Zm-54.7981-.35512c.40787-.57612,.80065-1.13091,1.24287-1.75555-2.77588-2.40467-5.90807-2.78434-9.6664-2.37653,2.99577,1.46955,5.61431,2.75404,8.42353,4.13208Z"/><path d="M73.60204,211.75597c-1.4633,1.11885-3.06025,1.06399-4.66969,.50267-1.23871-.43201-1.69853-1.45737-1.81284-2.70467-.29602-3.22971,3.32323-8.47068,6.45986-9.32226,2.49045-.67615,4.7609,.99824,4.53011,3.54257-.2986,3.29179-1.73145,6.04856-4.50744,7.98168Zm-.81463-1.60835c2.13741-1.43741,3.34759-3.46409,3.64706-5.99746,.20605-1.74307-1.1342-2.97536-2.46574-2.28571-2.71359,1.40546-4.46949,3.64615-5.10629,6.63164-.13978,.65532,.14143,1.81964,.60646,2.08336,.64245,.36433,1.64663,.14129,2.48845,.07527,.2882-.02259,.55402-.32988,.83007-.5071Z"/><path d="M62.35994,225.3918c-1.11738,.39659-2.18998,1.01745-3.43021,.23401-1.25007-.78966-1.42417-1.96368-1.27098-3.26082,.30645-2.59495,2.48751-5.1001,4.85586-5.62043,2.21788-.48729,3.7388,1.01635,3.35443,3.24742-.39773,2.30864-1.81473,3.91049-3.5091,5.39982Zm-.65764-6.6704c-1.42692,.97796-2.01352,2.31461-2.40446,3.70575-.13501,.48041,.06024,1.26163,.40474,1.59852,.24462,.23922,1.16643,.16085,1.48303-.11879,.95339-.84216,1.83075-1.79764,2.59787-2.81447,.57183-.75797,.95594-1.82805,.00645-2.47888-.45671-.31305-1.37717,.05064-2.08763,.10788Z"/><path d="M62.36461,232.97354c1.86461-1.11356,4.06428-.00238,4.3061,2.17524,.31787,2.86259-1.57709,6.24349-3.92717,7.00667-1.99605,.64821-3.77552-.50501-3.78715-2.58228-.01545-2.76023,1.53306-4.78034,3.40822-6.59964Zm.23758,7.27659c1.83547-1.37548,2.60005-2.89836,2.49373-4.79541-.02217-.39538-.34713-.96163-.67817-1.09957-.33652-.14023-1.05071,.00382-1.25639,.27948-.90192,1.20871-1.80216,2.45255-2.43913,3.80773-.24037,.51137,.07697,1.46899,.45468,1.99896,.15728,.22071,1.13607-.14409,1.42528-.1912Z"/><path d="M76.14299,223.84709c-1.19378,.90338-2.43473,1.11245-3.73685,.23758-1.34772-.9055-1.16809-2.22799-.88961-3.5271,.39612-1.84779,1.39891-3.3356,2.95092-4.4093,1.44073-.9967,3.33033-1.04127,4.46143-.18241,.87348,.66323,1.18173,2.2775,.36316,3.89072-.75984,1.49748-1.88268,2.81071-2.8457,4.20506-.10112-.07152-.20224-.14303-.30336-.21455Zm-.14114-6.65079c-1.84061,1.30909-2.98172,2.50892-2.98717,4.3638-.00386,1.30701,.80709,1.7929,1.77905,.98472,1.10706-.92053,2.0939-2.04148,2.90963-3.22883,.32235-.46917,.31455-1.65171-.03411-1.96813-.40416-.3668-1.34862-.13816-1.6674-.15155Z"/><path d="M51.86617,239.67009c-.81257-.1156-1.8776-.08057-2.78544-.44127-1.26728-.5035-1.43799-1.83088-1.34488-2.9804,.15232-1.88051,.73407-3.65142,2.06572-5.10247,1.0157-1.10677,2.63739-1.61609,3.93336-1.07903,1.38062,.57214,1.6812,1.70017,1.58521,3.0948-.17432,2.53267-1.48439,4.42933-3.45396,6.50837Zm-.69735-7.47032c-1.18769,.87783-1.85762,2.49548-1.73773,4.41822,.07396,1.18615,.74879,1.61929,1.61995,1.21192,1.30787-.61159,2.85134-3.49193,2.65012-4.94553-.19415-1.40273-.89231-1.72016-2.53235-.6846Z"/><path d="M94.47237,183.56332c.13949,.36615,.42903,.76437,.40272,1.14044-.04123,.58938-.1301,1.39133-.51375,1.67077-.29375,.21395-1.23258-.07743-1.6005-.43572-.53886-.52476-.96118-1.27139-1.16736-1.99878-.13184-.46519,.05371-1.31643,.39348-1.53621,.34298-.22186,1.08922,.03501,1.58801,.24798,.35076,.14976,.58305,.57711,.8974,.91152Z"/><path d="M211.16275,63.00452c-.5496,.15765-1.13421,.24259-1.64204,.487-1.34629,.64796-2.60021,1.53292-3.99623,2.02443-5.29659,1.86482-10.52019,.0283-13.65671-4.64475-1.49827-2.23224-2.8388-4.51866-3.29966-7.22985-.29336-1.72579,.18848-3.03458,1.73943-3.92445,4.74584-2.72296,9.77551-3.72551,15.14135-2.38569,2.47544,.6181,4.40629,2.09873,6.15774,3.97633,.9553,1.0241,2.43219,1.5616,3.63821,2.29683,2.2749-3.76861,4.35472-7.21107,6.42754-10.65772,.09235-.15356,.21748-.38673,.16345-.5123-.27559-.64037-.7617-1.22972-.87895-1.88936-.17454-.98184-.91522-.91594-1.54743-1.12222-3.01406-.98339-4.11742-3.12702-3.48757-6.8803-.32958-.11393-.67435-.2298-1.01685-.35207-1.87799-.67041-3.09325-1.95722-3.40884-3.938-.32788-2.05786,.29913-3.81521,2.00326-5.09423,2.78119-2.08738,5.92585-3.42075,9.26331-4.30101,5.41695-1.42873,10.7764-1.36975,15.99911,.85327,.7246,.30842,1.11129,.17961,1.67983-.37001,3.60417-3.48423,7.07463-7.1459,10.95932-10.29199C257.83197,3.84022,265.15432,.36415,273.57361,.01787c2.85557-.11743,5.7963,.35896,8.60385,.98624,2.49829,.55819,3.00211,1.70186,2.4208,4.19943-1.02156,4.38898-2.13925,8.75556-3.20704,13.13385-.13176,.54024-.20475,1.09482-.35181,1.899,1.45685-.44471,2.71356-.89831,4.00522-1.20453,1.54325-.36588,3.10887-.79618,4.67826-.85797,2.76266-.10878,4.14964,1.35961,3.58622,4.04777-.63192,3.01498-1.49958,6.01728-2.6211,8.8857-3.0195,7.72271-7.11242,14.89184-11.84101,21.69051-.96082,1.38144-1.49263,2.50046-1.00375,4.38385,1.21219,4.66984,.36278,9.26857-1.89957,13.49476-.88763,1.65814-2.14926,3.20534-3.53035,4.49197-3.22685,3.00615-7.19702,2.57793-9.9308-.87191-.40419-.51006-.77046-1.05018-1.20767-1.64961-1.76122,1.3273-3.48679,2.5923-5.1551,3.92876-.21422,.17161-.28052,.7717-.16362,1.0769,2.42244,6.32463-2.37653,12.67249-7.3769,14.98817-1.73689,.80435-3.69835,.2932-5.01426-1.44297-1.08644-1.43341-1.89053-3.08084-2.88415-4.74106-1.50013,.78635-3.22734,1.69175-5.02828,2.6358,.03938,.24345,.05139,.51606,.12902,.76851,1.75717,5.71332-.1252,10.3356-4.37566,14.15312-1.16864,1.0496-2.57498,1.8772-3.97193,2.61896-1.70724,.90652-2.86511,.59483-4.09352-.89389-2.0899-2.53278-2.93556-5.5074-3.0046-8.74051-.01082-.50638,.00956-1.01342,.0161-1.57092-1.73464,.10007-2.74139,.76587-3.45209,2.4556-1.15681,2.75043-2.64912,5.37659-4.18424,7.94494-1.01202,1.69317-2.5329,2.81494-4.67297,2.97571-8.50606,.63901-16.97957,.62163-25.36323-1.17989-1.54976-.33303-3.08305-.85566-4.54032-1.48463-3.84903-1.66127-5.25631-4.25492-4.67892-8.43587,.51098-3.70009,2.04331-7.02117,4.00065-10.14323,3.0075-4.7971,6.63983-9.00936,11.91496-11.41162,1.50392-.68487,3.2428-1.29777,4.8423-1.22692,2.52498,.11184,4.68414-.72184,6.88655-1.62282,2.64697-1.08286,5.28321-2.19314,7.9033-3.3391,.36998-.16184,.83404-.55657,.89377-.90536,.33221-1.93983,.55309-3.89874,.81206-5.85112,.14967-.06632,.29933-.13264,.44899-.19896Zm35.49656-46.19387c-.43854,.34685-.7969,.57064-1.08268,.86492-9.49301,9.77595-18.11197,20.23795-24.99092,32.04956-3.61609,6.20907-6.84596,12.60119-8.03371,19.78232-.22227,1.34382-.73207,2.15107-1.89093,2.6392-2.73869,1.15357-5.44287,2.40934-8.24189,3.3939-3.05934,1.07615-5.85917,2.13233-6.61505,5.89893-.61366,3.05791-1.27304,6.01324,.83366,8.72085,1.60458,2.06227,3.9353,2.98675,6.38512,3.50625,5.68538,1.20563,11.30465,.93038,16.84524-.92798,.96783-.32461,1.62318-.76355,2.03752-1.69468,.96661-2.17215,2.68547-3.38366,5.02252-3.74351,.73497-.11317,1.47246-.21521,2.20211-.3568,2.94276-.57103,6.18364,.18913,8.7772-1.95942,.13534-.11212,.34985-.12259,.5122-.20911,1.40973-.7512,2.77803-1.47691,2.67935-3.47015-.03768-.76129,.14098-1.71243,.59074-2.28824,2.19385-2.80873,1.7748-5.67384,.51289-8.66128-.33938-.80347-.39251-1.80555,.69959-2.08984,1.15989-.30195,1.48294,.6337,1.74175,1.54443,.3906,1.37448,.82457,2.73664,1.22905,4.06765,4.98912-.2027,5.26817-.44833,5.92088-5.09196,.05877-.41805,.17482-.83819,.16185-1.25419-.03242-1.03978,.31946-1.84938,1.44917-1.7765,1.27976,.08256,1.18135,1.16013,1.05915,2.04012-.23854,1.71771-.61083,3.41709-.8384,5.13592-.07205,.54418,.13999,1.12603,.2832,2.11166,2.31474-1.81991,4.2379-3.33196,5.8045-4.56366-.62298-3.15274-1.39219-5.94527-1.68409-8.78677-.41364-4.02667,.32673-7.86216,3.22262-10.96584,.38999-.41797,1.1182-.90045,1.55101-.7931,.44688,.11083,.8963,.85908,1.04373,1.40908,.44263,1.6513,1.34415,2.83527,2.91744,3.52724,2.47836,1.09005,5.05027,1.11585,7.79487,.85336-.16868-.53621-.3468-.92192-.40746-1.32526-.33665-2.23866-.74735-4.47431-.90784-6.72697-.05735-.80497,.37484-1.75134,.85544-2.44468,.25458-.36725,1.24497-.60571,1.62267-.39627,.3598,.19952,.65348,1.20285,.45932,1.60001-.89443,1.82949-.52533,3.59229,.21097,5.53893,2.28605-3.66136,4.5721-7.32272,7.09042-11.35608-.55265,.04092-.79202,.09137-1.02527,.07113-5.43967-.47218-10.55978-2.11414-15.47756-4.39167-8.94197-4.14121-16.56527-9.70169-20.32038-19.48148Zm44.45605,3.94787c-1.1338,.03394-1.84958-.05885-2.50643,.0968-1.85018,.43844-3.69608,.91639-5.50765,1.49204-4.19779,1.33386-5.35223,.3493-4.38532-3.98101,.72528-3.2482,1.61797-6.45904,2.44022-9.68547,.41388-1.62409,.83685-3.24588,1.24065-4.81036-2.72756-1.23194-5.29497-1.44616-7.87657-1.34135-10.32211,.41902-18.51344,5.43326-25.86524,12.17455-.27124,.24872-.30884,.95193-.20245,1.38059,.71296,2.87256,2.23736,5.37022,4.08741,7.59785,3.31011,3.98569,7.44404,7.00174,12.01724,9.40794,5.72628,3.01291,11.72772,5.17299,18.2185,5.79978,.99661,.09625,1.66013-.14765,2.08573-1.15642,1.43381-3.39864,3.05153-6.72367,4.37808-10.16209,.81049-2.10072,1.2162-4.35767,1.87583-6.81287Zm-67.73627,19.16536c.0994,.05695,.1988,.11389,.2982,.17083,2.36758-3.18572,4.73516-6.37144,7.10273-9.55715-.13758-.12711-.27517-.25421-.41275-.38132-1.60385,1.34263-3.18738,2.71107-4.82938,4.00529-.31406,.24755-.8586,.20266-1.2968,.29269,.01691-.45724-.01187-.92312,.07205-1.36771,.03623-.19192,.2838-.37071,.47219-.50304,2.59403-1.822,5.15489-3.69584,7.8122-5.42091,1.11468-.72362,2.41122-1.15789,3.02414-2.4831-.15607-.09863-.23189-.18713-.30662-.18624-.23294,.00278-.467,.02939-.69794,.0644-4.48812,.68029-8.70946,2.11213-12.65584,4.3791-.39574,.22733-1.05264,.00004-1.58833-.01626,.22806-.446,.3979-.93839,.70378-1.32239,.21988-.27604,.61478-.41925,.94283-.60153,4.44437-2.46955,9.22514-3.83242,14.26811-4.33689,.47611-.04763,.94668-.15076,1.46592-.23565-.11206-.27077-.12308-.38848-.18404-.4269-.15656-.09865-.33122-.173-.50574-.23805-5.10271-1.90204-10.2365-1.69017-15.27774,.08436-2.27265,.79998-4.40251,2.04034-6.52954,3.20444-1.06951,.58533-1.51556,1.67774-1.22249,2.9044,.29573,1.2378,1.21253,1.85161,2.43074,2.02022,.55473,.07677,1.12007,.07472,1.68004,.11612,1.28617,.09511,1.7009,.84589,1.09319,1.99734-.21671,.4106-.50541,.78518-.70225,1.20395-.76885,1.63571-.23887,2.96951,1.46654,3.58321,.60731,.21854,1.27032,.35164,1.91489,.38398,1.81138,.09088,2.00221,.33308,1.4999,2.12972-.04734,.16932-.02693,.35761-.03798,.53708Zm-25.8031,54.34825c-.58573-.47499-1.39845-.92998-1.92492-1.60743-.85163-1.09587-1.67063-1.02852-2.74179-.40175-3.19303,1.86836-6.44084,3.64386-9.61913,5.53644-2.19935,1.30965-4.31902,2.75311-6.61169,4.22498,.51375,.50559,.68297,.73328,.90518,.88152,2.81707,1.8793,6.04783,2.45793,9.31201,2.8935,.28302,.03778,.69559-.23271,.91467-.47875,3.22695-3.62386,6.43127-7.26788,9.76567-11.0485Zm-5.14074-8.83052c-3.92433,.74171-7.80178,1.46158-11.66948,2.23048-.30589,.06081-.65674,.41007-.79619,.713-1.28096,2.78283-2.6244,5.54497-3.71844,8.40172-.42519,1.11028-.25975,2.44685-.35868,3.62457,6.01605-3.65215,11.78051-7.15158,17.52317-10.63776-.27374-1.20958-.56908-2.5146-.98037-4.33201Zm33.76038,4.41841c-.65552,.55406-1.09681,.81604-1.39091,1.19292-2.70893,3.47109-2.5177,9.68906,.43,12.9404,.23788,.26238,1.00346,.40658,1.26533,.22757,1.52266-1.04085,3.13638-2.03187,4.40554-3.34342,2.95004-3.04855,3.77224-6.68525,2.2434-10.72044-.16221-.42814-.67419-.72379-1.02391-1.08089-.2107,.43695-.54677,.85636-.61072,1.31385-.29779,2.13-.48813,4.2753-.80211,6.40253-.05105,.34584-.48364,.77521-.82921,.88509-.207,.06583-.69146-.35813-.85586-.6662-.12375-.23189,.0725-.62835,.10986-.95343,.25267-2.19884,.50097-4.39817,.75068-6.59735l-.59246-.3108c-.43551,.45904-1.05206,.84676-1.26706,1.39268-.3903,.99101-.59683,2.06664-.77948,3.12433-.25477,1.47534-.36767,2.97626-.65295,4.44452-.0738,.37983-.5641,.67866-.86309,1.01469-.25353-.4046-.56077-.78726-.73861-1.22277-.0931-.22801,.03103-.55031,.07403-.82739,.34961-2.25264,.70326-4.50465,1.12752-7.21589Zm19.74115-13.04196c-3.13778,2.90514-3.79181,9.27116-.35272,12.86214,.78008,.81453,1.65921,.90148,2.65671,.30972,2.19546-1.30247,3.88028-3.08266,4.97955-5.36898,1.44239-2.99995,.96701-5.83605-1.01801-8.42885-.23792-.31078-.83933-.47818-1.25629-.45255-.17425,.01071-.41631,.69455-.43419,1.0813-.03212,.69508,.0834,1.3968,.13423,2.09597,.11525,1.58527,.2719,3.16972,.30698,4.7568,.00717,.32439-.44469,.65886-.68496,.98868-.31282-.27811-.68384-.5157-.91633-.84973-.13666-.19634-.04683-.54646-.06963-.82655-.18061-2.21806-.36383-4.43591-.54624-6.65383-.13795-.04135-.27588-.0827-.41383-.12404-.21271,.37895-.55434,.73798-.61642,1.14019-.31399,2.03444-.53793,4.08263-.83113,6.12056-.10816,.75185,.40729,2.03514-.8513,2.01415-1.37182-.02288-.85075-1.34429-.79521-2.10849,.15863-2.18231,.46039-4.35419,.70881-6.5565Zm-31.2703,19.92544c-2.78282-.0056-5.3419-.02409-7.90055,.00037-.33261,.00319-.80597,.12732-.97273,.36492-1.98867,2.83331-3.50176,5.88833-4.34938,9.60395,2.57415-.21975,4.92468-.401,7.26897-.64264,.33002-.03401,.69019-.30611,.93381-.56468,2.34789-2.49219,3.65221-5.57301,5.01988-8.76193Zm-25.21789,8.94516c.09359,.18991,.18718,.37983,.28078,.56975,2.5514,.11776,5.10206,.25659,7.65443,.34681,2.16413,.07648,2.15671,.049,2.80912-2.00733,.19831-.62505,.41646-1.2498,.69395-1.84265,.98372-2.10171,1.99701-4.18958,3.03089-6.34912-.76358-.18574-1.6003-.23809-2.2865-.58676-1.56649-.79599-2.66973-.31474-3.77097,.89067-2.76593,3.02757-5.60311,5.99004-8.41171,8.97863Zm16.67488-48.51404c.5581-1.77613,.59757-1.85635-1.13931-2.71117-2.80536-1.38068-5.65999-2.66303-8.51649-3.936-.43483-.19379-1.06794-.3005-1.48019-.13184-4.3346,1.77341-4.72834,1.36564-2.76984,5.95569,.09154,.21453,.10353,.5059,.25795,.64098,.2524,.22079,.59419,.48895,.89378,.48368,4.19137-.07371,8.38198-.19046,12.75409-.30134Zm64.82127,1.27269c.26202,5.81244-1.57912,10.98868-4.00664,16.17908,1.26456-.19584,2.58164-.33355,3.41614-1.04075,4.48601-3.80168,5.71624-8.88604,5.27508-14.51631-.02206-.28145-.54235-.73646-.84258-.74632-1.2057-.03962-2.41609,.06431-3.842,.1243Zm-4.16011-.79589c-1.30218,2.27553-2.21424,4.69583-3.83146,6.47507-1.80565,1.98652-1.48793,3.63986-.39259,5.57285,.50775,.89606,1.03692,1.78344,1.61647,2.63381,.26485,.38862,.67495,.67825,1.15689,1.14661,2.10021-4.07408,2.92968-8.30731,3.8268-12.48392,.59736-2.78105,.38193-2.82736-2.37611-3.34442Zm-84.6567,27.65989c3.57772-.44261,6.80031-.83476,10.01951-1.25292,.23767-.03087,.59867-.20493,.65303-.38693,.61703-2.0658,1.18543-4.14615,1.80875-6.37227-5.4253,.64584-8.98366,3.98667-12.48129,8.01212Zm11.94327-26.36552c-.01521,.16916-.03042,.33832-.04564,.50748,.1908,.19323,.39543,.37477,.57035,.58144,2.97369,3.51363,6.31384,4.41623,10.51971,2.87709,1.15737-.42355,1.77052-.93669,1.3242-2.36983-.29977-.96256-.58321-1.46259-1.64562-1.41667-.74033,.032-1.48834-.17855-2.23361-.18381-2.82964-.01995-5.65957-.00045-8.48939,.00429Zm20.29665-2.98409c-1.23883-.58695-2.35387-1.17701-3.52258-1.62791-.31406-.12118-.99067,.05008-1.16171,.31017-1.15729,1.75986-1.38569,3.67451-.82165,5.51032,1.29116,.16553,2.41296,.30933,3.54149,.45401,.66039-1.56204,1.30963-3.09771,1.96445-4.64658Zm47.70108-1.95112c-1.6974,1.88836-2.33705,7.93077-.84123,10.15329,1.11296-2.05546,2.15738-3.96943,3.18656-5.89155,.4927-.9202,.56364-1.68102-.52136-2.35505-.68678-.42665-1.16217-1.19365-1.82397-1.90669Zm-54.7981-.35512c.40787-.57612,.80065-1.13091,1.24287-1.75555-2.77588-2.40467-5.90807-2.78434-9.6664-2.37653,2.99577,1.46955,5.61431,2.75404,8.42353,4.13208Z"/><path d="M243.9532,41.62077c-1.4633,1.11885-3.06025,1.06399-4.66969,.50267-1.23871-.43201-1.69853-1.45737-1.81284-2.70467-.29602-3.22971,3.32323-8.47068,6.45986-9.32226,2.49045-.67615,4.7609,.99824,4.53011,3.54257-.2986,3.29179-1.73145,6.04856-4.50744,7.98168Zm-.81463-1.60835c2.13741-1.43741,3.34759-3.46409,3.64706-5.99746,.20605-1.74307-1.1342-2.97536-2.46574-2.28571-2.71359,1.40546-4.46949,3.64615-5.10629,6.63164-.13978,.65532,.14143,1.81964,.60646,2.08336,.64245,.36433,1.64663,.14129,2.48845,.07527,.2882-.02259,.55402-.32988,.83007-.5071Z"/><path d="M232.7111,55.25661c-1.11738,.39659-2.18998,1.01745-3.43021,.23401-1.25007-.78966-1.42417-1.96368-1.27098-3.26082,.30645-2.59495,2.48751-5.1001,4.85586-5.62043,2.21788-.48729,3.7388,1.01635,3.35443,3.24742-.39773,2.30864-1.81473,3.91049-3.5091,5.39982Zm-.65764-6.6704c-1.42692,.97796-2.01352,2.31461-2.40446,3.70575-.13501,.48041,.06024,1.26163,.40474,1.59852,.24462,.23922,1.16643,.16085,1.48303-.11879,.95339-.84216,1.83075-1.79764,2.59787-2.81447,.57183-.75797,.95594-1.82805,.00645-2.47888-.45671-.31305-1.37717,.05064-2.08763,.10788Z"/><path d="M232.71576,62.83834c1.86461-1.11356,4.06428-.00238,4.3061,2.17524,.31787,2.86259-1.57709,6.24349-3.92717,7.00667-1.99605,.64821-3.77552-.50501-3.78715-2.58228-.01545-2.76023,1.53306-4.78034,3.40822-6.59964Zm.23758,7.27659c1.83547-1.37548,2.60005-2.89836,2.49373-4.79541-.02217-.39538-.34713-.96163-.67817-1.09957-.33652-.14023-1.05071,.00382-1.25639,.27948-.90192,1.20871-1.80216,2.45255-2.43913,3.80773-.24037,.51137,.07697,1.46899,.45468,1.99896,.15728,.22071,1.13607-.14409,1.42528-.1912Z"/><path d="M246.49415,53.7119c-1.19378,.90338-2.43473,1.11245-3.73685,.23758-1.34772-.9055-1.16809-2.22799-.88961-3.5271,.39612-1.84779,1.39891-3.3356,2.95092-4.4093,1.44073-.9967,3.33033-1.04127,4.46143-.18241,.87348,.66323,1.18173,2.2775,.36316,3.89072-.75984,1.49748-1.88268,2.81071-2.8457,4.20506-.10112-.07152-.20224-.14303-.30336-.21455Zm-.14114-6.65079c-1.84061,1.30909-2.98172,2.50892-2.98717,4.3638-.00386,1.30701,.80709,1.7929,1.77905,.98472,1.10706-.92053,2.0939-2.04148,2.90963-3.22883,.32235-.46917,.31455-1.65171-.03411-1.96813-.40416-.3668-1.34862-.13816-1.6674-.15155Z"/><path d="M222.21733,69.53489c-.81257-.1156-1.8776-.08057-2.78544-.44127-1.26728-.5035-1.43799-1.83088-1.34488-2.9804,.15232-1.88051,.73407-3.65142,2.06572-5.10247,1.0157-1.10677,2.63739-1.61609,3.93336-1.07903,1.38062,.57214,1.6812,1.70017,1.58521,3.0948-.17432,2.53267-1.48439,4.42933-3.45396,6.50837Zm-.69735-7.47032c-1.18769,.87783-1.85762,2.49548-1.73773,4.41822,.07396,1.18615,.74879,1.61929,1.61995,1.21192,1.30787-.61159,2.85134-3.49193,2.65012-4.94553-.19415-1.40273-.89231-1.72016-2.53235-.6846Z"/><path d="M264.82352,13.42813c.13949,.36615,.42903,.76437,.40272,1.14044-.04123,.58938-.1301,1.39133-.51375,1.67077-.29375,.21395-1.23258-.07743-1.6005-.43572-.53886-.52476-.96118-1.27139-1.16736-1.99878-.13184-.46519,.05371-1.31643,.39348-1.53621,.34298-.22186,1.08922,.03501,1.58801,.24798,.35076,.14976,.58305,.57711,.8974,.91152Z"/><path d="M47.5608,34.27421c-.20885-.53226-.34861-1.10623-.63989-1.58871-.7722-1.27908-1.77162-2.44383-2.39278-3.78719-2.35668-5.09681-1.02166-10.4705,3.3343-14.03431,2.08078-1.70238,4.23038-3.25284,6.88593-3.96768,1.69038-.45502,3.03882-.09894,4.07118,1.36104,3.15897,4.46749,4.63202,9.38,3.80493,14.84839-.38157,2.52274-1.67324,4.58479-3.37705,6.50573-.92931,1.04774-1.32494,2.56879-1.94298,3.83886,3.96661,1.90884,7.59008,3.65426,11.21708,5.39233,.1616,.07744,.40554,.17999,.52545,.11434,.61149-.33483,1.15229-.87442,1.79791-1.05345,.96097-.26648,.82542-.99763,.97107-1.64649,.69436-3.09345,2.72421-4.39432,6.5202-4.12174,.0823-.33887,.16509-.69304,.25447-1.04555,.49007-1.93291,1.65635-3.26426,3.59848-3.7655,2.0177-.52075,3.82641-.0625,5.26064,1.51322,2.3407,2.57163,3.96508,5.57632,5.15659,8.81574,1.9339,5.25782,2.38132,10.59888,.66145,16.00819-.23862,.75049-.07386,1.12329,.52699,1.63738,3.80903,3.25902,7.78207,6.36818,11.28095,9.9384,5.79226,5.91037,9.9443,12.87172,11.08411,21.22069,.38658,2.83172,.19003,5.80429-.16932,8.65853-.31977,2.53984-1.41075,3.14941-3.95205,2.80656-4.46584-.60252-8.91845-1.30285-13.37801-1.95239-.55027-.08015-1.10927-.10044-1.92374-.1709,.58031,1.40835,1.15056,2.6166,1.57739,3.87357,.50998,1.5018,1.08621,3.01979,1.29594,4.57633,.36919,2.74004-.96166,4.25949-3.69101,3.95245-3.06118-.34437-6.13201-.92463-9.09352-1.77025-7.97335-2.27669-15.49696-5.6743-22.7118-9.73971-1.466-.82606-2.63025-1.24983-4.45905-.58526-4.53449,1.64778-9.19289,1.23645-13.61384-.61668-1.73455-.72708-3.39399-1.83695-4.80529-3.09036-3.29744-2.92853-3.24607-6.9214-.06982-9.96876,.46961-.45055,.97272-.86619,1.52819-1.35806-1.48769-1.628-2.90999-3.2264-4.39803-4.76104-.19107-.19706-.79474-.20639-1.08754-.06119-6.06759,3.00889-12.84029-1.16916-15.61783-5.9285-.96478-1.65317-.64115-3.65413,.96299-5.12812,1.32441-1.21695,2.88854-2.17302,4.44751-3.31899-.92451-1.41916-1.98897-3.05316-3.09887-4.75689-.23864,.06219-.5089,.09989-.75289,.20102-5.52184,2.28887-10.30123,.85142-14.50309-3.01953-1.15527-1.06429-2.11198-2.3862-2.98235-3.70685-1.0637-1.614-.86274-2.79614,.50332-4.15964,2.3241-2.31975,5.20556-3.44254,8.4177-3.81659,.5031-.05859,1.00979-.08619,1.56542-.13233-.26344-1.71744-1.02134-2.65681-2.77063-3.20477-2.84738-.8919-5.60273-2.12953-8.30458-3.41525-1.78117-.8476-3.04155-2.25574-3.40371-4.37107C.23188,27.0855-.55103,18.64822,.45073,10.13189c.18518-1.57429,.56068-3.15008,1.04922-4.66023C2.79031,1.48295,5.23946-.16298,9.45626,.017c3.73181,.15928,7.18276,1.37113,10.47571,3.02488,5.05968,2.54104,9.59614,5.75934,12.48583,10.78404,.82384,1.43252,1.59821,3.10575,1.67872,4.70479,.12711,2.52426,1.16097,4.59504,2.26591,6.70252,1.32799,2.53287,2.68227,5.05249,4.07054,7.55265,.19606,.35304,.63285,.77775,.98571,.80428,1.96253,.14754,3.93354,.18243,5.90166,.25587,.08016,.14273,.16031,.28546,.24047,.4282Zm49.3396,30.97552c-.38671-.40383-.64334-.73945-.9633-.99616-10.62875-8.52738-21.85794-16.11982-34.26639-21.85258-6.52281-3.01357-13.19139-5.62535-20.45259-6.12963-1.35881-.09437-2.21059-.52565-2.80598-1.63324-1.40704-2.61751-2.91258-5.19102-4.15707-7.88455-1.36025-2.94404-2.67612-5.63162-6.49727-6.02841-3.1022-.32214-6.10658-.69948-8.60315,1.6535-1.90152,1.79216-2.60177,4.19977-2.88759,6.6877-.66333,5.77383,.14136,11.34199,2.51464,16.68233,.41456,.93285,.91343,1.54381,1.87953,1.86838,2.25372,.75716,3.62214,2.35393,4.20109,4.64655,.18207,.721,.35331,1.44555,.56316,2.15857,.84638,2.87569,.39568,6.17387,2.77955,8.55293,.1244,.12414,.15508,.33671,.25654,.49016,.88098,1.33249,1.73266,2.62614,3.70767,2.33966,.75433-.1094,1.71809-.02136,2.3338,.372,3.00336,1.9188,5.81609,1.23105,8.67101-.30734,.76783-.41374,1.76041-.56127,2.14657,.49911,.41013,1.12619-.49082,1.53616-1.37304,1.87982-1.33145,.51865-2.64654,1.07933-3.9334,1.6077,.67295,4.94768,.94383,5.20229,5.62835,5.41355,.42173,.01903,.85096,.09488,1.26387,.04269,1.03208-.13047,1.87128,.14338,1.90542,1.27493,.03867,1.28184-1.04339,1.28563-1.93098,1.24708-1.73256-.07526-3.4595-.2854-5.19214-.34964-.54855-.02034-1.10777,.24571-2.07548,.48135,2.03038,2.13253,3.71728,3.9043,5.09143,5.34758,3.07982-.91793,5.78722-1.94742,8.58846-2.50635,3.96961-.79205,7.85788-.41721,11.22117,2.17264,.45293,.34877,1.00202,1.02817,.93603,1.46918-.06814,.45535-.7706,.97342-1.30422,1.17213-1.60212,.5966-2.69566,1.6059-3.23596,3.2375-.85113,2.57023-.63393,5.13308-.11342,7.84062,.51788-.21856,.88505-.43232,1.28086-.53079,2.19687-.54656,4.38374-1.16655,6.61117-1.53906,.79596-.13311,1.77891,.20778,2.51453,.62075,.38965,.21876,.72057,1.1822,.54774,1.57799-.16465,.37704-1.13576,.76415-1.54948,.60837-1.90578-.71766-3.62585-.18374-5.49425,.73311,3.86089,1.93006,7.72177,3.86014,11.97493,5.9863-.09293-.54631-.16576-.77985-.16763-1.01397-.04364-5.45995,1.10747-10.71224,2.9104-15.82313,3.27826-9.29309,8.09396-17.40743,17.47542-22.06933Zm.26806,44.63019c-.14086-1.12553-.11608-1.84687-.33307-2.48609-.6112-1.80051-1.26134-3.59302-2.00549-5.34214-1.72433-4.05306-.85319-5.29533,3.54908-4.74167,3.30217,.41529,6.58297,1.00077,9.87263,1.51465,1.65592,.25866,3.3104,.52658,4.90603,.78083,.96886-2.83171,.93965-5.40788,.59151-7.96804-1.39193-10.23641-7.15732-17.9176-14.56277-24.59992-.27323-.24654-.97684-.21757-1.39354-.07116-2.79239,.98105-5.13493,2.73451-7.17789,4.78666-3.65528,3.67171-6.26746,8.072-8.23103,12.85199-2.45867,5.98522-4.04235,12.16383-4.05337,18.68479-.0017,1.00124,.30377,1.63877,1.34822,1.9672,3.51886,1.10645,6.9818,2.40293,10.53012,3.39884,2.16787,.60848,4.45304,.79924,6.95957,1.22406Zm-25.47649-65.62363c-.04731,.10434-.09461,.20867-.14191,.313,3.39507,2.05615,6.79014,4.1123,10.1852,6.16844,.11355-.14897,.22709-.29794,.34063-.44691-1.48809-1.46989-2.99996-2.91711-4.44346-4.42955-.2761-.28928-.28284-.83562-.41385-1.26336,.4568-.02635,.91788-.09899,1.3684-.05743,.19449,.01794,.39586,.24752,.54538,.42258,2.05883,2.41037,4.16613,4.78282,6.13444,7.26536,.82565,1.04136,1.38042,2.2911,2.75759,2.77613,.08345-.16468,.1644-.24852,.15645-.32284-.02477-.23163-.07336-.46213-.13003-.68874-1.10109-4.40382-2.92518-8.47107-5.5547-12.18573-.26369-.3725-.09945-1.04793-.13381-1.58277,.46554,.18493,.97177,.3075,1.38295,.57575,.29557,.19283,.47543,.57244,.68788,.88181,2.87822,4.19129,4.68648,8.822,5.66494,13.79479,.09238,.46949,.23948,.92821,.37304,1.43711,.25897-.13713,.37512-.15921,.40761-.22353,.08343-.16518,.14095-.34608,.18923-.52596,1.41166-5.25952,.71591-10.35037-1.52676-15.20149-1.01103-2.18695-2.44698-4.19015-3.80675-6.19774-.68372-1.00946-1.81337-1.35035-3.00686-.94275-1.20434,.4113-1.72883,1.38197-1.78164,2.61066-.02404,.5595,.03139,1.12212,.04306,1.68349,.02677,1.2894-.68148,1.77318-1.88518,1.27693-.42923-.17697-.8294-.429-1.26489-.58541-1.70101-.61094-2.9788,.04263-3.4287,1.79837-.16021,.62523-.23011,1.29785-.20143,1.94259,.08059,1.81187-.14251,2.02471-1.97855,1.69432-.17304-.03114-.35855,.00696-.53827,.01291ZM15.14985,23.70097c.41755-.62797,.79376-1.48002,1.41847-2.06812,1.01054-.95131,.86615-1.7603,.14103-2.76747-2.16155-3.00232-4.23583-6.06794-6.4201-9.0533-1.5115-2.06584-3.14868-4.03972-4.83048-6.18314-.45482,.5592-.66551,.74916-.7921,.98438-1.60487,2.98195-1.87581,6.25292-2.00117,9.54364-.01088,.28532,.29736,.67051,.56299,.86537,3.91241,2.8703,7.84274,5.71617,11.92136,8.67864Zm8.30558-5.95169c-1.109-3.83675-2.19183-7.62889-3.32254-11.40669-.08943-.29878-.47026-.61508-.78501-.7253-2.89136-1.01244-5.76803-2.08902-8.71533-2.90839-1.14547-.31844-2.46044-.02752-3.64224-.01479,4.20396,5.64426,8.23213,11.05249,12.24505,16.44026,1.17832-.38674,2.44962-.804,4.22007-1.38509Zm-1.21045,34.02676c-.61349-.60027-.91597-1.01484-1.31894-1.27204-3.7114-2.36902-9.88353-1.59145-12.84196,1.65013-.23874,.26159-.31,1.03737-.10706,1.28117,1.17999,1.41756,2.31898,2.93048,3.74452,4.07011,3.31352,2.64896,7.01161,3.12405,10.88439,1.22097,.41091-.20192,.65689-.73953,.97937-1.12141-.4549-.1685-.90417-.46345-1.36565-.48391-2.14861-.09531-4.30229-.0822-6.44966-.1939-.34911-.01816-.81742-.40827-.95944-.74192-.08508-.19986,.29123-.72219,.5824-.91495,.21917-.14509,.63239,.01284,.95955,.01933,2.21288,.04389,4.42583,.08338,6.63875,.12429l.25346-.61916c-.49812-.39022-.94233-.96739-1.50611-1.12988-1.02344-.29497-2.11377-.39899-3.18398-.48094-1.4928-.1143-2.99768-.08496-4.48632-.23031-.3851-.0376-.7289-.49749-1.09166-.76341,.37885-.29061,.73078-.63261,1.14755-.85078,.2182-.11421,.55078-.02108,.83069-.00443,2.27559,.13532,4.55093,.27472,7.29013,.44103Zm14.84796,18.42128c-3.18847-2.84941-9.58781-2.89933-12.83797,.86351-.73722,.85351-.74076,1.73693-.05745,2.67408,1.50398,2.06265,3.43532,3.57183,5.81523,4.45026,3.12276,1.15264,5.90129,.41155,8.29504-1.80945,.28692-.26621,.39678-.88074,.33189-1.29341-.02712-.17246-.73076-.34886-1.11747-.33013-.695,.03367-1.38268,.21494-2.07393,.33157-1.5673,.26444-3.12988,.57002-4.70656,.75482-.32226,.03778-.69791-.38048-1.04895-.58854,.24733-.33768,.44881-.72949,.75939-.99248,.18256-.15459,.5396-.09822,.81628-.14738,2.19109-.38927,4.38173-.78111,6.57251-1.17216,.02813-.14123,.05627-.28246,.08441-.42369-.39734-.17598-.78703-.48217-1.19331-.50599-2.055-.12046-4.11518-.14997-6.1717-.24941-.75871-.03668-1.98758,.59767-2.08555-.65729-.10677-1.36785,1.25794-.97389,2.02397-.99077,2.18753-.04817,4.37821,.04713,6.59414,.08647ZM14.30348,40.94847c-.25722-2.77091-.48049-5.3203-.74647-7.86521-.03458-.33082-.20287-.79035-.45515-.93392-3.00846-1.71222-6.19271-2.93004-9.97177-3.42297,.46186,2.5419,.86427,4.8648,1.32622,7.1758,.06503,.32533,.36992,.6582,.65034,.87631,2.70278,2.10205,5.893,3.10959,9.19683,4.17ZM3.0168,16.68803c-.18023,.11111-.36046,.22222-.54069,.33333,.12371,2.55112,.22638,5.10349,.3776,7.65298,.12823,2.16168,.15489,2.15169,2.26364,2.607,.64098,.1384,1.28355,.29657,1.89995,.51684,2.18522,.78084,4.35944,1.59243,6.60697,2.41776,.1128-.77771,.0859-1.61564,.36821-2.3317,.6445-1.63466,.06122-2.68752-1.24281-3.67-3.27525-2.46766-6.49241-5.01239-9.73287-7.52621Zm49.87195,12.01886c1.8209,.38788,1.90449,.41959,2.59146-1.39025,1.10958-2.92321,2.11662-5.88618,3.11414-8.85013,.15186-.45119,.19831-1.09155-.00853-1.48603-2.17483-4.14775-1.80607-4.57824-6.19064-2.19503-.20492,.11139-.49386,.15084-.61375,.31733-.19597,.27212-.43065,.63771-.39711,.93547,.4692,4.16567,.98118,8.32653,1.50444,12.66863Zm4.8545,64.65177c-5.76172,.80976-11.08869-.53433-16.48514-2.46084,.31438,1.24042,.57586,2.5386,1.35871,3.30259,4.20833,4.10694,9.38615,4.85153,14.94959,3.88064,.27811-.04854,.68195-.60948,.66342-.90929-.07442-1.20405-.29219-2.39922-.48658-3.8131Zm.39947-4.21668c-2.38833-1.08147-4.88395-1.76088-6.80796-3.20286-2.14816-1.60998-3.76411-1.13755-5.58502,.13545-.84411,.5901-1.67754,1.20071-2.46938,1.85797-.36187,.30036-.61147,.73598-1.03223,1.26,4.25421,1.70608,8.54685,2.13207,12.78952,2.63076,2.82504,.33206,2.8508,.11321,3.10508-2.68133ZM22.61175,7.47573c.7785,3.51993,1.47323,6.69109,2.19353,9.85641,.05318,.23369,.26055,.57664,.44687,.61357,2.11484,.41918,4.23956,.78858,6.5146,1.19889-1.1553-5.34006-4.81724-8.56702-9.155-11.66887Zm27.37557,9.40002c-.16984,.00083-.33968,.00166-.50952,.00249-.17434,.2082-.33575,.42906-.52498,.62271-3.2171,3.29222-3.80023,6.70268-1.87079,10.7444,.53095,1.1122,1.0997,1.67415,2.4843,1.09448,.92995-.38933,1.40098-.71872,1.25493-1.77205-.10177-.734,.03719-1.49855-.02795-2.24098-.24737-2.81888-.53403-5.63432-.80598-8.45105Zm4.8875,19.92413c.46733-1.28873,.94946-2.45451,1.28798-3.66058,.09098-.3241-.14341-.98151-.41849-1.12723-1.86129-.98593-3.78895-1.03249-5.56329-.2976-.04285,1.30102-.08008,2.43139-.11753,3.56854,1.61742,.50992,3.20755,1.01124,4.81133,1.51687Zm6.44713,47.30364c-2.04022-1.51148-8.11603-1.57765-10.18736,.12137,2.15138,.91387,4.15542,1.77288,6.16615,2.61594,.96261,.4036,1.72673,.40238,2.29529-.74143,.35988-.724,1.07857-1.2697,1.72592-1.99588Zm-4.82142-54.58673c.61206,.35164,1.20147,.69027,1.86508,1.07153,2.13178-2.99056,2.21396-6.14461,1.45305-9.84763-1.18007,3.12116-2.21154,5.8493-3.31812,8.7761Z"/><path d="M71.94561,64.8987c-1.25204-1.3511-1.34824-2.94609-.94141-4.60135,.3131-1.27397,1.29046-1.82857,2.52138-2.06016,3.18732-.5997,8.74666,2.50843,9.89064,5.55063,.90832,2.41547-.54418,4.83389-3.09893,4.84442-3.30527,.0136-6.18504-1.15251-8.37168-3.73353Zm1.52423-.96288c1.63283,1.99212,3.76474,3.0055,6.31508,3.06438,1.75474,.04052,2.85495-1.41011,2.04263-2.67058-1.65545-2.56874-4.05193-4.10518-7.08422-4.4572-.6656-.07727-1.79815,.31264-2.01678,.8005-.30203,.67398,.01484,1.65261,.16006,2.48443,.0497,.28478,.38072,.52039,.58322,.77847Z"/><path d="M57.30905,54.99456c-.50033-1.07493-1.21971-2.0841-.5569-3.39278,.66808-1.31905,1.82041-1.60324,3.12621-1.57324,2.61229,.06003,5.31222,1.99476,6.05388,4.30338,.69456,2.16195-.65873,3.81807-2.91612,3.64612-2.33588-.17793-4.06439-1.43733-5.70707-2.98347Zm6.57848-1.28463c-1.10834-1.32818-2.49441-1.78593-3.91625-2.04375-.49101-.08904-1.2503,.17911-1.55315,.55389-.21505,.26611-.04997,1.17641,.25831,1.46518,.92843,.8696,1.9625,1.65281,3.04723,2.32047,.80858,.49769,1.91016,.77903,2.46841-.22767,.26852-.48423-.18047-1.36624-.30455-2.06811Z"/><path d="M49.76164,55.7152c1.28467,1.75112,.38619,4.0459-1.75887,4.49228-2.81978,.58678-6.36452-.98043-7.34623-3.24793-.83381-1.92592,.14621-3.80634,2.21309-4.01409,2.74643-.27604,4.90376,1.07477,6.892,2.76974Zm-7.22164,.9237c1.54267,1.69737,3.13094,2.31472,5.00948,2.02973,.39152-.05941,.92455-.43639,1.03061-.77898,.10782-.34826-.10303-1.04565-.39688-1.22439-1.28848-.78374-2.61178-1.56249-4.02106-2.06864-.53179-.191-1.45515,.21535-1.94709,.64142-.20487,.17742,.25074,1.11739,.32494,1.40085Z"/><path d="M60.14848,68.57014c-1.01208-1.10313-1.33741-2.31879-.58942-3.69772,.77418-1.42721,2.10773-1.37327,3.42732-1.21872,1.87694,.21985,3.4528,1.07766,4.66827,2.52134,1.12831,1.34016,1.35112,3.21712,.60291,4.42427-.57778,.93221-2.15572,1.39152-3.83903,.72896-1.56255-.61503-2.97594-1.60883-4.455-2.43587,.06165-.10742,.1233-.21484,.18495-.32226Zm6.60773-.76859c-1.47706-1.70875-2.7793-2.73146-4.62639-2.56172-1.30153,.11958-1.70867,.9728-.81231,1.86409,1.02096,1.01518,2.2301,1.89175,3.48917,2.59171,.49752,.2766,1.67404,.15716,1.95612-.21982,.32699-.437,.01018-1.35564-.00659-1.67426Z"/><path d="M42.10358,45.89609c.03834-.81986-.0971-1.87681,.17625-2.81466,.38158-1.30916,1.6869-1.60447,2.84007-1.62033,1.88649-.02595,3.70442,.38596,5.27474,1.57462,1.19774,.90664,1.85793,2.47299,1.44567,3.81388-.4392,1.42848-1.5338,1.83424-2.93127,1.87039-2.53781,.06564-4.54971-1.05947-6.80547-2.8239Zm7.37108-1.39971c-.98607-1.09948-2.65976-1.61365-4.56258-1.31272-1.17386,.18564-1.54134,.89836-1.05352,1.72716,.73237,1.24427,3.7456,2.50883,5.1737,2.17124,1.37813-.32576,1.62821-1.05077,.4424-2.58568Z"/><path d="M101.98318,83.01333c-.35134,.17344-.72044,.4993-1.09731,.50862-.59064,.01461-1.3974,.00188-1.71182-.35368-.24074-.27223-.03932-1.23439,.28263-1.6345,.47152-.58601,1.17494-1.07695,1.8796-1.3509,.45066-.17519,1.31562-.07085,1.56651,.24665,.25326,.3205,.068,1.08766-.0969,1.60433-.11596,.36334-.51947,.63494-.8227,.97947Z"/><path d="M228.77385,215.27421c-.20885-.53226-.34861-1.10623-.63989-1.58871-.7722-1.27908-1.77162-2.44383-2.39278-3.78719-2.35668-5.09681-1.02166-10.4705,3.3343-14.03431,2.08078-1.70238,4.23038-3.25284,6.88593-3.96768,1.69038-.45502,3.03882-.09894,4.07118,1.36104,3.15897,4.46749,4.63202,9.38,3.80493,14.84839-.38157,2.52274-1.67324,4.58479-3.37705,6.50573-.92931,1.04774-1.32494,2.56879-1.94298,3.83886,3.96661,1.90884,7.59008,3.65426,11.21708,5.39233,.1616,.07744,.40554,.17999,.52545,.11434,.61149-.33483,1.15229-.87442,1.79791-1.05345,.96097-.26648,.82542-.99763,.97107-1.64649,.69436-3.09345,2.72421-4.39432,6.5202-4.12174,.0823-.33887,.16509-.69304,.25447-1.04555,.49007-1.93291,1.65635-3.26426,3.59848-3.7655,2.0177-.52075,3.82641-.0625,5.26064,1.51322,2.3407,2.57163,3.96508,5.57632,5.15659,8.81574,1.9339,5.25782,2.38132,10.59888,.66145,16.00819-.23862,.75049-.07386,1.12329,.52699,1.63738,3.80903,3.25902,7.78207,6.36818,11.28095,9.9384,5.79226,5.91037,9.9443,12.87172,11.08411,21.22069,.38658,2.83172,.19003,5.80429-.16932,8.65853-.31977,2.53984-1.41075,3.14941-3.95205,2.80656-4.46584-.60252-8.91845-1.30285-13.37801-1.95239-.55027-.08015-1.10927-.10044-1.92374-.1709,.58031,1.40835,1.15056,2.6166,1.57739,3.87357,.50998,1.5018,1.08621,3.01979,1.29594,4.57633,.36919,2.74004-.96166,4.25949-3.69101,3.95245-3.06118-.34437-6.13201-.92463-9.09352-1.77025-7.97335-2.27669-15.49696-5.6743-22.7118-9.73971-1.466-.82606-2.63025-1.24983-4.45905-.58526-4.53449,1.64778-9.19289,1.23645-13.61384-.61668-1.73455-.72708-3.39399-1.83695-4.80529-3.09036-3.29744-2.92853-3.24607-6.9214-.06982-9.96876,.46961-.45055,.97272-.86619,1.52819-1.35806-1.48769-1.628-2.90999-3.2264-4.39803-4.76104-.19107-.19706-.79474-.20639-1.08754-.06119-6.06759,3.00889-12.84029-1.16916-15.61783-5.9285-.96478-1.65317-.64115-3.65413,.96299-5.12812,1.32441-1.21695,2.88854-2.17302,4.44751-3.31899-.92451-1.41916-1.98897-3.05316-3.09887-4.75689-.23864,.06219-.5089,.09989-.75289,.20102-5.52184,2.28887-10.30123,.85142-14.50309-3.01953-1.15527-1.06429-2.11198-2.3862-2.98235-3.70685-1.0637-1.614-.86274-2.79614,.50332-4.15964,2.3241-2.31975,5.20556-3.44254,8.4177-3.81659,.5031-.05859,1.00979-.08619,1.56542-.13233-.26344-1.71744-1.02134-2.65681-2.77063-3.20477-2.84738-.8919-5.60273-2.12953-8.30458-3.41525-1.78117-.8476-3.04155-2.25574-3.40371-4.37107-1.43944-8.4077-2.22235-16.84499-1.2206-25.36131,.18518-1.57429,.56068-3.15008,1.04922-4.66023,1.29036-3.98871,3.73951-5.63464,7.95631-5.45466,3.73181,.15928,7.18276,1.37113,10.47571,3.02488,5.05968,2.54104,9.59614,5.75934,12.48583,10.78404,.82384,1.43252,1.59821,3.10575,1.67872,4.70479,.12711,2.52426,1.16097,4.59504,2.26591,6.70252,1.32799,2.53287,2.68227,5.05249,4.07054,7.55265,.19606,.35304,.63285,.77775,.98571,.80428,1.96253,.14754,3.93354,.18243,5.90166,.25587,.08016,.14273,.16031,.28546,.24047,.4282Zm49.3396,30.97552c-.38671-.40383-.64334-.73945-.9633-.99616-10.62875-8.52738-21.85794-16.11982-34.26639-21.85258-6.52281-3.01357-13.19139-5.62535-20.45259-6.12963-1.35881-.09437-2.21059-.52565-2.80598-1.63324-1.40704-2.61751-2.91258-5.19102-4.15707-7.88455-1.36025-2.94404-2.67612-5.63162-6.49727-6.02841-3.1022-.32214-6.10658-.69948-8.60315,1.6535-1.90152,1.79216-2.60177,4.19977-2.88759,6.6877-.66333,5.77383,.14136,11.34199,2.51464,16.68233,.41456,.93285,.91343,1.54381,1.87953,1.86838,2.25372,.75716,3.62214,2.35393,4.20109,4.64655,.18207,.721,.35331,1.44555,.56316,2.15857,.84638,2.87569,.39568,6.17387,2.77955,8.55293,.1244,.12414,.15508,.33671,.25654,.49016,.88098,1.33249,1.73266,2.62614,3.70767,2.33966,.75433-.1094,1.71809-.02136,2.3338,.372,3.00336,1.9188,5.81609,1.23105,8.67101-.30734,.76783-.41374,1.76041-.56127,2.14657,.49911,.41013,1.12619-.49082,1.53616-1.37304,1.87982-1.33145,.51865-2.64654,1.07933-3.9334,1.6077,.67295,4.94768,.94383,5.20229,5.62835,5.41355,.42173,.01903,.85096,.09488,1.26387,.04269,1.03208-.13047,1.87128,.14338,1.90542,1.27493,.03867,1.28184-1.04339,1.28563-1.93098,1.24708-1.73256-.07526-3.4595-.2854-5.19214-.34964-.54855-.02034-1.10777,.24571-2.07548,.48135,2.03038,2.13253,3.71728,3.9043,5.09143,5.34758,3.07982-.91793,5.78722-1.94742,8.58846-2.50635,3.96961-.79205,7.85788-.41721,11.22117,2.17264,.45293,.34877,1.00202,1.02817,.93603,1.46918-.06814,.45535-.7706,.97342-1.30422,1.17213-1.60212,.5966-2.69566,1.6059-3.23596,3.2375-.85113,2.57023-.63393,5.13308-.11342,7.84062,.51788-.21856,.88505-.43232,1.28086-.53079,2.19687-.54656,4.38374-1.16655,6.61117-1.53906,.79596-.13311,1.77891,.20778,2.51453,.62075,.38965,.21876,.72057,1.1822,.54774,1.57799-.16465,.37704-1.13576,.76415-1.54948,.60837-1.90578-.71766-3.62585-.18374-5.49425,.73311,3.86089,1.93006,7.72177,3.86014,11.97493,5.9863-.09293-.54631-.16576-.77985-.16763-1.01397-.04364-5.45995,1.10747-10.71224,2.9104-15.82313,3.27826-9.29309,8.09396-17.40743,17.47542-22.06933Zm.26806,44.63019c-.14086-1.12553-.11608-1.84687-.33307-2.48609-.6112-1.80051-1.26134-3.59302-2.00549-5.34214-1.72433-4.05306-.85319-5.29533,3.54908-4.74167,3.30217,.41529,6.58297,1.00077,9.87263,1.51465,1.65592,.25866,3.3104,.52658,4.90603,.78083,.96886-2.83171,.93965-5.40788,.59151-7.96804-1.39193-10.23641-7.15732-17.9176-14.56277-24.59992-.27323-.24654-.97684-.21757-1.39354-.07116-2.79239,.98105-5.13493,2.73451-7.17789,4.78666-3.65528,3.67171-6.26746,8.072-8.23103,12.85199-2.45867,5.98522-4.04235,12.16383-4.05337,18.68479-.0017,1.00124,.30377,1.63877,1.34822,1.9672,3.51886,1.10645,6.9818,2.40293,10.53012,3.39884,2.16787,.60848,4.45304,.79924,6.95957,1.22406Zm-25.47649-65.62363c-.04731,.10434-.09461,.20867-.14191,.313,3.39507,2.05615,6.79014,4.1123,10.1852,6.16844,.11355-.14897,.22709-.29794,.34063-.44691-1.48809-1.46989-2.99996-2.91711-4.44346-4.42955-.2761-.28928-.28284-.83562-.41385-1.26336,.4568-.02635,.91788-.09899,1.3684-.05743,.19449,.01794,.39586,.24752,.54538,.42258,2.05883,2.41037,4.16613,4.78282,6.13444,7.26536,.82565,1.04136,1.38042,2.2911,2.75759,2.77613,.08345-.16468,.1644-.24852,.15645-.32284-.02477-.23163-.07336-.46213-.13003-.68874-1.10109-4.40382-2.92518-8.47107-5.5547-12.18573-.26369-.3725-.09945-1.04793-.13381-1.58277,.46554,.18493,.97177,.3075,1.38295,.57575,.29557,.19283,.47543,.57244,.68788,.88181,2.87822,4.19129,4.68648,8.822,5.66494,13.79479,.09238,.46949,.23948,.92821,.37304,1.43711,.25897-.13713,.37512-.15921,.40761-.22353,.08343-.16518,.14095-.34608,.18923-.52596,1.41166-5.25952,.71591-10.35037-1.52676-15.20149-1.01103-2.18695-2.44698-4.19015-3.80675-6.19774-.68372-1.00946-1.81337-1.35035-3.00686-.94275-1.20434,.4113-1.72883,1.38197-1.78164,2.61066-.02404,.5595,.03139,1.12212,.04306,1.68349,.02677,1.2894-.68148,1.77318-1.88518,1.27693-.42923-.17697-.8294-.429-1.26489-.58541-1.70101-.61094-2.9788,.04263-3.4287,1.79837-.16021,.62523-.23011,1.29785-.20143,1.94259,.08059,1.81187-.14251,2.02471-1.97855,1.69432-.17304-.03114-.35855,.00696-.53827,.01291Zm-56.54212-20.55532c.41755-.62797,.79376-1.48002,1.41847-2.06812,1.01054-.95131,.86615-1.7603,.14103-2.76747-2.16155-3.00232-4.23583-6.06794-6.4201-9.0533-1.5115-2.06584-3.14868-4.03972-4.83048-6.18314-.45482,.5592-.66551,.74916-.7921,.98438-1.60487,2.98195-1.87581,6.25292-2.00117,9.54364-.01088,.28532,.29736,.67051,.56299,.86537,3.91241,2.8703,7.84274,5.71617,11.92136,8.67864Zm8.30558-5.95169c-1.109-3.83675-2.19183-7.62889-3.32254-11.40669-.08943-.29878-.47026-.61508-.78501-.7253-2.89136-1.01244-5.76803-2.08902-8.71533-2.90839-1.14547-.31844-2.46044-.02752-3.64224-.01479,4.20396,5.64426,8.23213,11.05249,12.24505,16.44026,1.17832-.38674,2.44962-.804,4.22007-1.38509Zm-1.21045,34.02676c-.61349-.60027-.91597-1.01484-1.31894-1.27204-3.7114-2.36902-9.88353-1.59145-12.84196,1.65013-.23874,.26159-.31,1.03737-.10706,1.28117,1.17999,1.41756,2.31898,2.93048,3.74452,4.07011,3.31352,2.64896,7.01161,3.12405,10.88439,1.22097,.41091-.20192,.65689-.73953,.97937-1.12141-.4549-.1685-.90417-.46345-1.36565-.48391-2.14861-.09531-4.30229-.0822-6.44966-.1939-.34911-.01816-.81742-.40827-.95944-.74192-.08508-.19986,.29123-.72219,.5824-.91495,.21917-.14509,.63239,.01284,.95955,.01933,2.21288,.04389,4.42583,.08338,6.63875,.12429l.25346-.61916c-.49812-.39022-.94233-.96739-1.50611-1.12988-1.02344-.29497-2.11377-.39899-3.18398-.48094-1.4928-.1143-2.99768-.08496-4.48632-.23031-.3851-.0376-.7289-.49749-1.09166-.76341,.37885-.29061,.73078-.63261,1.14755-.85078,.2182-.11421,.55078-.02108,.83069-.00443,2.27559,.13532,4.55093,.27472,7.29013,.44103Zm14.84796,18.42128c-3.18847-2.84941-9.58781-2.89933-12.83797,.86351-.73722,.85351-.74076,1.73693-.05745,2.67408,1.50398,2.06265,3.43532,3.57183,5.81523,4.45026,3.12276,1.15264,5.90129,.41155,8.29504-1.80945,.28692-.26621,.39678-.88074,.33189-1.29341-.02712-.17246-.73076-.34886-1.11747-.33013-.695,.03367-1.38268,.21494-2.07393,.33157-1.5673,.26444-3.12988,.57002-4.70656,.75482-.32226,.03778-.69791-.38048-1.04895-.58854,.24733-.33768,.44881-.72949,.75939-.99248,.18256-.15459,.5396-.09822,.81628-.14738,2.19109-.38927,4.38173-.78111,6.57251-1.17216,.02813-.14123,.05627-.28246,.08441-.42369-.39734-.17598-.78703-.48217-1.19331-.50599-2.055-.12046-4.11518-.14997-6.1717-.24941-.75871-.03668-1.98758,.59767-2.08555-.65729-.10677-1.36785,1.25794-.97389,2.02397-.99077,2.18753-.04817,4.37821,.04713,6.59414,.08647Zm-22.78945-29.24885c-.25722-2.77091-.48049-5.3203-.74647-7.86521-.03458-.33082-.20287-.79035-.45515-.93392-3.00846-1.71222-6.19271-2.93004-9.97177-3.42297,.46186,2.5419,.86427,4.8648,1.32622,7.1758,.06503,.32533,.36992,.6582,.65034,.87631,2.70278,2.10205,5.893,3.10959,9.19683,4.17Zm-11.28668-24.26043c-.18023,.11111-.36046,.22222-.54069,.33333,.12371,2.55112,.22638,5.10349,.3776,7.65298,.12823,2.16168,.15489,2.15169,2.26364,2.607,.64098,.1384,1.28355,.29657,1.89995,.51684,2.18522,.78084,4.35944,1.59243,6.60697,2.41776,.1128-.77771,.0859-1.61564,.36821-2.3317,.6445-1.63466,.06122-2.68752-1.24281-3.67-3.27525-2.46766-6.49241-5.01239-9.73287-7.52621Zm49.87195,12.01886c1.8209,.38788,1.90449,.41959,2.59146-1.39025,1.10958-2.92321,2.11662-5.88618,3.11414-8.85013,.15186-.45119,.19831-1.09155-.00853-1.48603-2.17483-4.14775-1.80607-4.57824-6.19064-2.19503-.20492,.11139-.49386,.15084-.61375,.31733-.19597,.27212-.43065,.63771-.39711,.93547,.4692,4.16567,.98118,8.32653,1.50444,12.66863Zm4.8545,64.65177c-5.76172,.80976-11.08869-.53433-16.48514-2.46084,.31438,1.24042,.57586,2.5386,1.35871,3.30259,4.20833,4.10694,9.38615,4.85153,14.94959,3.88064,.27811-.04854,.68195-.60948,.66342-.90929-.07442-1.20405-.29219-2.39922-.48658-3.8131Zm.39947-4.21668c-2.38833-1.08147-4.88395-1.76088-6.80796-3.20286-2.14816-1.60998-3.76411-1.13755-5.58502,.13545-.84411,.5901-1.67754,1.20071-2.46938,1.85797-.36187,.30036-.61147,.73598-1.03223,1.26,4.25421,1.70608,8.54685,2.13207,12.78952,2.63076,2.82504,.33206,2.8508,.11321,3.10508-2.68133Zm-35.53097-81.66625c.7785,3.51993,1.47323,6.69109,2.19353,9.85641,.05318,.23369,.26055,.57664,.44687,.61357,2.11484,.41918,4.23956,.78858,6.5146,1.19889-1.1553-5.34006-4.81724-8.56702-9.155-11.66887Zm27.37557,9.40002c-.16984,.00083-.33968,.00166-.50952,.00249-.17434,.2082-.33575,.42906-.52498,.62271-3.2171,3.29222-3.80023,6.70268-1.87079,10.7444,.53095,1.1122,1.0997,1.67415,2.4843,1.09448,.92995-.38933,1.40098-.71872,1.25493-1.77205-.10177-.734,.03719-1.49855-.02795-2.24098-.24737-2.81888-.53403-5.63432-.80598-8.45105Zm4.8875,19.92413c.46733-1.28873,.94946-2.45451,1.28798-3.66058,.09098-.3241-.14341-.98151-.41849-1.12723-1.86129-.98593-3.78895-1.03249-5.56329-.2976-.04285,1.30102-.08008,2.43139-.11753,3.56854,1.61742,.50992,3.20755,1.01124,4.81133,1.51687Zm6.44713,47.30364c-2.04022-1.51148-8.11603-1.57765-10.18736,.12137,2.15138,.91387,4.15542,1.77288,6.16615,2.61594,.96261,.4036,1.72673,.40238,2.29529-.74143,.35988-.724,1.07857-1.2697,1.72592-1.99588Zm-4.82142-54.58673c.61206,.35164,1.20147,.69027,1.86508,1.07153,2.13178-2.99056,2.21396-6.14461,1.45305-9.84763-1.18007,3.12116-2.21154,5.8493-3.31812,8.7761Z"/><path d="M253.15865,245.8987c-1.25204-1.3511-1.34824-2.94609-.94141-4.60135,.3131-1.27397,1.29046-1.82857,2.52138-2.06016,3.18732-.5997,8.74666,2.50843,9.89064,5.55063,.90832,2.41547-.54418,4.83389-3.09893,4.84442-3.30527,.0136-6.18504-1.15251-8.37168-3.73353Zm1.52423-.96288c1.63283,1.99212,3.76474,3.0055,6.31508,3.06438,1.75474,.04052,2.85495-1.41011,2.04263-2.67058-1.65545-2.56874-4.05193-4.10518-7.08422-4.4572-.6656-.07727-1.79815,.31264-2.01678,.8005-.30203,.67398,.01484,1.65261,.16006,2.48443,.0497,.28478,.38072,.52039,.58322,.77847Z"/><path d="M238.5221,235.99456c-.50033-1.07493-1.21971-2.0841-.5569-3.39278,.66808-1.31905,1.82041-1.60324,3.12621-1.57324,2.61229,.06003,5.31222,1.99476,6.05388,4.30338,.69456,2.16195-.65873,3.81807-2.91612,3.64612-2.33588-.17793-4.06439-1.43733-5.70707-2.98347Zm6.57848-1.28463c-1.10834-1.32818-2.49441-1.78593-3.91625-2.04375-.49101-.08904-1.2503,.17911-1.55315,.55389-.21505,.26611-.04997,1.17641,.25831,1.46518,.92843,.8696,1.9625,1.65281,3.04723,2.32047,.80858,.49769,1.91016,.77903,2.46841-.22767,.26852-.48423-.18047-1.36624-.30455-2.06811Z"/><path d="M230.97469,236.7152c1.28467,1.75112,.38619,4.0459-1.75887,4.49228-2.81978,.58678-6.36452-.98043-7.34623-3.24793-.83381-1.92592,.14621-3.80634,2.21309-4.01409,2.74643-.27604,4.90376,1.07477,6.892,2.76974Zm-7.22164,.9237c1.54267,1.69737,3.13094,2.31472,5.00948,2.02973,.39152-.05941,.92455-.43639,1.03061-.77898,.10782-.34826-.10303-1.04565-.39688-1.22439-1.28848-.78374-2.61178-1.56249-4.02106-2.06864-.53179-.191-1.45515,.21535-1.94709,.64142-.20487,.17742,.25074,1.11739,.32494,1.40085Z"/><path d="M241.36153,249.57014c-1.01208-1.10313-1.33741-2.31879-.58942-3.69772,.77418-1.42721,2.10773-1.37327,3.42732-1.21872,1.87694,.21985,3.4528,1.07766,4.66827,2.52134,1.12831,1.34016,1.35112,3.21712,.60291,4.42427-.57778,.93221-2.15572,1.39152-3.83903,.72896-1.56255-.61503-2.97594-1.60883-4.455-2.43587,.06165-.10742,.1233-.21484,.18495-.32226Zm6.60773-.76859c-1.47706-1.70875-2.7793-2.73146-4.62639-2.56172-1.30153,.11958-1.70867,.9728-.81231,1.86409,1.02096,1.01518,2.2301,1.89175,3.48917,2.59171,.49752,.2766,1.67404,.15716,1.95612-.21982,.32699-.437,.01018-1.35564-.00659-1.67426Z"/><path d="M223.31663,226.89609c.03834-.81986-.0971-1.87681,.17625-2.81466,.38158-1.30916,1.6869-1.60447,2.84007-1.62033,1.88649-.02595,3.70442,.38596,5.27474,1.57462,1.19774,.90664,1.85793,2.47299,1.44567,3.81388-.4392,1.42848-1.5338,1.83424-2.93127,1.87039-2.53781,.06564-4.54971-1.05947-6.80547-2.8239Zm7.37108-1.39971c-.98607-1.09948-2.65976-1.61365-4.56258-1.31272-1.17386,.18564-1.54134,.89836-1.05352,1.72716,.73237,1.24427,3.7456,2.50883,5.1737,2.17124,1.37813-.32576,1.62821-1.05077,.4424-2.58568Z"/><path d="M283.19623,264.01333c-.35134,.17344-.72044,.4993-1.09731,.50862-.59064,.01461-1.3974,.00188-1.71182-.35368-.24074-.27223-.03932-1.23439,.28263-1.6345,.47152-.58601,1.17494-1.07695,1.8796-1.3509,.45066-.17519,1.31562-.07085,1.56651,.24665,.25326,.3205,.068,1.08766-.0969,1.60433-.11596,.36334-.51947,.63494-.8227,.97947Z"/></svg>